AnekTamil-CondensedLight.ufo
<glyph name="exclam" format="2">
  <advance width="342.51"/>
  <unicode hex="0021"/>
  <outline>
    <contour>
      <point x="214.64" y="370.78" type="line"/>
      <point x="229.65" y="1278.0" type="line"/>
      <point x="112.85999999999999" y="1278.0" type="line"/>
      <point x="127.87" y="370.78" type="line"/>
    </contour>
    <contour>
      <point x="172.08" y="-13.77" type="curve" smooth="yes"/>
      <point x="215.81" y="-13.77"/>
      <point x="236.53" y="17.48"/>
      <point x="236.53" y="78.09" type="curve" smooth="yes"/>
      <point x="236.53" y="94.62" type="line" smooth="yes"/>
      <point x="236.53" y="154.23"/>
      <point x="215.81" y="185.95"/>
      <point x="172.08" y="185.95" type="curve" smooth="yes"/>
      <point x="126.76" y="185.95"/>
      <point x="108.10000000000001" y="154.23"/>
      <point x="108.10000000000001" y="94.62" type="curve" smooth="yes"/>
      <point x="108.10000000000001" y="78.09" type="line" smooth="yes"/>
      <point x="108.10000000000001" y="17.48"/>
      <point x="126.76" y="-13.77"/>
    </contour>
  </outline>
</glyph>
<glyph name="numbersign" format="2">
  <advance width="812.69"/>
  <unicode hex="0023"/>
  <outline>
    <contour>
      <point x="153.27" y="0.0" type="line"/>
      <point x="242.32999999999998" y="0.0" type="line"/>
      <point x="345.99" y="1278.0" type="line"/>
      <point x="256.93" y="1278.0" type="line"/>
    </contour>
    <contour>
      <point x="46.7" y="365.67" type="line"/>
      <point x="727.3999999999999" y="365.67" type="line"/>
      <point x="727.3999999999999" y="449.14" type="line"/>
      <point x="46.7" y="449.14" type="line"/>
    </contour>
    <contour>
      <point x="467.23" y="0.0" type="line"/>
      <point x="556.29" y="0.0" type="line"/>
      <point x="659.4200000000001" y="1278.0" type="line"/>
      <point x="570.36" y="1278.0" type="line"/>
    </contour>
    <contour>
      <point x="86.35000000000001" y="837.21" type="line"/>
      <point x="765.9899999999999" y="837.21" type="line"/>
      <point x="765.9899999999999" y="921.1500000000001" type="line"/>
      <point x="86.35000000000001" y="921.1500000000001" type="line"/>
    </contour>
  </outline>
</glyph>
<glyph name="dollar" format="2">
  <advance width="576.4100000000001"/>
  <unicode hex="0024"/>
  <anchor x="274.5" y="0.0" name="bottom"/>
  <anchor x="274.5" y="1278.0" name="top"/>
  <outline>
    <contour>
      <point x="331.12" y="1236.66" type="line"/>
      <point x="331.12" y="1448.6999999999998" type="line"/>
      <point x="234.11" y="1448.6999999999998" type="line"/>
      <point x="234.11" y="1236.66" type="line"/>
    </contour>
    <contour>
      <point x="331.12" y="-179.70000000000002" type="line"/>
      <point x="331.12" y="19.83" type="line"/>
      <point x="234.11" y="19.83" type="line"/>
      <point x="234.11" y="-179.70000000000002" type="line"/>
    </contour>
    <component base="S"/>
  </outline>
</glyph>
<glyph name="percent" format="2">
  <advance width="1055.04"/>
  <unicode hex="0025"/>
  <outline>
    <contour>
      <point x="232.59" y="0.0" type="line"/>
      <point x="329.07" y="0.0" type="line"/>
      <point x="822.4499999999999" y="1278.0" type="line"/>
      <point x="727.03" y="1278.0" type="line"/>
    </contour>
    <contour>
      <point x="794.79" y="-18.71" type="curve" smooth="yes"/>
      <point x="920.58" y="-18.71"/>
      <point x="982.7099999999999" y="59.769999999999996"/>
      <point x="982.7099999999999" y="199.73" type="curve" smooth="yes"/>
      <point x="982.7099999999999" y="402.52" type="line" smooth="yes"/>
      <point x="982.7099999999999" y="542.95"/>
      <point x="920.58" y="621.43"/>
      <point x="794.79" y="621.43" type="curve" smooth="yes"/>
      <point x="669.0" y="621.43"/>
      <point x="606.93" y="542.9499999999999"/>
      <point x="606.93" y="402.52" type="curve" smooth="yes"/>
      <point x="606.93" y="199.73" type="line" smooth="yes"/>
      <point x="606.93" y="59.769999999999996"/>
      <point x="669.0" y="-18.71"/>
    </contour>
    <contour>
      <point x="794.79" y="62.05" type="curve" smooth="yes"/>
      <point x="730.75" y="62.05"/>
      <point x="701.82" y="105.50999999999999"/>
      <point x="701.82" y="195.01999999999998" type="curve" smooth="yes"/>
      <point x="701.82" y="407.17" type="line" smooth="yes"/>
      <point x="701.82" y="497.21000000000004"/>
      <point x="730.75" y="540.67"/>
      <point x="794.79" y="540.67" type="curve" smooth="yes"/>
      <point x="858.8299999999999" y="540.67"/>
      <point x="887.29" y="497.21000000000004"/>
      <point x="887.29" y="407.17" type="curve" smooth="yes"/>
      <point x="887.29" y="195.01999999999998" type="line" smooth="yes"/>
      <point x="887.29" y="105.50999999999999"/>
      <point x="858.8299999999999" y="62.05"/>
    </contour>
    <contour>
      <point x="260.72" y="655.51" type="curve" smooth="yes"/>
      <point x="386.51000000000005" y="655.51"/>
      <point x="448.10999999999996" y="733.99"/>
      <point x="448.10999999999996" y="873.4200000000001" type="curve" smooth="yes"/>
      <point x="448.10999999999996" y="1076.7399999999998" type="line" smooth="yes"/>
      <point x="448.10999999999996" y="1215.6399999999999"/>
      <point x="386.50999999999993" y="1294.1200000000001"/>
      <point x="260.72" y="1294.1200000000001" type="curve" smooth="yes"/>
      <point x="134.4" y="1294.1200000000001"/>
      <point x="72.33" y="1215.6399999999999"/>
      <point x="72.33" y="1076.7399999999998" type="curve" smooth="yes"/>
      <point x="72.33" y="873.4200000000001" type="line" smooth="yes"/>
      <point x="72.33" y="733.99"/>
      <point x="134.4" y="655.51"/>
    </contour>
    <contour>
      <point x="260.72" y="735.8" type="curve" smooth="yes"/>
      <point x="196.68" y="735.8"/>
      <point x="167.75" y="778.73"/>
      <point x="167.75" y="868.77" type="curve" smooth="yes"/>
      <point x="167.75" y="1081.39" type="line" smooth="yes"/>
      <point x="167.75" y="1170.4299999999998"/>
      <point x="196.68" y="1214.3600000000001"/>
      <point x="260.72" y="1214.3600000000001" type="curve" smooth="yes"/>
      <point x="324.23" y="1214.3600000000001"/>
      <point x="352.69" y="1170.4299999999998"/>
      <point x="352.69" y="1081.39" type="curve" smooth="yes"/>
      <point x="352.69" y="868.77" type="line" smooth="yes"/>
      <point x="352.69" y="778.73"/>
      <point x="324.22999999999996" y="735.8"/>
    </contour>
  </outline>
</glyph>
<glyph name="ampersand" format="2">
  <advance width="763.1099999999999"/>
  <unicode hex="0026"/>
  <outline>
    <contour>
      <point x="665.0299999999999" y="0.0" type="curve"/>
      <point x="780.64" y="0.0" type="line"/>
      <point x="780.64" y="6.7700000000000005" type="line"/>
      <point x="733.56" y="85.51"/>
      <point x="634.8599999999999" y="245.54999999999998"/>
      <point x="587.02" y="322.81" type="curve"/>
      <point x="565.9499999999999" y="356.71" type="line"/>
      <point x="300.32" y="779.66" type="line" smooth="yes"/>
      <point x="246.67000000000004" y="864.6600000000001"/>
      <point x="228.2" y="923.42"/>
      <point x="228.2" y="1004.99" type="curve" smooth="yes"/>
      <point x="228.2" y="1015.6899999999999" type="line" smooth="yes"/>
      <point x="228.2" y="1125.47"/>
      <point x="269.66999999999996" y="1190.22"/>
      <point x="370.95" y="1190.22" type="curve" smooth="yes"/>
      <point x="440.41999999999996" y="1190.22"/>
      <point x="492.48" y="1164.34"/>
      <point x="538.36" y="1128.7" type="curve"/>
      <point x="530.24" y="1236.4199999999998" type="line"/>
      <point x="490.59" y="1269.24"/>
      <point x="430.22999999999996" y="1295.1200000000001"/>
      <point x="351.22" y="1295.1200000000001" type="curve" smooth="yes"/>
      <point x="192.67" y="1295.1200000000001"/>
      <point x="113.94" y="1192.17"/>
      <point x="113.94" y="1018.8699999999999" type="curve" smooth="yes"/>
      <point x="113.94" y="1008.11" type="line" smooth="yes"/>
      <point x="113.94" y="901.4"/>
      <point x="143.35999999999999" y="826.4"/>
      <point x="202.78000000000003" y="735.51" type="curve"/>
      <point x="223.91000000000003" y="703.0799999999999" type="line"/>
      <point x="513.91" y="247.70000000000002" type="line"/>
      <point x="527.03" y="227.10999999999999" type="line"/>
      <point x="547.04" y="196.39000000000001"/>
      <point x="643.9599999999999" y="34.370000000000005"/>
    </contour>
    <contour>
      <point x="318.86" y="-17.12" type="curve" smooth="yes"/>
      <point x="471.89" y="-17.12"/>
      <point x="536.48" y="65.64"/>
      <point x="587.38" y="229.86" type="curve"/>
      <point x="606.2800000000001" y="260.71" type="line"/>
      <point x="653.0100000000001" y="401.89"/>
      <point x="679.7799999999999" y="594.13"/>
      <point x="688.2499999999999" y="830.06" type="curve"/>
      <point x="577.1099999999999" y="830.06" type="line"/>
      <point x="569.76" y="631.6099999999999"/>
      <point x="557.88" y="472.69"/>
      <point x="532.11" y="343.58000000000004" type="curve"/>
      <point x="511.74" y="291.31" type="line"/>
      <point x="476.62" y="152.88"/>
      <point x="426.73999999999995" y="81.42"/>
      <point x="328.34000000000003" y="81.42" type="curve" smooth="yes"/>
      <point x="228.65" y="81.42"/>
      <point x="181.01000000000002" y="146.06000000000003"/>
      <point x="181.01000000000002" y="286.86" type="curve" smooth="yes"/>
      <point x="181.01000000000002" y="449.93" type="line" smooth="yes"/>
      <point x="181.01000000000002" y="552.0899999999999"/>
      <point x="201.53" y="618.13"/>
      <point x="268.34000000000003" y="673.1800000000001" type="curve"/>
      <point x="208.71" y="756.65" type="line"/>
      <point x="99.41000000000001" y="673.0600000000001"/>
      <point x="68.33999999999999" y="572.8299999999999"/>
      <point x="68.33999999999999" y="439.57" type="curve" smooth="yes"/>
      <point x="68.33999999999999" y="282.62" type="line" smooth="yes"/>
      <point x="68.33999999999999" y="84.60000000000001"/>
      <point x="147.12" y="-17.12"/>
    </contour>
  </outline>
</glyph>
<glyph name="quotesingle" format="2">
  <advance width="250.10999999999999"/>
  <unicode hex="0027"/>
  <outline>
    <contour>
      <point x="168.94" y="894.56" type="line"/>
      <point x="179.77" y="1331.35" type="line"/>
      <point x="70.34" y="1331.35" type="line"/>
      <point x="81.7" y="894.56" type="line"/>
    </contour>
  </outline>
</glyph>
<glyph name="parenleft" format="2">
  <advance width="387.17"/>
  <unicode hex="0028"/>
  <outline>
    <contour>
      <point x="211.47" y="684.7299999999999" type="line" smooth="yes"/>
      <point x="211.47" y="977.15"/>
      <point x="241.6" y="1155.05"/>
      <point x="358.83000000000004" y="1352.0" type="curve"/>
      <point x="245.92999999999998" y="1352.0" type="line"/>
      <point x="137.7" y="1171.3500000000001"/>
      <point x="105.63000000000001" y="994.8"/>
      <point x="105.63000000000001" y="690.79" type="curve" smooth="yes"/>
      <point x="105.63000000000001" y="420.21" type="line" smooth="yes"/>
      <point x="105.63000000000001" y="117.2"/>
      <point x="137.7" y="-59.82"/>
      <point x="245.92999999999998" y="-240.47" type="curve"/>
      <point x="358.83000000000004" y="-240.47" type="line"/>
      <point x="241.6" y="-44.580000000000005"/>
      <point x="211.47" y="133.32"/>
      <point x="211.47" y="427.27" type="curve" smooth="yes"/>
    </contour>
  </outline>
</glyph>
<glyph name="parenright" format="2">
  <advance width="387.16999999999996"/>
  <unicode hex="0029"/>
  <outline>
    <contour>
      <point x="175.70000000000002" y="684.7299999999999" type="curve" smooth="yes"/>
      <point x="175.70000000000002" y="427.27" type="line" smooth="yes"/>
      <point x="175.70000000000002" y="133.32"/>
      <point x="145.57000000000002" y="-44.580000000000005"/>
      <point x="28.340000000000003" y="-240.47" type="curve"/>
      <point x="141.24" y="-240.47" type="line"/>
      <point x="249.47000000000003" y="-59.82"/>
      <point x="281.53999999999996" y="117.2"/>
      <point x="281.53999999999996" y="420.21" type="curve" smooth="yes"/>
      <point x="281.53999999999996" y="690.79" type="line" smooth="yes"/>
      <point x="281.53999999999996" y="994.8"/>
      <point x="249.47" y="1171.3500000000001"/>
      <point x="141.24" y="1352.0" type="curve"/>
      <point x="28.340000000000003" y="1352.0" type="line"/>
      <point x="145.57000000000002" y="1155.05"/>
      <point x="175.70000000000002" y="977.15"/>
    </contour>
  </outline>
</glyph>
<glyph name="asterisk" format="2">
  <advance width="615.3100000000001"/>
  <unicode hex="002A"/>
  <outline>
    <contour>
      <point x="182.38" y="739.6700000000001" type="line"/>
      <point x="306.77" y="934.2900000000001" type="line"/>
      <point x="307.01" y="934.2900000000001" type="line"/>
      <point x="431.4" y="739.6700000000001" type="line"/>
      <point x="509.44999999999993" y="788.29" type="line"/>
      <point x="368.29" y="978.7900000000001" type="line"/>
      <point x="366.94" y="976.68" type="line"/>
      <point x="570.7299999999999" y="1028.9599999999998" type="line"/>
      <point x="549.6" y="1118.49" type="line"/>
      <point x="343.57" y="1049.85" type="line"/>
      <point x="346.27000000000004" y="1047.6200000000001" type="line"/>
      <point x="356.1" y="1278.0" type="line"/>
      <point x="259.21" y="1278.0" type="line"/>
      <point x="268.03999999999996" y="1047.6200000000001" type="line"/>
      <point x="270.74" y="1049.85" type="line"/>
      <point x="64.71" y="1118.49" type="line"/>
      <point x="44.58" y="1028.9599999999998" type="line"/>
      <point x="247.37" y="976.68" type="line"/>
      <point x="246.49" y="978.7900000000001" type="line"/>
      <point x="104.85999999999999" y="788.29" type="line"/>
    </contour>
  </outline>
</glyph>
<glyph name="plus" format="2">
  <advance width="640.86"/>
  <unicode hex="002B"/>
  <outline>
    <contour>
      <point x="368.64" y="313.23" type="line"/>
      <point x="368.64" y="959.7699999999999" type="line"/>
      <point x="272.69" y="959.7699999999999" type="line"/>
      <point x="272.69" y="313.23" type="line"/>
    </contour>
    <contour>
      <point x="58.88" y="590.32" type="line"/>
      <point x="581.98" y="590.32" type="line"/>
      <point x="581.98" y="682.6800000000001" type="line"/>
      <point x="58.88" y="682.6800000000001" type="line"/>
    </contour>
  </outline>
</glyph>
<glyph name="comma" format="2">
  <advance width="265.53000000000003"/>
  <unicode hex="002C"/>
  <outline>
    <contour>
      <point x="186.48" y="243.63000000000002" type="curve"/>
      <point x="81.11" y="243.63000000000002" type="line"/>
      <point x="85.58" y="202.92000000000002"/>
      <point x="88.52" y="163.45000000000002"/>
      <point x="88.52" y="121.8" type="curve" smooth="yes"/>
      <point x="88.52" y="-12.089999999999996"/>
      <point x="56.989999999999995" y="-121.67999999999999"/>
      <point x="4.049999999999999" y="-216.33" type="curve"/>
      <point x="76.58" y="-250.27999999999997" type="line"/>
      <point x="160.70999999999998" y="-136.45"/>
      <point x="195.48" y="-16.029999999999998"/>
      <point x="195.48" y="125.51" type="curve" smooth="yes"/>
      <point x="195.48" y="174.45000000000002"/>
      <point x="190.01" y="220.33"/>
    </contour>
  </outline>
</glyph>
<glyph name="hyphen" format="2">
  <advance width="575.8199999999999"/>
  <unicode hex="002D"/>
  <outline>
    <contour>
      <point x="98.28000000000002" y="480.19" type="line"/>
      <point x="477.54" y="480.19" type="line"/>
      <point x="477.54" y="573.61" type="line"/>
      <point x="98.28000000000002" y="573.61" type="line"/>
    </contour>
  </outline>
</glyph>
<glyph name="period" format="2">
  <advance width="249.59"/>
  <unicode hex="002E"/>
  <outline>
    <contour>
      <point x="124.56" y="-13.77" type="curve" smooth="yes"/>
      <point x="168.29" y="-13.77"/>
      <point x="189.01000000000002" y="17.48"/>
      <point x="189.01000000000002" y="78.09" type="curve" smooth="yes"/>
      <point x="189.01000000000002" y="95.56" type="line" smooth="yes"/>
      <point x="189.01000000000002" y="155.17"/>
      <point x="168.29" y="186.89"/>
      <point x="124.56" y="186.89" type="curve" smooth="yes"/>
      <point x="79.24" y="186.89"/>
      <point x="60.58" y="155.17"/>
      <point x="60.58" y="95.56" type="curve" smooth="yes"/>
      <point x="60.58" y="78.09" type="line" smooth="yes"/>
      <point x="60.58" y="17.48"/>
      <point x="79.24" y="-13.77"/>
    </contour>
  </outline>
</glyph>
<glyph name="slash" format="2">
  <advance width="499.04999999999995"/>
  <unicode hex="002F"/>
  <outline>
    <contour>
      <point x="36.75" y="-240.47" type="line"/>
      <point x="138.47000000000003" y="-240.47" type="line"/>
      <point x="462.29999999999995" y="1352.0" type="line"/>
      <point x="361.11000000000007" y="1352.0" type="line"/>
    </contour>
  </outline>
</glyph>
<glyph name="zero" format="2">
  <advance width="694.32"/>
  <unicode hex="0030"/>
  <outline>
    <contour>
      <point x="347.16" y="-17.12" type="curve" smooth="yes"/>
      <point x="520.02" y="-17.12"/>
      <point x="604.51" y="88.25"/>
      <point x="604.51" y="295.93" type="curve"/>
      <point x="604.51" y="981.5999999999999" type="line"/>
      <point x="604.51" y="1189.75"/>
      <point x="520.02" y="1295.1200000000001"/>
      <point x="347.16" y="1295.1200000000001" type="curve" smooth="yes"/>
      <point x="173.77" y="1295.1200000000001"/>
      <point x="89.80999999999999" y="1189.75"/>
      <point x="89.80999999999999" y="981.5999999999999" type="curve"/>
      <point x="89.80999999999999" y="295.93" type="line"/>
      <point x="89.80999999999999" y="88.25"/>
      <point x="173.76999999999998" y="-17.12"/>
    </contour>
    <contour>
      <point x="347.16" y="79.89" type="curve" smooth="yes"/>
      <point x="247.53" y="79.89"/>
      <point x="203.07000000000002" y="148.82"/>
      <point x="203.07000000000002" y="287.57" type="curve" smooth="yes"/>
      <point x="203.07000000000002" y="990.96" type="line" smooth="yes"/>
      <point x="203.07000000000002" y="1129.1799999999998"/>
      <point x="247.52999999999997" y="1198.6399999999999"/>
      <point x="347.16" y="1198.6399999999999" type="curve" smooth="yes"/>
      <point x="446.79" y="1198.6399999999999"/>
      <point x="491.25" y="1129.1799999999998"/>
      <point x="491.25" y="990.96" type="curve" smooth="yes"/>
      <point x="491.25" y="287.57" type="line" smooth="yes"/>
      <point x="491.25" y="148.82"/>
      <point x="446.79" y="79.89"/>
    </contour>
  </outline>
</glyph>
<glyph name="one" format="2">
  <advance width="455.88000000000005"/>
  <unicode hex="0031"/>
  <outline>
    <contour>
      <point x="238.40000000000003" y="0.0" type="line"/>
      <point x="350.07" y="0.0" type="line"/>
      <point x="350.07" y="1278.0" type="line"/>
      <point x="231.01" y="1278.0" type="line"/>
      <point x="25.35" y="1084.6699999999998" type="line"/>
      <point x="25.349999999999998" y="958.88" type="line"/>
      <point x="227.81" y="1150.6599999999999" type="line"/>
      <point x="238.40000000000003" y="1150.6599999999999" type="line"/>
    </contour>
  </outline>
</glyph>
<glyph name="two" format="2">
  <advance width="544.8299999999999"/>
  <unicode hex="0032"/>
  <outline>
    <contour>
      <point x="45.760000000000005" y="0.0" type="line"/>
      <point x="488.78" y="0.0" type="line"/>
      <point x="488.78" y="100.78000000000002" type="line"/>
      <point x="109.63" y="100.78000000000002" type="line"/>
      <point x="156.55" y="74.54" type="line"/>
      <point x="156.55" y="107.84" type="line"/>
      <point x="310.6" y="430.14000000000004" type="line" smooth="yes"/>
      <point x="421.53999999999996" y="661.76"/>
      <point x="480.37000000000006" y="784.64"/>
      <point x="480.37000000000006" y="951.4" type="curve" smooth="yes"/>
      <point x="480.37000000000006" y="997.09" type="line" smooth="yes"/>
      <point x="480.37000000000006" y="1185.34"/>
      <point x="405.94" y="1294.5900000000001"/>
      <point x="242.26000000000002" y="1294.5900000000001" type="curve" smooth="yes"/>
      <point x="161.30999999999997" y="1294.5900000000001"/>
      <point x="97.36" y="1262.1799999999998"/>
      <point x="59.589999999999996" y="1231.65" type="curve"/>
      <point x="50.41" y="1123.4" type="line"/>
      <point x="99.35000000000001" y="1161.22"/>
      <point x="150.53" y="1190.75"/>
      <point x="220.59000000000003" y="1190.75" type="curve" smooth="yes"/>
      <point x="322.70000000000005" y="1190.75"/>
      <point x="367.64" y="1119.4099999999999"/>
      <point x="367.64" y="986.49" type="curve" smooth="yes"/>
      <point x="367.64" y="939.27" type="line" smooth="yes"/>
      <point x="367.64" y="811.06"/>
      <point x="326.11999999999995" y="701.0799999999999"/>
      <point x="223.54" y="483.83000000000004" type="curve" smooth="yes"/>
      <point x="45.760000000000005" y="112.55" type="line"/>
    </contour>
  </outline>
</glyph>
<glyph name="three" format="2">
  <advance width="560.59"/>
  <unicode hex="0033"/>
  <outline>
    <contour>
      <point x="236.73" y="-16.59" type="curve" smooth="yes"/>
      <point x="417.88" y="-16.59"/>
      <point x="492.24999999999994" y="97.07000000000001"/>
      <point x="492.24999999999994" y="282.26" type="curve" smooth="yes"/>
      <point x="492.24999999999994" y="408.23" type="line" smooth="yes"/>
      <point x="492.24999999999994" y="550.58"/>
      <point x="444.19" y="646.2800000000001"/>
      <point x="302.30999999999995" y="665.7" type="curve"/>
      <point x="306.02000000000004" y="655.2199999999999" type="line"/>
      <point x="306.02" y="668.0600000000001" type="line"/>
      <point x="438.47999999999996" y="685.6"/>
      <point x="486.25" y="782.18"/>
      <point x="486.25" y="917.18" type="curve" smooth="yes"/>
      <point x="486.25" y="1008.81" type="line" smooth="yes"/>
      <point x="486.25" y="1190.23"/>
      <point x="418.40999999999997" y="1295.1200000000001"/>
      <point x="247.56" y="1295.1200000000001" type="curve" smooth="yes"/>
      <point x="162.83999999999997" y="1295.1200000000001"/>
      <point x="97.89" y="1267.1200000000001"/>
      <point x="54.589999999999996" y="1233.24" type="curve"/>
      <point x="45.41" y="1128.11" type="line"/>
      <point x="95.47000000000001" y="1163.75"/>
      <point x="153.71" y="1192.28"/>
      <point x="224.24" y="1192.28" type="curve" smooth="yes"/>
      <point x="335.16999999999996" y="1192.28"/>
      <point x="374.04999999999995" y="1120.41"/>
      <point x="374.04999999999995" y="988.14" type="curve" smooth="yes"/>
      <point x="374.04999999999995" y="909.82" type="line" smooth="yes"/>
      <point x="374.04999999999995" y="783.3100000000001"/>
      <point x="327.64" y="713.5600000000001"/>
      <point x="194.89000000000004" y="709.03" type="curve" smooth="yes"/>
      <point x="120.82999999999998" y="706.5" type="line"/>
      <point x="120.82999999999998" y="611.7800000000001" type="line"/>
      <point x="193.42000000000002" y="609.25" type="line" smooth="yes"/>
      <point x="324.35" y="604.72"/>
      <point x="378.99" y="546.26"/>
      <point x="378.99" y="405.05" type="curve" smooth="yes"/>
      <point x="378.99" y="292.86" type="line" smooth="yes"/>
      <point x="378.99" y="160.53"/>
      <point x="335.82000000000005" y="87.31000000000002"/>
      <point x="219.24" y="87.31000000000002" type="curve" smooth="yes"/>
      <point x="147.24" y="87.31000000000002"/>
      <point x="90.0" y="115.31"/>
      <point x="37.35" y="154.66" type="curve"/>
      <point x="46.53" y="43.290000000000006" type="line"/>
      <point x="86.83" y="12.349999999999998"/>
      <point x="155.84000000000003" y="-16.59"/>
    </contour>
  </outline>
</glyph>
<glyph name="four" format="2">
  <advance width="633.97"/>
  <unicode hex="0034"/>
  <outline>
    <contour>
      <point x="395.37" y="0.0" type="line"/>
      <point x="501.73999999999995" y="0.0" type="line"/>
      <point x="501.73999999999995" y="1278.0" type="line"/>
      <point x="305.84999999999997" y="1278.0" type="line"/>
      <point x="36.0" y="346.35" type="line"/>
      <point x="36.0" y="234.45" type="line"/>
      <point x="607.4399999999999" y="234.45" type="line"/>
      <point x="607.4399999999999" y="332.58" type="line"/>
      <point x="91.91999999999999" y="332.58" type="line"/>
      <point x="139.78" y="295.09000000000003" type="line"/>
      <point x="139.78" y="341.17" type="line"/>
      <point x="381.14" y="1194.6499999999999" type="line"/>
      <point x="401.08" y="1194.6499999999999" type="line"/>
      <point x="395.37" y="902.61" type="line"/>
    </contour>
  </outline>
</glyph>
<glyph name="five" format="2">
  <advance width="612.42"/>
  <unicode hex="0035"/>
  <outline>
    <contour>
      <point x="283.43" y="-19.47" type="curve" smooth="yes"/>
      <point x="462.29999999999995" y="-19.47"/>
      <point x="535.61" y="89.9"/>
      <point x="535.61" y="290.58" type="curve" smooth="yes"/>
      <point x="535.61" y="514.76" type="line" smooth="yes"/>
      <point x="535.61" y="692.6"/>
      <point x="480.19999999999993" y="798.4899999999999"/>
      <point x="354.84" y="798.4899999999999" type="curve" smooth="yes"/>
      <point x="262.31" y="798.4899999999999"/>
      <point x="214.96000000000004" y="746.79"/>
      <point x="194.31" y="668.32" type="curve"/>
      <point x="190.95" y="665.97" type="line"/>
      <point x="194.95" y="844.6700000000001" type="line"/>
      <point x="194.95" y="1177.22" type="line"/>
      <point x="517.07" y="1177.22" type="line"/>
      <point x="517.07" y="1278.0" type="line"/>
      <point x="86.40000000000002" y="1278.0" type="line"/>
      <point x="86.40000000000002" y="583.38" type="line"/>
      <point x="189.89000000000001" y="573.02" type="line"/>
      <point x="209.0" y="655.66"/>
      <point x="240.98999999999998" y="702.48"/>
      <point x="310.27" y="702.48" type="curve" smooth="yes"/>
      <point x="394.01" y="702.48"/>
      <point x="423.40999999999997" y="629.97"/>
      <point x="423.40999999999997" y="509.76" type="curve" smooth="yes"/>
      <point x="423.40999999999997" y="291.11" type="line" smooth="yes"/>
      <point x="423.40999999999997" y="153.3"/>
      <point x="378.06" y="83.37000000000002"/>
      <point x="268.59" y="83.37000000000002" type="curve" smooth="yes"/>
      <point x="194.87999999999997" y="83.37000000000002"/>
      <point x="134.51999999999998" y="113.37"/>
      <point x="81.4" y="152.25" type="curve"/>
      <point x="90.58" y="40.879999999999995" type="line"/>
      <point x="129.0" y="12.410000000000002"/>
      <point x="195.82999999999998" y="-19.47"/>
    </contour>
  </outline>
</glyph>
<glyph name="six" format="2">
  <advance width="656.9000000000001"/>
  <unicode hex="0036"/>
  <outline>
    <contour>
      <point x="336.39" y="-20.0" type="curve" smooth="yes"/>
      <point x="503.65999999999997" y="-20.0"/>
      <point x="583.56" y="82.19"/>
      <point x="583.56" y="282.45000000000005" type="curve" smooth="yes"/>
      <point x="583.56" y="507.99" type="line" smooth="yes"/>
      <point x="583.56" y="697.89"/>
      <point x="520.62" y="806.84"/>
      <point x="383.9" y="806.84" type="curve" smooth="yes"/>
      <point x="267.14" y="806.84"/>
      <point x="209.03000000000003" y="734.09"/>
      <point x="197.96" y="620.89" type="curve"/>
      <point x="170.77" y="620.89" type="line"/>
      <point x="195.42" y="537.94" type="line"/>
      <point x="208.95000000000002" y="647.1899999999999"/>
      <point x="257.47" y="711.36"/>
      <point x="342.85999999999996" y="711.36" type="curve" smooth="yes"/>
      <point x="435.54999999999995" y="711.36"/>
      <point x="473.48" y="635.79"/>
      <point x="473.48" y="500.87" type="curve" smooth="yes"/>
      <point x="473.48" y="278.92" type="line" smooth="yes"/>
      <point x="473.48" y="143.88"/>
      <point x="432.55000000000007" y="76.53999999999999"/>
      <point x="336.91999999999996" y="76.53999999999999" type="curve" smooth="yes"/>
      <point x="240.76" y="76.53999999999999"/>
      <point x="198.83" y="143.88"/>
      <point x="198.83" y="278.92" type="curve"/>
      <point x="198.83" y="951.76" type="line" smooth="yes"/>
      <point x="198.83" y="1109.23"/>
      <point x="249.95000000000002" y="1190.75"/>
      <point x="380.48" y="1190.75" type="curve" smooth="yes"/>
      <point x="453.25" y="1190.75"/>
      <point x="507.43" y="1163.3400000000001"/>
      <point x="555.43" y="1127.11" type="curve"/>
      <point x="545.6600000000001" y="1233.24" type="line"/>
      <point x="506.95" y="1262.65"/>
      <point x="443.41" y="1294.0600000000002"/>
      <point x="358.22" y="1294.0600000000002" type="curve" smooth="yes"/>
      <point x="173.42000000000002" y="1294.0600000000002"/>
      <point x="88.75" y="1174.1"/>
      <point x="88.75" y="958.12" type="curve" smooth="yes"/>
      <point x="88.75" y="285.1" type="line" smooth="yes"/>
      <point x="88.75" y="82.18999999999998"/>
      <point x="169.65" y="-20.0"/>
    </contour>
  </outline>
</glyph>
<glyph name="seven" format="2">
  <advance width="529.6"/>
  <unicode hex="0037"/>
  <outline>
    <contour>
      <point x="112.92999999999999" y="0.0" type="line"/>
      <point x="228.72000000000003" y="0.0" type="line"/>
      <point x="493.07" y="1174.98" type="line"/>
      <point x="493.07" y="1278.0" type="line"/>
      <point x="35.35" y="1278.0" type="line"/>
      <point x="35.35" y="1176.69" type="line"/>
      <point x="379.81" y="1176.69" type="line"/>
    </contour>
  </outline>
</glyph>
<glyph name="eight" format="2">
  <advance width="658.43"/>
  <unicode hex="0038"/>
  <outline>
    <contour>
      <point x="328.98" y="-21.060000000000002" type="curve" smooth="yes"/>
      <point x="507.37" y="-21.060000000000002"/>
      <point x="588.0899999999999" y="84.54"/>
      <point x="588.0899999999999" y="279.14" type="curve" smooth="yes"/>
      <point x="588.0899999999999" y="396.92999999999995" type="line" smooth="yes"/>
      <point x="588.0899999999999" y="546.1600000000001"/>
      <point x="539.03" y="641.3399999999999"/>
      <point x="410.27000000000004" y="665.47" type="curve"/>
      <point x="410.27000000000004" y="667.24" type="line"/>
      <point x="531.5" y="689.84"/>
      <point x="577.62" y="778.43"/>
      <point x="577.62" y="917.36" type="curve" smooth="yes"/>
      <point x="577.62" y="1008.63" type="line" smooth="yes"/>
      <point x="577.62" y="1194.64"/>
      <point x="500.96" y="1295.65"/>
      <point x="328.98" y="1295.65" type="curve" smooth="yes"/>
      <point x="157.53000000000003" y="1295.65"/>
      <point x="80.81" y="1194.64"/>
      <point x="80.81" y="1008.63" type="curve" smooth="yes"/>
      <point x="80.81" y="917.36" type="line" smooth="yes"/>
      <point x="80.81" y="777.37"/>
      <point x="126.92999999999999" y="689.31"/>
      <point x="248.16" y="667.24" type="curve"/>
      <point x="248.16" y="665.47" type="line"/>
      <point x="119.4" y="641.34"/>
      <point x="70.34" y="546.16"/>
      <point x="70.34" y="396.92999999999995" type="curve" smooth="yes"/>
      <point x="70.34" y="279.14" type="line" smooth="yes"/>
      <point x="70.34" y="84.53999999999999"/>
      <point x="151.06" y="-21.060000000000002"/>
    </contour>
    <contour>
      <point x="328.98" y="75.48" type="curve" smooth="yes"/>
      <point x="226.40999999999997" y="75.48"/>
      <point x="181.01" y="145.76000000000002"/>
      <point x="181.01" y="279.32" type="curve" smooth="yes"/>
      <point x="181.01" y="403.58000000000004" type="line" smooth="yes"/>
      <point x="181.01" y="532.67"/>
      <point x="227.46999999999997" y="596.71"/>
      <point x="328.98" y="611.02" type="curve"/>
      <point x="429.90000000000003" y="597.24"/>
      <point x="476.95" y="533.1999999999999"/>
      <point x="476.95" y="403.58000000000004" type="curve" smooth="yes"/>
      <point x="476.95" y="279.32" type="line" smooth="yes"/>
      <point x="476.95" y="145.76000000000002"/>
      <point x="432.02" y="75.48"/>
    </contour>
    <contour>
      <point x="328.97999999999996" y="708.4399999999999" type="curve"/>
      <point x="234.47" y="723.2800000000001"/>
      <point x="191.95" y="784.38"/>
      <point x="191.95" y="909.12" type="curve" smooth="yes"/>
      <point x="191.95" y="1005.21" type="line" smooth="yes"/>
      <point x="191.95" y="1133.3600000000001"/>
      <point x="233.41" y="1200.1699999999998"/>
      <point x="328.98" y="1200.1699999999998" type="curve" smooth="yes"/>
      <point x="425.54999999999995" y="1200.1699999999998"/>
      <point x="466.48" y="1133.3600000000001"/>
      <point x="466.48" y="1005.21" type="curve" smooth="yes"/>
      <point x="466.48" y="909.12" type="line" smooth="yes"/>
      <point x="466.48" y="784.91"/>
      <point x="423.43000000000006" y="721.69"/>
    </contour>
  </outline>
</glyph>
<glyph name="nine" format="2">
  <advance width="656.9"/>
  <unicode hex="0039"/>
  <outline>
    <contour>
      <point x="320.97999999999996" y="1294.06" type="curve" smooth="yes"/>
      <point x="153.71" y="1294.06"/>
      <point x="73.33999999999999" y="1191.87"/>
      <point x="73.33999999999999" y="991.14" type="curve" smooth="yes"/>
      <point x="73.33999999999999" y="763.95" type="line" smooth="yes"/>
      <point x="73.33999999999999" y="576.11"/>
      <point x="135.81" y="467.22"/>
      <point x="273.94" y="467.22" type="curve" smooth="yes"/>
      <point x="393.52" y="467.22"/>
      <point x="449.28000000000003" y="542.79"/>
      <point x="460.81999999999994" y="659.28" type="curve"/>
      <point x="488.01000000000005" y="659.28" type="line"/>
      <point x="463.35999999999996" y="741.1700000000001" type="line"/>
      <point x="448.89" y="628.22"/>
      <point x="402.24999999999994" y="562.7"/>
      <point x="314.98" y="562.7" type="curve" smooth="yes"/>
      <point x="221.35" y="562.7"/>
      <point x="183.42000000000002" y="637.74"/>
      <point x="183.42000000000002" y="773.5400000000001" type="curve" smooth="yes"/>
      <point x="183.42000000000002" y="995.14" type="line" smooth="yes"/>
      <point x="183.42000000000002" y="1130.18"/>
      <point x="224.35" y="1197.52"/>
      <point x="320.45" y="1197.52" type="curve" smooth="yes"/>
      <point x="416.13999999999993" y="1197.52"/>
      <point x="458.07000000000005" y="1130.1799999999998"/>
      <point x="458.07000000000005" y="995.14" type="curve"/>
      <point x="458.07000000000005" y="324.65" type="line" smooth="yes"/>
      <point x="458.07000000000005" y="162.48"/>
      <point x="406.07" y="82.84"/>
      <point x="278.25" y="82.84" type="curve" smooth="yes"/>
      <point x="208.59" y="82.84"/>
      <point x="150.0" y="107.43"/>
      <point x="101.47000000000001" y="141.31" type="curve"/>
      <point x="111.24" y="31.47" type="line"/>
      <point x="149.01000000000002" y="5.470000000000001"/>
      <point x="213.49" y="-20.0"/>
      <point x="296.8" y="-20.0" type="curve" smooth="yes"/>
      <point x="483.01" y="-20.0"/>
      <point x="568.15" y="98.07999999999998"/>
      <point x="568.15" y="318.28999999999996" type="curve" smooth="yes"/>
      <point x="568.15" y="988.49" type="line" smooth="yes"/>
      <point x="568.15" y="1191.87"/>
      <point x="487.25" y="1294.06"/>
    </contour>
  </outline>
</glyph>
<glyph name="less" format="2">
  <advance width="675.6700000000001"/>
  <unicode hex="003C"/>
  <outline>
    <contour>
      <point x="137.64000000000001" y="643.53" type="line"/>
      <point x="581.98" y="779.4399999999999" type="line"/>
      <point x="581.98" y="874.86" type="line"/>
      <point x="58.88" y="710.99" type="line"/>
      <point x="58.88" y="562.5400000000001" type="line"/>
      <point x="581.98" y="398.67" type="line"/>
      <point x="581.98" y="494.09" type="line"/>
      <point x="137.64000000000001" y="630.0" type="line"/>
    </contour>
  </outline>
</glyph>
<glyph name="equal" format="2">
  <advance width="675.7300000000001"/>
  <unicode hex="003D"/>
  <outline>
    <contour>
      <point x="76.05" y="431.38" type="line"/>
      <point x="599.68" y="431.38" type="line"/>
      <point x="599.68" y="524.8000000000001" type="line"/>
      <point x="76.05" y="524.8000000000001" type="line"/>
    </contour>
    <contour>
      <point x="76.05" y="748.2" type="line"/>
      <point x="599.68" y="748.2" type="line"/>
      <point x="599.68" y="841.62" type="line"/>
      <point x="76.05" y="841.62" type="line"/>
    </contour>
  </outline>
</glyph>
<glyph name="greater" format="2">
  <advance width="675.6700000000001"/>
  <unicode hex="003E"/>
  <outline>
    <contour>
      <point x="538.03" y="643.53" type="line"/>
      <point x="538.03" y="630.0" type="line"/>
      <point x="93.69000000000001" y="494.09" type="line"/>
      <point x="93.69000000000001" y="398.67" type="line"/>
      <point x="616.79" y="562.5400000000001" type="line"/>
      <point x="616.79" y="710.99" type="line"/>
      <point x="93.69000000000001" y="874.86" type="line"/>
      <point x="93.69000000000001" y="779.4399999999999" type="line"/>
    </contour>
  </outline>
</glyph>
<glyph name="question" format="2">
  <advance width="486.28"/>
  <unicode hex="003F"/>
  <outline>
    <contour>
      <point x="128.16" y="349.26000000000005" type="line"/>
      <point x="226.76000000000002" y="349.26000000000005" type="line"/>
      <point x="226.76000000000002" y="603.3000000000001" type="line"/>
      <point x="145.52" y="555.99" type="line"/>
      <point x="197.9" y="567.99" type="line"/>
      <point x="366.15999999999997" y="620.92"/>
      <point x="412.65000000000003" y="705.1"/>
      <point x="412.65000000000003" y="873.88" type="curve" smooth="yes"/>
      <point x="412.65000000000003" y="1022.74" type="line" smooth="yes"/>
      <point x="412.65000000000003" y="1199.4"/>
      <point x="352.46" y="1295.1200000000001"/>
      <point x="206.79" y="1295.1200000000001" type="curve" smooth="yes"/>
      <point x="140.25000000000003" y="1295.1200000000001"/>
      <point x="81.88999999999999" y="1271.12"/>
      <point x="45.06" y="1246.59" type="curve"/>
      <point x="32.699999999999996" y="1148.23" type="line"/>
      <point x="75.7" y="1176.1100000000001"/>
      <point x="119.16999999999999" y="1195.99"/>
      <point x="174.99" y="1195.99" type="curve" smooth="yes"/>
      <point x="268.69" y="1195.99"/>
      <point x="303.57" y="1134.88"/>
      <point x="303.57" y="1006.9599999999999" type="curve" smooth="yes"/>
      <point x="303.57" y="870.3499999999999" type="line" smooth="yes"/>
      <point x="303.57" y="746.07"/>
      <point x="276.04" y="678.49"/>
      <point x="157.16" y="637.5" type="curve" smooth="yes"/>
      <point x="128.16" y="627.62" type="line"/>
    </contour>
    <contour>
      <point x="176.43" y="-14.3" type="curve" smooth="yes"/>
      <point x="220.16" y="-14.3"/>
      <point x="240.88" y="16.95"/>
      <point x="240.88" y="77.56" type="curve" smooth="yes"/>
      <point x="240.88" y="94.09" type="line" smooth="yes"/>
      <point x="240.88" y="153.7"/>
      <point x="220.16" y="185.42000000000002"/>
      <point x="176.43" y="185.42000000000002" type="curve" smooth="yes"/>
      <point x="131.10999999999999" y="185.42000000000002"/>
      <point x="112.45" y="153.7"/>
      <point x="112.45" y="94.09" type="curve" smooth="yes"/>
      <point x="112.45" y="77.56" type="line" smooth="yes"/>
      <point x="112.45" y="16.95"/>
      <point x="131.10999999999999" y="-14.3"/>
    </contour>
  </outline>
</glyph>
<glyph name="at" format="2">
  <advance width="1206.45"/>
  <unicode hex="0040"/>
  <outline>
    <contour>
      <point x="523.13" y="70.82000000000001" type="curve" smooth="yes"/>
      <point x="617.78" y="70.82000000000001"/>
      <point x="665.6" y="127.46"/>
      <point x="691.25" y="225.15" type="curve"/>
      <point x="711.2600000000001" y="225.15" type="line"/>
      <point x="697.7900000000001" y="303.31" type="line"/>
      <point x="673.15" y="210.93"/>
      <point x="635.5699999999999" y="160.11999999999998"/>
      <point x="570.47" y="160.11999999999998" type="curve" smooth="yes"/>
      <point x="507.19" y="160.11999999999998"/>
      <point x="480.54999999999995" y="204.05"/>
      <point x="480.54999999999995" y="286.5" type="curve" smooth="yes"/>
      <point x="480.54999999999995" y="320.96999999999997"/>
      <point x="482.61" y="343.16"/>
      <point x="515.3100000000001" y="673.21" type="curve" smooth="yes"/>
      <point x="526.72" y="789.13"/>
      <point x="566.71" y="840.18"/>
      <point x="633.11" y="840.18" type="curve" smooth="yes"/>
      <point x="698.15" y="840.18"/>
      <point x="733.67" y="786.9599999999999"/>
      <point x="733.6700000000001" y="700.57" type="curve" smooth="yes"/>
      <point x="733.6700000000001" y="691.51"/>
      <point x="733.6700000000001" y="682.51"/>
      <point x="732.6700000000001" y="672.9799999999999" type="curve"/>
      <point x="765.7399999999999" y="763.63" type="line"/>
      <point x="742.49" y="763.63" type="line"/>
      <point x="740.9499999999999" y="861.67"/>
      <point x="697.25" y="927.89"/>
      <point x="603.96" y="927.89" type="curve" smooth="yes"/>
      <point x="490.46999999999997" y="927.89"/>
      <point x="427.40999999999997" y="848.87"/>
      <point x="408.75999999999993" y="663.67" type="curve" smooth="yes"/>
      <point x="376.06" y="332.91"/>
      <point x="374.0" y="310.84"/>
      <point x="374.0" y="268.66" type="curve" smooth="yes"/>
      <point x="374.0" y="139.12"/>
      <point x="421.05999999999995" y="70.82000000000001"/>
    </contour>
    <contour>
      <point x="674.3199999999999" y="80.35000000000001" type="line"/>
      <point x="771.9200000000001" y="81.28999999999999" type="line"/>
      <point x="856.04" y="916.3599999999999" type="line"/>
      <point x="755.3199999999999" y="916.3599999999999" type="line"/>
      <point x="754.79" y="907.36" type="line"/>
      <point x="741.79" y="754.06" type="line"/>
      <point x="738.26" y="732.23" type="line"/>
      <point x="692.7900000000001" y="266.31" type="line"/>
      <point x="695.91" y="247.54" type="line"/>
    </contour>
    <contour>
      <point x="745.26" y="158.10999999999999" type="curve"/>
      <point x="674.3199999999999" y="80.35000000000001" type="line"/>
      <point x="714.6800000000001" y="72.29"/>
      <point x="753.5300000000001" y="68.23"/>
      <point x="804.3600000000001" y="69.29" type="curve" smooth="yes"/>
      <point x="985.69" y="72.47"/>
      <point x="1071.0" y="166.35"/>
      <point x="1092.24" y="374.56" type="curve" smooth="yes"/>
      <point x="1107.59" y="528.41"/>
      <point x="1124.94" y="723.5500000000001"/>
      <point x="1132.41" y="814.6700000000001" type="curve" smooth="yes"/>
      <point x="1160.35" y="1157.1100000000001"/>
      <point x="970.7900000000001" y="1336.8200000000002"/>
      <point x="661.28" y="1336.8200000000002" type="curve" smooth="yes"/>
      <point x="332.94" y="1336.8200000000002"/>
      <point x="170.98000000000002" y="1154.3300000000002"/>
      <point x="134.68" y="787.89" type="curve" smooth="yes"/>
      <point x="124.21" y="680.3199999999999"/>
      <point x="92.45" y="306.76"/>
      <point x="84.04" y="195.84000000000003" type="curve" smooth="yes"/>
      <point x="57.85999999999999" y="-147.21"/>
      <point x="247.70999999999998" y="-324.11"/>
      <point x="582.8800000000001" y="-324.11" type="curve" smooth="yes"/>
      <point x="757.54" y="-324.11"/>
      <point x="889.78" y="-275.29"/>
      <point x="978.3600000000001" y="-215.42000000000002" type="curve"/>
      <point x="992.3100000000001" y="-118.95" type="line"/>
      <point x="911.2" y="-177.29"/>
      <point x="764.7099999999999" y="-238.64"/>
      <point x="590.8299999999999" y="-238.64" type="curve" smooth="yes"/>
      <point x="300.09999999999997" y="-238.64"/>
      <point x="158.16000000000003" y="-82.75"/>
      <point x="177.87" y="200.55" type="curve" smooth="yes"/>
      <point x="184.87" y="305.35"/>
      <point x="218.51" y="669.72"/>
      <point x="230.04" y="793.25" type="curve" smooth="yes"/>
      <point x="257.91999999999996" y="1081.3899999999999"/>
      <point x="378.97" y="1252.41"/>
      <point x="656.04" y="1252.41" type="curve" smooth="yes"/>
      <point x="929.0" y="1252.41"/>
      <point x="1065.3999999999999" y="1090.05"/>
      <point x="1040.11" y="816.73" type="curve" smooth="yes"/>
      <point x="1032.1100000000001" y="732.2"/>
      <point x="1013.17" y="520.75"/>
      <point x="998.94" y="382.51" type="curve" smooth="yes"/>
      <point x="981.47" y="214.33999999999997"/>
      <point x="919.0699999999999" y="153.88"/>
      <point x="815.6699999999998" y="153.88" type="curve" smooth="yes"/>
      <point x="786.7299999999999" y="153.88"/>
      <point x="770.9100000000001" y="154.35"/>
    </contour>
  </outline>
</glyph>
<glyph name="A" format="2">
  <advance width="698.36"/>
  <unicode hex="0041"/>
  <anchor x="349.68" y="0.0" name="bottom"/>
  <anchor x="698.6000000000001" y="0.0" name="ogonek"/>
  <anchor x="349.68" y="1278.0" name="top"/>
  <outline>
    <contour>
      <point x="47.4" y="0.0" type="line"/>
      <point x="158.95" y="0.0" type="line"/>
      <point x="336.67999999999995" y="1194.1200000000001" type="line"/>
      <point x="358.21000000000004" y="1194.1200000000001" type="line"/>
      <point x="539.41" y="0.0" type="line"/>
      <point x="650.96" y="0.0" type="line"/>
      <point x="441.80000000000007" y="1278.0" type="line"/>
      <point x="253.08999999999997" y="1278.0" type="line"/>
    </contour>
    <contour>
      <point x="184.32" y="394.22999999999996" type="line"/>
      <point x="512.04" y="394.22999999999996" type="line"/>
      <point x="512.04" y="489.77" type="line"/>
      <point x="184.32" y="489.77" type="line"/>
    </contour>
  </outline>
</glyph>
<glyph name="B" format="2">
  <advance width="694.49"/>
  <unicode hex="0042"/>
  <anchor x="350.15999999999997" y="0.0" name="bottom"/>
  <anchor x="350.15999999999997" y="1278.0" name="top"/>
  <outline>
    <contour>
      <point x="186.17000000000002" y="0.0" type="line"/>
      <point x="366.40000000000003" y="0.0" type="line" smooth="yes"/>
      <point x="554.37" y="0.0"/>
      <point x="627.68" y="109.77"/>
      <point x="627.68" y="301.27" type="curve" smooth="yes"/>
      <point x="627.68" y="404.23" type="line" smooth="yes"/>
      <point x="627.68" y="558.4100000000001"/>
      <point x="583.68" y="651.4699999999999"/>
      <point x="441.67999999999995" y="673.59" type="curve"/>
      <point x="451.08000000000004" y="675.07" type="line"/>
      <point x="573.97" y="698.36"/>
      <point x="617.2100000000002" y="782.4200000000001"/>
      <point x="617.2100000000002" y="920.83" type="curve" smooth="yes"/>
      <point x="617.2100000000002" y="989.98" type="line" smooth="yes"/>
      <point x="617.2100000000002" y="1170.8799999999999"/>
      <point x="542.31" y="1278.0"/>
      <point x="353.15999999999997" y="1278.0" type="curve" smooth="yes"/>
      <point x="182.46" y="1278.0" type="line"/>
      <point x="182.46" y="1180.46" type="line"/>
      <point x="346.39000000000004" y="1180.46" type="line" smooth="yes"/>
      <point x="465.84000000000003" y="1180.46"/>
      <point x="505.07" y="1105.3"/>
      <point x="505.07" y="975.7900000000001" type="curve" smooth="yes"/>
      <point x="505.07" y="896.94" type="line" smooth="yes"/>
      <point x="505.07" y="779.6600000000001"/>
      <point x="467.31000000000006" y="703.5"/>
      <point x="339.86000000000007" y="703.5" type="curve" smooth="yes"/>
      <point x="191.28" y="703.5" type="line"/>
      <point x="191.28" y="610.61" type="line"/>
      <point x="336.98" y="610.61" type="line" smooth="yes"/>
      <point x="476.31000000000006" y="610.61"/>
      <point x="515.54" y="534.9200000000001"/>
      <point x="515.54" y="405.94" type="curve" smooth="yes"/>
      <point x="515.54" y="302.74" type="line" smooth="yes"/>
      <point x="515.54" y="173.76000000000002"/>
      <point x="476.30999999999995" y="98.07000000000001"/>
      <point x="354.86" y="98.07000000000001" type="curve" smooth="yes"/>
      <point x="186.17000000000002" y="98.07000000000001" type="line"/>
    </contour>
    <contour>
      <point x="108.81" y="0.0" type="line"/>
      <point x="220.95000000000002" y="0.0" type="line"/>
      <point x="220.95000000000002" y="1278.0" type="line"/>
      <point x="108.81" y="1278.0" type="line"/>
    </contour>
  </outline>
</glyph>
<glyph name="C" format="2">
  <advance width="565.22"/>
  <unicode hex="0043"/>
  <anchor x="316.84999999999997" y="0.0" name="bottom"/>
  <anchor x="316.84999999999997" y="1278.0" name="top"/>
  <outline>
    <contour>
      <point x="339.61999999999995" y="-17.12" type="curve" smooth="yes"/>
      <point x="414.91999999999996" y="-17.12"/>
      <point x="475.69" y="10.23"/>
      <point x="510.81" y="37.99000000000001" type="curve"/>
      <point x="519.9899999999999" y="150.95000000000002" type="line"/>
      <point x="477.23" y="115.25"/>
      <point x="430.40999999999997" y="89.9"/>
      <point x="366.53" y="89.9" type="curve" smooth="yes"/>
      <point x="246.89" y="89.9"/>
      <point x="202.07000000000002" y="171.48000000000002"/>
      <point x="202.07000000000002" y="314.76" type="curve" smooth="yes"/>
      <point x="202.07000000000002" y="963.77" type="line" smooth="yes"/>
      <point x="202.07000000000002" y="1109.0500000000002"/>
      <point x="244.36" y="1190.75"/>
      <point x="358.99999999999994" y="1190.75" type="curve" smooth="yes"/>
      <point x="422.82" y="1190.75"/>
      <point x="470.17" y="1164.8700000000001"/>
      <point x="512.9899999999999" y="1129.1699999999998" type="curve"/>
      <point x="503.81" y="1236.95" type="line"/>
      <point x="466.75" y="1268.71"/>
      <point x="409.51000000000005" y="1295.1200000000001"/>
      <point x="335.15000000000003" y="1295.1200000000001" type="curve" smooth="yes"/>
      <point x="163.23999999999998" y="1295.1200000000001"/>
      <point x="88.33999999999999" y="1180.4"/>
      <point x="88.33999999999999" y="970.66" type="curve" smooth="yes"/>
      <point x="88.33999999999999" y="309.46000000000004" type="line" smooth="yes"/>
      <point x="88.33999999999999" y="99.60000000000001"/>
      <point x="160.58999999999997" y="-17.12"/>
    </contour>
  </outline>
</glyph>
<glyph name="D" format="2">
  <advance width="730.72"/>
  <unicode hex="0044"/>
  <anchor x="354.33" y="0.0" name="bottom"/>
  <anchor x="366.92" y="639.0" name="center"/>
  <anchor x="354.33" y="1278.0" name="top"/>
  <outline>
    <contour>
      <point x="174.4" y="0.0" type="line"/>
      <point x="346.75" y="0.0" type="line" smooth="yes"/>
      <point x="545.96" y="0.0"/>
      <point x="642.38" y="115.01"/>
      <point x="642.38" y="324.56" type="curve" smooth="yes"/>
      <point x="642.38" y="952.9699999999999" type="line" smooth="yes"/>
      <point x="642.38" y="1162.99"/>
      <point x="544.9" y="1278.0"/>
      <point x="346.75" y="1278.0" type="curve" smooth="yes"/>
      <point x="179.28" y="1278.0" type="line"/>
      <point x="179.28" y="1180.46" type="line"/>
      <point x="341.04" y="1180.46" type="line" smooth="yes"/>
      <point x="467.84000000000003" y="1180.46"/>
      <point x="528.65" y="1103.77"/>
      <point x="528.65" y="951.5" type="curve" smooth="yes"/>
      <point x="528.65" y="325.56" type="line" smooth="yes"/>
      <point x="528.65" y="174.76"/>
      <point x="467.84000000000003" y="98.07000000000001"/>
      <point x="341.04" y="98.07000000000001" type="curve" smooth="yes"/>
      <point x="174.4" y="98.07000000000001" type="line"/>
    </contour>
    <contour>
      <point x="108.81" y="0.0" type="line"/>
      <point x="221.48000000000002" y="0.0" type="line"/>
      <point x="221.48000000000002" y="1278.0" type="line"/>
      <point x="108.81" y="1278.0" type="line"/>
    </contour>
  </outline>
</glyph>
<glyph name="E" format="2">
  <advance width="592.35"/>
  <unicode hex="0045"/>
  <anchor x="322.08" y="0.0" name="bottom"/>
  <anchor x="572.87" y="0.0" name="ogonek"/>
  <anchor x="322.08" y="1278.0" name="top"/>
  <anchor x="20.0" y="1278.0" name="topleft"/>
  <outline>
    <contour>
      <point x="108.81" y="0.0" type="line"/>
      <point x="219.36" y="0.0" type="line"/>
      <point x="219.36" y="1278.0" type="line"/>
      <point x="108.81" y="1278.0" type="line"/>
    </contour>
    <contour>
      <point x="167.4" y="0.0" type="line"/>
      <point x="530.06" y="0.0" type="line"/>
      <point x="530.06" y="100.19000000000001" type="line"/>
      <point x="167.4" y="100.19000000000001" type="line"/>
    </contour>
    <contour>
      <point x="177.69" y="605.49" type="line"/>
      <point x="523.94" y="605.49" type="line"/>
      <point x="523.94" y="704.6800000000001" type="line"/>
      <point x="177.69" y="704.6800000000001" type="line"/>
    </contour>
    <contour>
      <point x="164.46" y="1177.81" type="line"/>
      <point x="530.0600000000001" y="1177.81" type="line"/>
      <point x="530.0600000000001" y="1278.0" type="line"/>
      <point x="164.46" y="1278.0" type="line"/>
    </contour>
  </outline>
</glyph>
<glyph name="F" format="2">
  <advance width="565.5799999999999"/>
  <unicode hex="0046"/>
  <anchor x="282.79" y="0.0" name="bottom"/>
  <anchor x="282.79" y="1278.0" name="top"/>
  <outline>
    <contour>
      <point x="108.81" y="0.0" type="line"/>
      <point x="222.01000000000002" y="0.0" type="line"/>
      <point x="222.01000000000002" y="1278.0" type="line"/>
      <point x="108.81" y="1278.0" type="line"/>
    </contour>
    <contour>
      <point x="177.69" y="571.89" type="line"/>
      <point x="508.64" y="571.89" type="line"/>
      <point x="508.64" y="673.14" type="line"/>
      <point x="177.69" y="673.14" type="line"/>
    </contour>
    <contour>
      <point x="164.46" y="1176.75" type="line"/>
      <point x="517.6999999999999" y="1176.75" type="line"/>
      <point x="517.6999999999999" y="1278.0" type="line"/>
      <point x="164.46" y="1278.0" type="line"/>
    </contour>
  </outline>
</glyph>
<glyph name="G" format="2">
  <advance width="692.3000000000001"/>
  <unicode hex="0047"/>
  <anchor x="347.21" y="0.0" name="bottom"/>
  <anchor x="347.21" y="1278.0" name="top"/>
  <outline>
    <contour>
      <point x="312.71000000000004" y="-17.12" type="curve" smooth="yes"/>
      <point x="435.3" y="-17.12"/>
      <point x="485.87999999999994" y="60.93"/>
      <point x="504.35" y="160.21" type="curve"/>
      <point x="609.26" y="158.33" type="line"/>
      <point x="609.26" y="717.0200000000001" type="line"/>
      <point x="369.92" y="717.0200000000001" type="line"/>
      <point x="369.92" y="617.77" type="line"/>
      <point x="527.25" y="617.77" type="line"/>
      <point x="502.23999999999995" y="669.87" type="line"/>
      <point x="502.23999999999995" y="242.91000000000003" type="line"/>
      <point x="483.94999999999993" y="156.64"/>
      <point x="441.42999999999995" y="84.60000000000001"/>
      <point x="349.04" y="84.60000000000001" type="curve" smooth="yes"/>
      <point x="245.12" y="84.60000000000001"/>
      <point x="202.07000000000002" y="156.94000000000003"/>
      <point x="202.07000000000002" y="290.92" type="curve" smooth="yes"/>
      <point x="202.07000000000002" y="936.9499999999999" type="line" smooth="yes"/>
      <point x="202.07000000000002" y="1102.76"/>
      <point x="257.6" y="1190.75"/>
      <point x="395.19" y="1190.75" type="curve" smooth="yes"/>
      <point x="479.78000000000003" y="1190.75"/>
      <point x="542.08" y="1158.75"/>
      <point x="594.0799999999999" y="1117.93" type="curve"/>
      <point x="583.84" y="1228.3" type="line"/>
      <point x="539.6600000000001" y="1263.65"/>
      <point x="469.53" y="1295.1200000000001"/>
      <point x="375.58" y="1295.1200000000001" type="curve" smooth="yes"/>
      <point x="179.65999999999997" y="1295.1200000000001"/>
      <point x="88.33999999999999" y="1172.9299999999998"/>
      <point x="88.33999999999999" y="939.0699999999999" type="curve" smooth="yes"/>
      <point x="88.33999999999999" y="293.16" type="line" smooth="yes"/>
      <point x="88.33999999999999" y="94.84"/>
      <point x="154.34000000000003" y="-17.12"/>
    </contour>
    <contour>
      <point x="508.35999999999996" y="203.24000000000004" type="line"/>
      <point x="502.29999999999995" y="0.0" type="line"/>
      <point x="609.26" y="0.0" type="line"/>
      <point x="609.26" y="203.24000000000004" type="line"/>
    </contour>
  </outline>
</glyph>
<glyph name="H" format="2">
  <advance width="760.6600000000001"/>
  <unicode hex="0048"/>
  <anchor x="380.33000000000004" y="0.0" name="bottom"/>
  <anchor x="380.33000000000004" y="639.0" name="center"/>
  <anchor x="380.33000000000004" y="1278.0" name="top"/>
  <anchor x="20.0" y="1278.0" name="topleft"/>
  <outline>
    <contour>
      <point x="222.54" y="0.0" type="line"/>
      <point x="222.54" y="1278.0" type="line"/>
      <point x="108.81" y="1278.0" type="line"/>
      <point x="108.81" y="0.0" type="line"/>
    </contour>
    <contour>
      <point x="651.85" y="0.0" type="line"/>
      <point x="651.85" y="1278.0" type="line"/>
      <point x="538.12" y="1278.0" type="line"/>
      <point x="538.12" y="0.0" type="line"/>
    </contour>
    <contour>
      <point x="180.63" y="709.09" type="line"/>
      <point x="180.63" y="610.96" type="line"/>
      <point x="581.26" y="610.96" type="line"/>
      <point x="581.26" y="709.09" type="line"/>
    </contour>
  </outline>
</glyph>
<glyph name="I" format="2">
  <advance width="335.23"/>
  <unicode hex="0049"/>
  <anchor x="167.85000000000002" y="0.0" name="bottom"/>
  <anchor x="271.0" y="0.0" name="ogonek"/>
  <anchor x="167.85000000000002" y="1278.0" name="top"/>
  <anchor x="20.0" y="1278.0" name="topleft"/>
  <outline>
    <contour>
      <point x="224.48" y="0.0" type="line"/>
      <point x="224.48" y="1278.0" type="line"/>
      <point x="110.75" y="1278.0" type="line"/>
      <point x="110.75" y="0.0" type="line"/>
    </contour>
  </outline>
</glyph>
<glyph name="J" format="2">
  <advance width="476.39"/>
  <unicode hex="004A"/>
  <anchor x="238.96" y="0.0" name="bottom"/>
  <anchor x="316.01000000000005" y="1278.0" name="top"/>
  <outline>
    <contour>
      <point x="165.42000000000002" y="-17.0" type="curve" smooth="yes"/>
      <point x="318.04" y="-17.0"/>
      <point x="373.10999999999996" y="70.96000000000001"/>
      <point x="373.10999999999996" y="225.29" type="curve" smooth="yes"/>
      <point x="373.10999999999996" y="1278.0" type="line"/>
      <point x="259.9100000000001" y="1278.0" type="line"/>
      <point x="259.9100000000001" y="226.23000000000002" type="line" smooth="yes"/>
      <point x="259.9100000000001" y="137.01000000000002"/>
      <point x="233.09000000000003" y="84.72000000000001"/>
      <point x="144.63000000000002" y="84.72000000000001" type="curve" smooth="yes"/>
      <point x="104.87" y="84.72000000000001"/>
      <point x="73.04999999999998" y="93.66000000000001"/>
      <point x="38.17" y="109.07" type="curve"/>
      <point x="46.879999999999995" y="7.000000000000001" type="line"/>
      <point x="78.53000000000002" y="-7.529999999999999"/>
      <point x="121.71000000000001" y="-17.0"/>
    </contour>
  </outline>
</glyph>
<glyph name="K" format="2">
  <advance width="694.1400000000001"/>
  <unicode hex="004B"/>
  <anchor x="367.63" y="0.0" name="bottom"/>
  <anchor x="367.63" y="1278.0" name="top"/>
  <outline>
    <contour>
      <point x="548.01" y="0.0" type="line"/>
      <point x="665.8000000000001" y="0.0" type="line"/>
      <point x="387.35" y="681.31" type="line"/>
      <point x="389.35" y="647.8199999999999" type="line"/>
      <point x="657.21" y="1278.0" type="line"/>
      <point x="540.48" y="1278.0" type="line"/>
      <point x="298.52" y="702.8" type="line"/>
      <point x="206.88000000000002" y="702.8" type="line"/>
      <point x="206.88000000000002" y="604.7299999999999" type="line"/>
      <point x="299.46" y="604.7299999999999" type="line"/>
    </contour>
    <contour>
      <point x="108.81" y="0.0" type="line"/>
      <point x="219.89" y="0.0" type="line"/>
      <point x="219.89" y="1278.0" type="line"/>
      <point x="108.81" y="1278.0" type="line"/>
    </contour>
  </outline>
</glyph>
<glyph name="L" format="2">
  <advance width="561.34"/>
  <unicode hex="004C"/>
  <anchor x="313.13" y="0.0" name="bottom"/>
  <anchor x="250.23000000000002" y="659.5799999999999" name="center"/>
  <anchor x="165.91" y="1278.0" name="top"/>
  <anchor x="400.32000000000005" y="1278.0" name="topright"/>
  <outline>
    <contour>
      <point x="222.01" y="0.0" type="line"/>
      <point x="222.01" y="1278.0" type="line"/>
      <point x="108.81" y="1278.0" type="line"/>
      <point x="108.81" y="0.0" type="line"/>
    </contour>
    <contour>
      <point x="167.4" y="101.25000000000001" type="line"/>
      <point x="167.4" y="0.0" type="line"/>
      <point x="529.75" y="0.0" type="line"/>
      <point x="529.75" y="101.25000000000001" type="line"/>
    </contour>
  </outline>
</glyph>
<glyph name="M" format="2">
  <advance width="946.35"/>
  <unicode hex="004D"/>
  <anchor x="473.94" y="0.0" name="bottom"/>
  <anchor x="473.94" y="1278.0" name="top"/>
  <outline>
    <contour>
      <point x="104.33999999999999" y="0.0" type="line"/>
      <point x="211.71000000000004" y="0.0" type="line"/>
      <point x="214.17999999999998" y="522.6899999999999" type="line"/>
      <point x="211.41" y="1145.89" type="line"/>
      <point x="222.7" y="1145.89" type="line"/>
      <point x="407.73" y="135.36" type="line"/>
      <point x="538.6199999999999" y="135.36" type="line"/>
      <point x="723.6500000000001" y="1145.89" type="line"/>
      <point x="734.94" y="1145.89" type="line"/>
      <point x="732.6999999999999" y="522.6899999999999" type="line"/>
      <point x="734.6400000000001" y="0.0" type="line"/>
      <point x="842.0099999999999" y="0.0" type="line"/>
      <point x="833.01" y="1278.0" type="line"/>
      <point x="654.96" y="1278.0" type="line"/>
      <point x="478.41" y="287.61" type="line"/>
      <point x="469.00000000000006" y="287.61" type="line"/>
      <point x="291.39000000000004" y="1278.0" type="line"/>
      <point x="113.34" y="1278.0" type="line"/>
    </contour>
  </outline>
</glyph>
<glyph name="N" format="2">
  <advance width="774.44"/>
  <unicode hex="004E"/>
  <anchor x="389.86999999999995" y="0.0" name="bottom"/>
  <anchor x="389.86999999999995" y="1278.0" name="top"/>
  <outline>
    <contour>
      <point x="281.98" y="1278.53" type="line"/>
      <point x="108.81" y="1278.53" type="line"/>
      <point x="108.81" y="0.0" type="line"/>
      <point x="216.70999999999998" y="0.0" type="line"/>
      <point x="216.70999999999998" y="548.13" type="line"/>
      <point x="206.87999999999997" y="1161.79" type="line"/>
      <point x="217.34999999999997" y="1161.79" type="line"/>
      <point x="491.99000000000007" y="0.0" type="line"/>
      <point x="665.63" y="0.0" type="line"/>
      <point x="665.63" y="1278.53" type="line"/>
      <point x="558.26" y="1278.53" type="line"/>
      <point x="558.26" y="730.4" type="line"/>
      <point x="567.5600000000001" y="120.98000000000002" type="line"/>
      <point x="557.0899999999999" y="120.98000000000002" type="line"/>
    </contour>
  </outline>
</glyph>
<glyph name="O" format="2">
  <advance width="730.2500000000001"/>
  <unicode hex="004F"/>
  <anchor x="364.86000000000007" y="0.0" name="bottom"/>
  <anchor x="364.86000000000007" y="639.0" name="center"/>
  <anchor x="531.88" y="7.35" name="ogonek"/>
  <anchor x="364.86000000000007" y="1278.0" name="top"/>
  <anchor x="20.0" y="1278.0" name="topleft"/>
  <anchor x="658.63" y="1278.0" name="topright"/>
  <outline>
    <contour>
      <point x="364.86" y="-17.12" type="curve" smooth="yes"/>
      <point x="549.6600000000001" y="-17.12"/>
      <point x="641.91" y="98.54"/>
      <point x="641.91" y="321.74" type="curve" smooth="yes"/>
      <point x="641.91" y="954.79" type="line" smooth="yes"/>
      <point x="641.91" y="1177.46"/>
      <point x="549.6600000000001" y="1295.1200000000001"/>
      <point x="364.86" y="1295.1200000000001" type="curve" smooth="yes"/>
      <point x="179.59000000000003" y="1295.1200000000001"/>
      <point x="88.33999999999999" y="1177.46"/>
      <point x="88.33999999999999" y="954.79" type="curve" smooth="yes"/>
      <point x="88.33999999999999" y="321.74" type="line" smooth="yes"/>
      <point x="88.33999999999999" y="98.54"/>
      <point x="179.59000000000003" y="-17.12"/>
    </contour>
    <contour>
      <point x="364.86" y="80.89" type="curve" smooth="yes"/>
      <point x="251.35" y="80.89"/>
      <point x="202.07000000000002" y="162.64"/>
      <point x="202.07000000000002" y="311.72999999999996" type="curve" smooth="yes"/>
      <point x="202.07000000000002" y="965.8000000000001" type="line" smooth="yes"/>
      <point x="202.07000000000002" y="1115.89"/>
      <point x="251.35" y="1197.11"/>
      <point x="364.86" y="1197.11" type="curve" smooth="yes"/>
      <point x="478.37" y="1197.11"/>
      <point x="527.65" y="1115.89"/>
      <point x="527.65" y="965.8000000000001" type="curve" smooth="yes"/>
      <point x="527.65" y="311.72999999999996" type="line" smooth="yes"/>
      <point x="527.65" y="162.64"/>
      <point x="478.37" y="80.89"/>
    </contour>
  </outline>
</glyph>
<glyph name="P" format="2">
  <advance width="670.02"/>
  <unicode hex="0050"/>
  <anchor x="335.50999999999993" y="0.0" name="bottom"/>
  <anchor x="335.50999999999993" y="1278.0" name="top"/>
  <outline>
    <contour>
      <point x="168.57" y="439.96" type="line"/>
      <point x="339.98" y="439.96" type="line" smooth="yes"/>
      <point x="521.37" y="439.96"/>
      <point x="606.03" y="550.7299999999999"/>
      <point x="606.03" y="745.3499999999999" type="curve" smooth="yes"/>
      <point x="606.03" y="974.61" type="line" smooth="yes"/>
      <point x="606.03" y="1165.0500000000002"/>
      <point x="521.37" y="1278.0"/>
      <point x="340.39" y="1278.0" type="curve" smooth="yes"/>
      <point x="173.45" y="1278.0" type="line"/>
      <point x="173.45" y="1180.46" type="line"/>
      <point x="335.74" y="1180.46" type="line" smooth="yes"/>
      <point x="445.49" y="1180.46"/>
      <point x="493.89000000000004" y="1104.7700000000002"/>
      <point x="493.89000000000004" y="971.5500000000001" type="curve" smooth="yes"/>
      <point x="493.89000000000004" y="747.88" type="line" smooth="yes"/>
      <point x="493.89000000000004" y="613.66"/>
      <point x="445.49" y="537.5"/>
      <point x="334.27" y="537.5" type="curve" smooth="yes"/>
      <point x="168.57" y="537.5" type="line"/>
    </contour>
    <contour>
      <point x="108.81" y="0.0" type="line"/>
      <point x="221.48000000000002" y="0.0" type="line"/>
      <point x="221.48000000000002" y="456.38" type="line"/>
      <point x="220.42" y="510.47999999999996" type="line"/>
      <point x="220.42" y="1278.0" type="line"/>
      <point x="108.81" y="1278.0" type="line"/>
    </contour>
  </outline>
</glyph>
<glyph name="Q" format="2">
  <advance width="733.25"/>
  <unicode hex="0051"/>
  <anchor x="367.39000000000004" y="0.0" name="bottom"/>
  <anchor x="367.39000000000004" y="1278.0" name="top"/>
  <outline>
    <contour>
      <point x="721.7800000000001" y="-23.889999999999997" type="line"/>
      <point x="721.7800000000001" y="74.06" type="line"/>
      <point x="483.55" y="68.00000000000001" type="line"/>
      <point x="487.78000000000003" y="72.36" type="line"/>
      <point x="584.62" y="101.60000000000001"/>
      <point x="641.91" y="179.95000000000002"/>
      <point x="641.91" y="349.65000000000003" type="curve" smooth="yes"/>
      <point x="641.91" y="949.49" type="line" smooth="yes"/>
      <point x="641.91" y="1176.93"/>
      <point x="548.5999999999999" y="1295.1200000000001"/>
      <point x="364.86" y="1295.1200000000001" type="curve" smooth="yes"/>
      <point x="180.64999999999998" y="1295.1200000000001"/>
      <point x="88.33999999999999" y="1176.93"/>
      <point x="88.33999999999999" y="949.49" type="curve" smooth="yes"/>
      <point x="88.33999999999999" y="332.45" type="line" smooth="yes"/>
      <point x="88.33999999999999" y="106.95"/>
      <point x="174.0" y="-10.53"/>
      <point x="402.21999999999997" y="-16.18" type="curve" smooth="yes"/>
    </contour>
    <contour>
      <point x="390.62000000000006" y="78.89" type="line" smooth="yes"/>
      <point x="259.88" y="78.89000000000001"/>
      <point x="202.07000000000002" y="165.17000000000002"/>
      <point x="202.07000000000002" y="319.84999999999997" type="curve" smooth="yes"/>
      <point x="202.07000000000002" y="959.44" type="line" smooth="yes"/>
      <point x="202.07000000000002" y="1116.4199999999998"/>
      <point x="252.41" y="1197.6399999999999"/>
      <point x="364.86" y="1197.6399999999999" type="curve" smooth="yes"/>
      <point x="477.31" y="1197.6399999999999"/>
      <point x="527.65" y="1116.4199999999998"/>
      <point x="527.65" y="959.44" type="curve" smooth="yes"/>
      <point x="527.65" y="327.79999999999995" type="line" smooth="yes"/>
      <point x="527.65" y="180.99"/>
      <point x="484.13" y="103.88999999999999"/>
      <point x="405.5" y="78.89" type="curve"/>
    </contour>
  </outline>
</glyph>
<glyph name="R" format="2">
  <advance width="691.0200000000001"/>
  <unicode hex="0052"/>
  <anchor x="358.03999999999996" y="0.0" name="bottom"/>
  <anchor x="347.1" y="1278.0" name="top"/>
  <outline>
    <contour>
      <point x="515.83" y="0.0" type="line"/>
      <point x="629.5" y="0.0" type="line"/>
      <point x="595.6800000000001" y="315.94" type="line" smooth="yes"/>
      <point x="577.21" y="486.54"/>
      <point x="546.62" y="580.83"/>
      <point x="400.19" y="606.18" type="curve"/>
      <point x="430.57" y="589.4100000000001" type="line"/>
      <point x="432.45000000000005" y="601.3" type="line"/>
      <point x="564.27" y="620.54"/>
      <point x="613.6200000000001" y="710.89"/>
      <point x="613.6200000000001" y="850.1800000000001" type="curve" smooth="yes"/>
      <point x="613.6200000000001" y="991.39" type="line" smooth="yes"/>
      <point x="613.6200000000001" y="1171.82"/>
      <point x="540.13" y="1278.0"/>
      <point x="352.03999999999996" y="1278.0" type="curve" smooth="yes"/>
      <point x="182.46" y="1278.0" type="line"/>
      <point x="182.46" y="1180.4599999999998" type="line"/>
      <point x="344.21" y="1180.4599999999998" type="line" smooth="yes"/>
      <point x="464.24999999999994" y="1180.4599999999998"/>
      <point x="501.95" y="1106.24"/>
      <point x="501.95" y="973.96" type="curve" smooth="yes"/>
      <point x="501.95" y="831.16" type="line" smooth="yes"/>
      <point x="501.95" y="709.06"/>
      <point x="463.19000000000005" y="634.96"/>
      <point x="334.03999999999996" y="633.96" type="curve" smooth="yes"/>
      <point x="191.81" y="632.96" type="line"/>
      <point x="191.81" y="541.07" type="line"/>
      <point x="316.16" y="541.07" type="line" smooth="yes"/>
      <point x="446.37" y="541.0699999999999"/>
      <point x="475.84000000000003" y="439.33"/>
      <point x="487.13000000000005" y="313.82" type="curve" smooth="yes"/>
    </contour>
    <contour>
      <point x="108.81" y="0.0" type="line"/>
      <point x="221.48000000000002" y="0.0" type="line"/>
      <point x="221.48000000000002" y="561.14" type="line"/>
      <point x="220.95" y="607.88" type="line"/>
      <point x="220.95" y="1278.0" type="line"/>
      <point x="108.81" y="1278.0" type="line"/>
    </contour>
  </outline>
</glyph>
<glyph name="S" format="2">
  <advance width="576.4100000000001"/>
  <unicode hex="0053"/>
  <anchor x="274.5" y="0.0" name="bottom"/>
  <anchor x="274.5" y="1278.0" name="top"/>
  <outline>
    <contour>
      <point x="257.31" y="-17.12" type="curve" smooth="yes"/>
      <point x="433.98999999999995" y="-17.12"/>
      <point x="511.53999999999996" y="93.95"/>
      <point x="511.53999999999996" y="284.03" type="curve" smooth="yes"/>
      <point x="511.53999999999996" y="352.3" type="line" smooth="yes"/>
      <point x="511.53999999999996" y="522.89"/>
      <point x="463.77" y="596.07"/>
      <point x="337.24000000000007" y="690.96" type="curve" smooth="yes"/>
      <point x="220.6" y="779.9599999999999"/>
      <point x="171.6" y="829.78"/>
      <point x="171.6" y="962.9300000000001" type="curve" smooth="yes"/>
      <point x="171.6" y="999.03" type="line" smooth="yes"/>
      <point x="171.6" y="1123.59"/>
      <point x="213.48" y="1190.75"/>
      <point x="318.82" y="1190.75" type="curve" smooth="yes"/>
      <point x="390.93999999999994" y="1190.75"/>
      <point x="444.59000000000003" y="1162.22"/>
      <point x="492.06" y="1123.3999999999999" type="curve"/>
      <point x="482.88" y="1233.24" type="line"/>
      <point x="441.10999999999996" y="1267.6499999999999"/>
      <point x="379.69" y="1295.1200000000001"/>
      <point x="298.03" y="1295.1200000000001" type="curve" smooth="yes"/>
      <point x="134.89" y="1295.1200000000001"/>
      <point x="58.93000000000001" y="1189.1100000000001"/>
      <point x="58.93000000000001" y="1006.45" type="curve" smooth="yes"/>
      <point x="58.93000000000001" y="963.99" type="line" smooth="yes"/>
      <point x="58.93000000000001" y="795.46"/>
      <point x="120.41" y="718.86"/>
      <point x="251.34999999999997" y="619.03" type="curve" smooth="yes"/>
      <point x="354.80999999999995" y="541.09"/>
      <point x="398.87" y="487.63"/>
      <point x="398.87" y="354.01" type="curve" smooth="yes"/>
      <point x="398.87" y="288.79999999999995" type="line" smooth="yes"/>
      <point x="398.87" y="162.65"/>
      <point x="354.99000000000007" y="89.9"/>
      <point x="244.99999999999997" y="89.9" type="curve" smooth="yes"/>
      <point x="180.58" y="89.9"/>
      <point x="115.46000000000001" y="116.08000000000001"/>
      <point x="60.05" y="157.25" type="curve"/>
      <point x="69.23" y="42.23" type="line"/>
      <point x="110.41" y="10.349999999999998"/>
      <point x="178.23999999999998" y="-17.12"/>
    </contour>
  </outline>
</glyph>
<glyph name="T" format="2">
  <advance width="591.83"/>
  <unicode hex="0054"/>
  <anchor x="296.15000000000003" y="0.0" name="bottom"/>
  <anchor x="296.15000000000003" y="639.0" name="center"/>
  <anchor x="296.15000000000003" y="1278.0" name="top"/>
  <outline>
    <contour>
      <point x="239.04999999999998" y="0.0" type="line"/>
      <point x="352.78000000000003" y="0.0" type="line"/>
      <point x="352.78000000000003" y="1278.0" type="line"/>
      <point x="239.04999999999998" y="1278.0" type="line"/>
    </contour>
    <contour>
      <point x="32.82" y="1178.28" type="line"/>
      <point x="559.01" y="1178.28" type="line"/>
      <point x="559.01" y="1278.0" type="line"/>
      <point x="32.82" y="1278.0" type="line"/>
    </contour>
  </outline>
</glyph>
<glyph name="U" format="2">
  <advance width="748.5400000000001"/>
  <unicode hex="0055"/>
  <anchor x="374.27000000000004" y="0.0" name="bottom"/>
  <anchor x="539.23" y="7.35" name="ogonek"/>
  <anchor x="374.27000000000004" y="1278.0" name="top"/>
  <anchor x="735.49" y="1278.0" name="topright"/>
  <outline>
    <contour>
      <point x="374.27000000000004" y="-17.12" type="curve" smooth="yes"/>
      <point x="557.95" y="-17.12"/>
      <point x="646.73" y="96.6"/>
      <point x="646.73" y="313.33" type="curve" smooth="yes"/>
      <point x="646.73" y="1278.0" type="line"/>
      <point x="533.0" y="1278.0" type="line"/>
      <point x="533.0" y="305.38" type="line" smooth="yes"/>
      <point x="533.0" y="159.11"/>
      <point x="485.66" y="81.42"/>
      <point x="374.27000000000004" y="81.42" type="curve" smooth="yes"/>
      <point x="262.88" y="81.42"/>
      <point x="215.54000000000002" y="159.11"/>
      <point x="215.54000000000002" y="305.38" type="curve" smooth="yes"/>
      <point x="215.54000000000002" y="1278.0" type="line"/>
      <point x="101.81" y="1278.0" type="line"/>
      <point x="101.81" y="313.33" type="line" smooth="yes"/>
      <point x="101.81" y="96.6"/>
      <point x="190.58999999999997" y="-17.12"/>
    </contour>
  </outline>
</glyph>
<glyph name="V" format="2">
  <advance width="687.43"/>
  <unicode hex="0056"/>
  <anchor x="343.44999999999993" y="0.0" name="bottom"/>
  <anchor x="343.44999999999993" y="1278.0" name="top"/>
  <outline>
    <contour>
      <point x="247.80000000000004" y="0.0" type="line"/>
      <point x="439.63" y="0.0" type="line"/>
      <point x="642.9699999999999" y="1278.0" type="line"/>
      <point x="529.3000000000001" y="1278.0" type="line"/>
      <point x="353.45" y="84.41000000000001" type="line"/>
      <point x="332.98" y="84.41000000000001" type="line"/>
      <point x="158.13000000000002" y="1278.0" type="line"/>
      <point x="44.46" y="1278.0" type="line"/>
    </contour>
  </outline>
</glyph>
<glyph name="W" format="2">
  <advance width="1018.2299999999999"/>
  <unicode hex="0057"/>
  <anchor x="509.34999999999997" y="0.0" name="bottom"/>
  <anchor x="509.34999999999997" y="1278.0" name="top"/>
  <outline>
    <contour>
      <point x="197.32000000000002" y="0.0" type="line"/>
      <point x="380.15" y="0.0" type="line"/>
      <point x="464.82" y="752.3" type="line"/>
      <point x="503.87999999999994" y="1153.2900000000002" type="line"/>
      <point x="514.3499999999999" y="1153.2900000000002" type="line"/>
      <point x="553.88" y="752.3" type="line"/>
      <point x="638.0799999999999" y="0.0" type="line"/>
      <point x="820.91" y="0.0" type="line"/>
      <point x="961.89" y="1278.0" type="line"/>
      <point x="848.69" y="1278.0" type="line"/>
      <point x="746.1500000000001" y="300.97" type="line"/>
      <point x="730.49" y="94.48" type="line"/>
      <point x="720.0200000000001" y="94.48" type="line"/>
      <point x="701.18" y="300.97" type="line"/>
      <point x="590.52" y="1246.3" type="line"/>
      <point x="427.71" y="1246.3" type="line"/>
      <point x="317.05" y="300.97" type="line"/>
      <point x="298.21000000000004" y="94.48" type="line"/>
      <point x="287.74" y="94.48" type="line"/>
      <point x="272.08" y="300.97" type="line"/>
      <point x="169.54" y="1278.0" type="line"/>
      <point x="56.34" y="1278.0" type="line"/>
    </contour>
  </outline>
</glyph>
<glyph name="X" format="2">
  <advance width="663.78"/>
  <unicode hex="0058"/>
  <anchor x="332.39" y="0.0" name="bottom"/>
  <anchor x="332.39" y="1278.0" name="top"/>
  <outline>
    <contour>
      <point x="45.4" y="0.0" type="line"/>
      <point x="157.54" y="0.0" type="line"/>
      <point x="327.33000000000004" y="600.25" type="line"/>
      <point x="336.45000000000005" y="600.25" type="line"/>
      <point x="506.23999999999995" y="0.0" type="line"/>
      <point x="618.3800000000001" y="0.0" type="line"/>
      <point x="414.51" y="683.95" type="line"/>
      <point x="414.51" y="647.64" type="line"/>
      <point x="613.3199999999999" y="1278.0" type="line"/>
      <point x="501.71000000000004" y="1278.0" type="line"/>
      <point x="336.45000000000005" y="724.1" type="line"/>
      <point x="327.33" y="724.1" type="line"/>
      <point x="162.07000000000002" y="1278.0" type="line"/>
      <point x="50.46000000000001" y="1278.0" type="line"/>
      <point x="249.26999999999998" y="647.64" type="line"/>
      <point x="249.26999999999998" y="683.95" type="line"/>
    </contour>
  </outline>
</glyph>
<glyph name="Y" format="2">
  <advance width="640.84"/>
  <unicode hex="0059"/>
  <anchor x="320.92" y="0.0" name="bottom"/>
  <anchor x="320.92" y="1278.0" name="top"/>
  <anchor x="20.0" y="1278.0" name="topleft"/>
  <outline>
    <contour>
      <point x="268.47" y="410.02000000000004" type="line"/>
      <point x="373.42999999999995" y="410.02000000000004" type="line"/>
      <point x="609.97" y="1278.0" type="line"/>
      <point x="497.30000000000007" y="1278.0" type="line"/>
      <point x="380.09" y="797.23" type="line"/>
      <point x="325.51" y="567.41" type="line"/>
      <point x="316.86" y="567.41" type="line"/>
      <point x="262.81" y="797.7" type="line"/>
      <point x="143.54000000000002" y="1278.0" type="line"/>
      <point x="30.87" y="1278.0" type="line"/>
    </contour>
    <contour>
      <point x="266.94" y="0.0" type="line"/>
      <point x="374.96000000000004" y="0.0" type="line"/>
      <point x="374.96000000000004" y="539.5" type="line"/>
      <point x="266.94" y="539.5" type="line"/>
    </contour>
  </outline>
</glyph>
<glyph name="Z" format="2">
  <advance width="597.5300000000001"/>
  <unicode hex="005A"/>
  <anchor x="299.03000000000003" y="0.0" name="bottom"/>
  <anchor x="299.03000000000003" y="639.0" name="center"/>
  <anchor x="299.03000000000003" y="1278.0" name="top"/>
  <outline>
    <contour>
      <point x="537.8900000000001" y="101.25000000000001" type="line"/>
      <point x="175.55" y="101.25000000000001" type="line"/>
      <point x="533.3000000000001" y="1187.1100000000001" type="line"/>
      <point x="533.3000000000001" y="1278.0" type="line"/>
      <point x="63.17" y="1278.0" type="line"/>
      <point x="63.17" y="1176.75" type="line"/>
      <point x="416.39" y="1176.75" type="line"/>
      <point x="59.11" y="91.42" type="line"/>
      <point x="59.11" y="0.0" type="line"/>
      <point x="537.8900000000001" y="0.0" type="line"/>
    </contour>
  </outline>
</glyph>
<glyph name="bracketleft" format="2">
  <advance width="422.16"/>
  <unicode hex="005B"/>
  <outline>
    <contour>
      <point x="111.34" y="-240.47" type="line"/>
      <point x="390.16" y="-240.47" type="line"/>
      <point x="390.16" y="-152.23" type="line"/>
      <point x="215.65" y="-152.23" type="line"/>
      <point x="215.65" y="1263.76" type="line"/>
      <point x="390.16" y="1263.76" type="line"/>
      <point x="390.16" y="1352.0" type="line"/>
      <point x="111.34" y="1352.0" type="line"/>
    </contour>
  </outline>
</glyph>
<glyph name="backslash" format="2">
  <advance width="499.04999999999995"/>
  <unicode hex="005C"/>
  <outline>
    <contour>
      <point x="462.29999999999995" y="-240.47" type="line"/>
      <point x="137.94" y="1352.0" type="line"/>
      <point x="36.75" y="1352.0" type="line"/>
      <point x="360.58" y="-240.47" type="line"/>
    </contour>
  </outline>
</glyph>
<glyph name="bracketright" format="2">
  <advance width="422.16"/>
  <unicode hex="005D"/>
  <outline>
    <contour>
      <point x="310.82" y="-240.47" type="line"/>
      <point x="310.82" y="1352.0" type="line"/>
      <point x="32.0" y="1352.0" type="line"/>
      <point x="32.0" y="1263.76" type="line"/>
      <point x="206.50999999999996" y="1263.76" type="line"/>
      <point x="206.50999999999996" y="-152.23" type="line"/>
      <point x="32.0" y="-152.23" type="line"/>
      <point x="32.0" y="-240.47" type="line"/>
    </contour>
  </outline>
</glyph>
<glyph name="asciicircum" format="2">
  <advance width="535.47"/>
  <unicode hex="005E"/>
  <outline>
    <contour>
      <point x="192.92" y="1278.0" type="line"/>
      <point x="49.69" y="625.35" type="line"/>
      <point x="140.34" y="625.35" type="line"/>
      <point x="263.96999999999997" y="1204.6000000000001" type="line"/>
      <point x="271.5" y="1204.6000000000001" type="line"/>
      <point x="395.13000000000005" y="625.35" type="line"/>
      <point x="485.78" y="625.35" type="line"/>
      <point x="342.55" y="1278.0" type="line"/>
    </contour>
  </outline>
</glyph>
<glyph name="underscore" format="2">
  <advance width="583.66"/>
  <unicode hex="005F"/>
  <outline>
    <contour>
      <point x="42.46" y="-164.92" type="line"/>
      <point x="541.1999999999999" y="-164.92" type="line"/>
      <point x="541.1999999999999" y="-78.21000000000001" type="line"/>
      <point x="42.46" y="-78.21000000000001" type="line"/>
    </contour>
  </outline>
</glyph>
<glyph name="grave" format="2">
  <advance width="429.72"/>
  <unicode hex="0060"/>
  <anchor x="287.22" y="994.24" name="_top"/>
  <anchor x="279.87" y="1293.97" name="top"/>
  <outline>
    <contour>
      <point x="211.96" y="1340.54" type="line"/>
      <point x="97.88" y="1340.54" type="line"/>
      <point x="97.88" y="1340.54" type="line"/>
      <point x="242.13000000000002" y="1099.52" type="line"/>
      <point x="331.84" y="1099.52" type="line"/>
      <point x="331.84" y="1099.52" type="line"/>
    </contour>
  </outline>
</glyph>
<glyph name="a" format="2">
  <advance width="622.43"/>
  <unicode hex="0061"/>
  <anchor x="302.22" y="0.0" name="bottom"/>
  <anchor x="571.14" y="0.0" name="ogonek"/>
  <anchor x="302.22" y="994.24" name="top"/>
  <outline>
    <contour>
      <point x="423.54" y="0.0" type="line"/>
      <point x="532.0899999999999" y="0.0" type="line"/>
      <point x="532.0899999999999" y="719.9599999999999" type="line" smooth="yes"/>
      <point x="532.0899999999999" y="911.11"/>
      <point x="461.96" y="1008.83"/>
      <point x="296.39" y="1008.83" type="curve" smooth="yes"/>
      <point x="209.14000000000001" y="1008.83"/>
      <point x="135.13" y="975.36"/>
      <point x="83.83" y="937.4200000000001" type="curve"/>
      <point x="75.11999999999999" y="834.53" type="line"/>
      <point x="134.24" y="877.23"/>
      <point x="206.07" y="911.82"/>
      <point x="278.37" y="911.82" type="curve" smooth="yes"/>
      <point x="380.78000000000003" y="911.82"/>
      <point x="423.01" y="848.24"/>
      <point x="423.01" y="715.31" type="curve"/>
      <point x="423.01000000000005" y="598.1800000000001" type="line"/>
      <point x="423.01000000000005" y="172.00000000000003" type="line"/>
      <point x="429.13000000000005" y="172.0" type="line"/>
    </contour>
    <contour>
      <point x="245.65000000000003" y="-13.53" type="curve" smooth="yes"/>
      <point x="357.89" y="-13.53"/>
      <point x="407.65" y="62.05000000000001"/>
      <point x="426.18000000000006" y="160.98" type="curve"/>
      <point x="446.06999999999994" y="160.98" type="line"/>
      <point x="425.5400000000001" y="246.73000000000002" type="line"/>
      <point x="409.25" y="148.99"/>
      <point x="366.14000000000004" y="79.36"/>
      <point x="285.1" y="79.36" type="curve" smooth="yes"/>
      <point x="197.12" y="79.36"/>
      <point x="164.6" y="143.17"/>
      <point x="164.6" y="255.90999999999997" type="curve" smooth="yes"/>
      <point x="164.6" y="312.42" type="line" smooth="yes"/>
      <point x="164.6" y="408.46"/>
      <point x="197.89" y="458.04"/>
      <point x="293.16" y="489.03000000000003" type="curve" smooth="yes"/>
      <point x="452.61" y="541.02" type="line"/>
      <point x="441.66" y="630.6099999999999" type="line"/>
      <point x="266.14" y="573.56" type="line" smooth="yes"/>
      <point x="110.89" y="523.56"/>
      <point x="56.05" y="450.85"/>
      <point x="56.05" y="307.65000000000003" type="curve" smooth="yes"/>
      <point x="56.05" y="240.66" type="line" smooth="yes"/>
      <point x="56.05" y="75.71000000000001"/>
      <point x="115.82" y="-13.53"/>
    </contour>
  </outline>
</glyph>
<glyph name="b" format="2">
  <advance width="682.72"/>
  <unicode hex="0062"/>
  <anchor x="341.85999999999996" y="0.0" name="bottom"/>
  <anchor x="341.85999999999996" y="1331.35" name="top"/>
  <outline>
    <contour>
      <point x="392.78" y="-13.53" type="curve" smooth="yes"/>
      <point x="540.3199999999999" y="-13.53"/>
      <point x="603.79" y="93.60000000000001"/>
      <point x="603.79" y="294.51000000000005" type="curve" smooth="yes"/>
      <point x="603.79" y="703.55" type="line" smooth="yes"/>
      <point x="603.79" y="902.52"/>
      <point x="540.79" y="1007.77"/>
      <point x="396.07000000000005" y="1007.77" type="curve" smooth="yes"/>
      <point x="280.25" y="1007.77"/>
      <point x="225.43" y="932.8399999999999"/>
      <point x="205.42999999999998" y="831.85" type="curve"/>
      <point x="178.29999999999998" y="831.85" type="line"/>
      <point x="202.89" y="748.75" type="line"/>
      <point x="221.65000000000003" y="846.43"/>
      <point x="267.76000000000005" y="917.0"/>
      <point x="357.2099999999999" y="917.0" type="curve" smooth="yes"/>
      <point x="455.18999999999994" y="917.0"/>
      <point x="494.18000000000006" y="845.13"/>
      <point x="494.18000000000006" y="711.09" type="curve" smooth="yes"/>
      <point x="494.18000000000006" y="289.74" type="line" smooth="yes"/>
      <point x="494.18000000000006" y="152.70000000000002"/>
      <point x="451.78000000000003" y="79.36"/>
      <point x="356.21" y="79.36" type="curve" smooth="yes"/>
      <point x="258.64000000000004" y="79.36"/>
      <point x="208.24" y="157.23"/>
      <point x="204.89" y="277.74" type="curve"/>
      <point x="167.41000000000003" y="174.60999999999999" type="line"/>
      <point x="202.9" y="174.60999999999999" type="line"/>
      <point x="216.44000000000003" y="68.04"/>
      <point x="274.14000000000004" y="-13.53"/>
    </contour>
    <contour>
      <point x="98.34000000000002" y="0.0" type="line"/>
      <point x="206.95" y="0.0" type="line"/>
      <point x="201.36" y="165.42" type="line"/>
      <point x="204.89" y="193.41" type="line"/>
      <point x="204.89" y="793.17" type="line"/>
      <point x="203.42" y="812.35" type="line"/>
      <point x="207.42000000000002" y="1046.73" type="line"/>
      <point x="207.42000000000002" y="1331.35" type="line"/>
      <point x="98.34000000000002" y="1331.35" type="line"/>
    </contour>
  </outline>
</glyph>
<glyph name="c" format="2">
  <advance width="514.11"/>
  <unicode hex="0063"/>
  <anchor x="289.85" y="0.0" name="bottom"/>
  <anchor x="289.85" y="994.24" name="top"/>
  <outline>
    <contour>
      <point x="311.27" y="-13.530000000000001" type="curve" smooth="yes"/>
      <point x="378.57" y="-13.530000000000001"/>
      <point x="433.4" y="10.35"/>
      <point x="468.5799999999999" y="43.290000000000006" type="curve"/>
      <point x="477.28999999999996" y="144.06" type="line"/>
      <point x="437.93999999999994" y="109.42"/>
      <point x="394.0" y="85.60000000000001"/>
      <point x="337.12" y="85.60000000000001" type="curve" smooth="yes"/>
      <point x="230.94999999999996" y="85.60000000000001"/>
      <point x="188.01" y="159.18"/>
      <point x="188.01" y="287.28000000000003" type="curve" smooth="yes"/>
      <point x="188.01" y="707.49" type="line" smooth="yes"/>
      <point x="188.01" y="837.18"/>
      <point x="228.3" y="910.76"/>
      <point x="333.47" y="910.76" type="curve" smooth="yes"/>
      <point x="391.88" y="910.76"/>
      <point x="434.75999999999993" y="886.94"/>
      <point x="473.17" y="852.77" type="curve"/>
      <point x="464.46" y="951.4799999999999" type="line"/>
      <point x="428.75" y="983.36"/>
      <point x="376.03999999999996" y="1007.77"/>
      <point x="310.68" y="1007.77" type="curve" smooth="yes"/>
      <point x="149.18" y="1007.77"/>
      <point x="78.39999999999999" y="897.99"/>
      <point x="78.39999999999999" y="708.55" type="curve" smooth="yes"/>
      <point x="78.39999999999999" y="284.22" type="line" smooth="yes"/>
      <point x="78.39999999999999" y="94.31000000000002"/>
      <point x="149.18" y="-13.530000000000001"/>
    </contour>
  </outline>
</glyph>
<glyph name="d" format="2">
  <advance width="682.72"/>
  <unicode hex="0064"/>
  <anchor x="341.33" y="0.0" name="bottom"/>
  <anchor x="341.33" y="497.12" name="center"/>
  <anchor x="341.33" y="1331.35" name="top"/>
  <anchor x="713.1800000000001" y="1331.35" name="topright"/>
  <outline>
    <contour>
      <point x="287.18" y="-13.53" type="curve" smooth="yes"/>
      <point x="401.24" y="-13.53"/>
      <point x="458.40999999999997" y="56.699999999999996"/>
      <point x="478.88000000000005" y="163.79999999999998" type="curve"/>
      <point x="504.6" y="163.79999999999998" type="line"/>
      <point x="479.83000000000004" y="248.55" type="line"/>
      <point x="460.12999999999994" y="143.35000000000002"/>
      <point x="411.67" y="79.36"/>
      <point x="325.51" y="79.36" type="curve" smooth="yes"/>
      <point x="227.53000000000003" y="79.36"/>
      <point x="188.54" y="152.17000000000002"/>
      <point x="188.54" y="287.62" type="curve" smooth="yes"/>
      <point x="188.54" y="706.15" type="line" smooth="yes"/>
      <point x="188.54" y="843.6600000000001"/>
      <point x="230.94" y="917.0"/>
      <point x="326.51" y="917.0" type="curve" smooth="yes"/>
      <point x="424.08000000000004" y="917.0"/>
      <point x="474.4800000000001" y="839.13"/>
      <point x="477.83" y="718.62" type="curve"/>
      <point x="510.43" y="819.63" type="line"/>
      <point x="478.22999999999996" y="819.63" type="line"/>
      <point x="464.68999999999994" y="926.1999999999999"/>
      <point x="408.52" y="1007.77"/>
      <point x="289.94" y="1007.77" type="curve" smooth="yes"/>
      <point x="142.93" y="1007.77"/>
      <point x="78.92999999999999" y="900.64"/>
      <point x="78.92999999999999" y="699.26" type="curve" smooth="yes"/>
      <point x="78.92999999999999" y="292.45" type="line" smooth="yes"/>
      <point x="78.92999999999999" y="92.13"/>
      <point x="142.45999999999998" y="-13.53"/>
    </contour>
    <contour>
      <point x="475.77000000000004" y="0.0" type="line"/>
      <point x="584.38" y="0.0" type="line"/>
      <point x="584.38" y="1331.35" type="line"/>
      <point x="475.3" y="1331.35" type="line"/>
      <point x="475.3" y="1046.73" type="line"/>
      <point x="479.3" y="811.4100000000001" type="line"/>
      <point x="477.83" y="791.29" type="line"/>
      <point x="477.83" y="179.98999999999998" type="line"/>
      <point x="481.35999999999996" y="172.47" type="line"/>
    </contour>
  </outline>
</glyph>
<glyph name="e" format="2">
  <advance width="621.9"/>
  <unicode hex="0065"/>
  <anchor x="331.8" y="0.0" name="bottom"/>
  <anchor x="530.61" y="10.0" name="ogonek"/>
  <anchor x="321.03999999999996" y="994.24" name="top"/>
  <outline>
    <contour>
      <point x="348.58" y="-13.530000000000001" type="curve" smooth="yes"/>
      <point x="428.06000000000006" y="-13.530000000000001"/>
      <point x="494.59999999999997" y="12.820000000000002"/>
      <point x="540.02" y="44.760000000000005" type="curve"/>
      <point x="548.73" y="147.06" type="line"/>
      <point x="498.02" y="110.77"/>
      <point x="438.24999999999994" y="83.48"/>
      <point x="368.07000000000005" y="83.48" type="curve" smooth="yes"/>
      <point x="251.36" y="83.48"/>
      <point x="186.95" y="150.94"/>
      <point x="186.95" y="291.22" type="curve" smooth="yes"/>
      <point x="186.95" y="469.0" type="line"/>
      <point x="186.95" y="490.07" type="line"/>
      <point x="186.95" y="727.27" type="line" smooth="yes"/>
      <point x="186.95" y="853.3100000000001"/>
      <point x="227.82" y="917.53"/>
      <point x="319.91999999999996" y="917.53" type="curve" smooth="yes"/>
      <point x="411.43000000000006" y="917.53"/>
      <point x="452.89000000000004" y="853.31"/>
      <point x="452.89000000000004" y="727.27" type="curve" smooth="yes"/>
      <point x="452.89000000000004" y="636.22"/>
      <point x="452.89" y="549.1"/>
      <point x="452.89" y="437.21000000000004" type="curve"/>
      <point x="551.61" y="437.21000000000004" type="line"/>
      <point x="557.73" y="494.21"/>
      <point x="558.79" y="541.51"/>
      <point x="558.79" y="594.16" type="curve" smooth="yes"/>
      <point x="558.79" y="716.6700000000001" type="line" smooth="yes"/>
      <point x="558.79" y="905.52"/>
      <point x="480.07" y="1009.3599999999999"/>
      <point x="319.91999999999996" y="1009.3599999999999" type="curve" smooth="yes"/>
      <point x="158.11999999999998" y="1009.3599999999999"/>
      <point x="78.39999999999999" y="908.7"/>
      <point x="78.39999999999999" y="717.7299999999999" type="curve" smooth="yes"/>
      <point x="78.39999999999999" y="299.23" type="line" smooth="yes"/>
      <point x="78.39999999999999" y="90.9"/>
      <point x="172.3" y="-13.530000000000001"/>
    </contour>
    <contour>
      <point x="143.63" y="437.21000000000004" type="line"/>
      <point x="523.8299999999999" y="437.21000000000004" type="line"/>
      <point x="523.8299999999999" y="525.86" type="line"/>
      <point x="143.63" y="525.86" type="line"/>
    </contour>
  </outline>
</glyph>
<glyph name="f" format="2">
  <advance width="486.45"/>
  <unicode hex="0066"/>
  <anchor x="243.48999999999998" y="0.0" name="bottom"/>
  <anchor x="243.48999999999998" y="1334.0" name="top"/>
  <outline>
    <contour>
      <point x="312.01" y="1351.12" type="curve" smooth="yes"/>
      <point x="179.76" y="1351.12"/>
      <point x="104.81" y="1274.7099999999998"/>
      <point x="104.81" y="1149.18" type="curve" smooth="yes"/>
      <point x="104.81" y="1144.18" type="line" smooth="yes"/>
      <point x="104.81" y="1072.65"/>
      <point x="132.29" y="1011.8299999999999"/>
      <point x="159.72" y="976.19" type="curve"/>
      <point x="159.72" y="962.83" type="line"/>
      <point x="236.70999999999998" y="963.59" type="line"/>
      <point x="222.64999999999998" y="1007.5799999999999"/>
      <point x="210.17999999999998" y="1054.5099999999998"/>
      <point x="210.17999999999998" y="1109.85" type="curve" smooth="yes"/>
      <point x="210.17999999999998" y="1114.79" type="line" smooth="yes"/>
      <point x="210.17999999999998" y="1205.89"/>
      <point x="255.94000000000003" y="1259.29"/>
      <point x="344.87" y="1259.29" type="curve" smooth="yes"/>
      <point x="397.09999999999997" y="1259.29"/>
      <point x="432.09999999999997" y="1245.8799999999999"/>
      <point x="465.51" y="1231.0" type="curve"/>
      <point x="456.27000000000004" y="1317.4099999999999" type="line"/>
      <point x="421.62000000000006" y="1335.47"/>
      <point x="373.55" y="1351.12"/>
    </contour>
    <contour>
      <point x="132.28" y="0.0" type="line"/>
      <point x="241.89" y="0.0" type="line"/>
      <point x="241.89" y="936.8100000000001" type="line"/>
      <point x="132.28" y="936.8100000000001" type="line"/>
    </contour>
    <contour>
      <point x="18.410000000000004" y="884.88" type="line"/>
      <point x="454.39" y="884.88" type="line"/>
      <point x="463.1" y="975.71" type="line"/>
      <point x="218.82" y="975.71" type="line"/>
      <point x="181.2" y="975.1800000000001" type="line"/>
      <point x="18.410000000000004" y="975.71" type="line"/>
    </contour>
  </outline>
</glyph>
<glyph name="g" format="2">
  <advance width="638.48"/>
  <unicode hex="0067"/>
  <anchor x="327.09" y="-350.0" name="bottom"/>
  <anchor x="324.15000000000003" y="994.24" name="top"/>
  <outline>
    <contour>
      <point x="317.68" y="229.61" type="curve"/>
      <point x="473.23999999999995" y="229.61"/>
      <point x="555.0799999999999" y="321.03"/>
      <point x="555.0799999999999" y="502.16" type="curve" smooth="yes"/>
      <point x="555.0799999999999" y="708.06" type="line" smooth="yes"/>
      <point x="555.0799999999999" y="830.12"/>
      <point x="515.96" y="911.0500000000001"/>
      <point x="405.79999999999995" y="929.94" type="curve"/>
      <point x="408.62" y="932.3599999999999" type="line"/>
      <point x="622.8399999999999" y="926.7700000000001" type="line"/>
      <point x="622.8399999999999" y="1016.89" type="line"/>
      <point x="328.91999999999996" y="1005.77" type="line" smooth="yes"/>
      <point x="130.89000000000001" y="998.1800000000001"/>
      <point x="78.69" y="874.9399999999999"/>
      <point x="78.69" y="724.62" type="curve" smooth="yes"/>
      <point x="78.69" y="499.34" type="line" smooth="yes"/>
      <point x="78.69" y="320.56"/>
      <point x="172.48000000000002" y="229.61"/>
    </contour>
    <contour>
      <point x="319.38" y="-274.94" type="line" smooth="yes"/>
      <point x="213.57" y="-274.94"/>
      <point x="148.88000000000002" y="-229.35999999999999"/>
      <point x="148.88000000000002" y="-147.26" type="curve" smooth="yes"/>
      <point x="148.88000000000002" y="-144.32" type="line" smooth="yes"/>
      <point x="148.88000000000002" y="-60.519999999999996"/>
      <point x="204.28" y="-16.47"/>
      <point x="302.61" y="5.939999999999997" type="curve"/>
      <point x="270.01" y="4.940000000000003" type="line"/>
      <point x="375.27000000000004" y="-16.830000000000002" type="line" smooth="yes"/>
      <point x="475.07000000000005" y="-37.59"/>
      <point x="513.8900000000001" y="-75.46"/>
      <point x="513.8900000000001" y="-147.97" type="curve" smooth="yes"/>
      <point x="513.8900000000001" y="-150.91" type="line" smooth="yes"/>
      <point x="513.8900000000001" y="-234.89"/>
      <point x="449.72999999999996" y="-274.94"/>
      <point x="343.91999999999996" y="-274.94" type="curve" smooth="yes"/>
    </contour>
    <contour>
      <point x="314.61" y="-364.65" type="curve" smooth="yes"/>
      <point x="340.73999999999995" y="-364.65" type="line" smooth="yes"/>
      <point x="508.42" y="-364.65"/>
      <point x="613.02" y="-292.11"/>
      <point x="613.02" y="-154.20999999999998" type="curve" smooth="yes"/>
      <point x="613.02" y="-148.09" type="line" smooth="yes"/>
      <point x="613.02" y="-31.19"/>
      <point x="558.66" y="36.879999999999995"/>
      <point x="405.93999999999994" y="69.94" type="curve" smooth="yes"/>
      <point x="291.97999999999996" y="94.59" type="line" smooth="yes"/>
      <point x="221.70000000000002" y="109.88000000000001"/>
      <point x="190.0" y="130.11"/>
      <point x="190.0" y="170.16" type="curve" smooth="yes"/>
      <point x="190.0" y="171.63" type="line" smooth="yes"/>
      <point x="190.0" y="213.91000000000003"/>
      <point x="225.05" y="235.08"/>
      <point x="284.74" y="235.07999999999998" type="curve"/>
      <point x="317.5" y="235.07999999999998" type="line"/>
      <point x="207.70000000000002" y="265.68" type="line"/>
      <point x="207.70000000000002" y="251.14" type="line"/>
      <point x="139.69" y="243.49"/>
      <point x="88.22000000000001" y="209.84"/>
      <point x="88.22000000000001" y="143.72" type="curve" smooth="yes"/>
      <point x="88.22000000000001" y="141.72" type="line" smooth="yes"/>
      <point x="88.22000000000001" y="73.07000000000001"/>
      <point x="139.69" y="34.36"/>
      <point x="226.5" y="17.36" type="curve"/>
      <point x="224.15" y="15.879999999999997" type="line"/>
      <point x="125.57" y="-4.65"/>
      <point x="50.809999999999995" y="-57.879999999999995"/>
      <point x="50.809999999999995" y="-167.64" type="curve" smooth="yes"/>
      <point x="50.809999999999995" y="-171.64" type="line" smooth="yes"/>
      <point x="50.809999999999995" y="-300.12"/>
      <point x="151.82" y="-364.65"/>
    </contour>
    <contour>
      <point x="317.68" y="314.61" type="curve" smooth="yes"/>
      <point x="225.05" y="314.61"/>
      <point x="184.06" y="381.54"/>
      <point x="184.06" y="504.28000000000003" type="curve" smooth="yes"/>
      <point x="184.06" y="730.98" type="line" smooth="yes"/>
      <point x="184.06" y="852.78"/>
      <point x="225.51999999999998" y="918.1800000000001"/>
      <point x="317.68" y="918.1800000000001" type="curve" smooth="yes"/>
      <point x="322.03" y="918.1800000000001" type="line" smooth="yes"/>
      <point x="410.25" y="918.1800000000001"/>
      <point x="450.24" y="849.7800000000001"/>
      <point x="450.24" y="733.9200000000001" type="curve" smooth="yes"/>
      <point x="450.24" y="504.28" type="line" smooth="yes"/>
      <point x="450.24" y="381.54"/>
      <point x="408.78" y="314.61"/>
    </contour>
  </outline>
</glyph>
<glyph name="h" format="2">
  <advance width="689.2500000000001"/>
  <unicode hex="0068"/>
  <anchor x="345.39000000000004" y="0.0" name="bottom"/>
  <anchor x="345.39000000000004" y="667.0" name="center"/>
  <anchor x="153.38" y="1331.35" name="top"/>
  <outline>
    <contour>
      <point x="488.24000000000007" y="0.0" type="line"/>
      <point x="597.85" y="0.0" type="line"/>
      <point x="597.85" y="732.58" type="line" smooth="yes"/>
      <point x="597.85" y="913.65"/>
      <point x="537.26" y="1007.77"/>
      <point x="401.8999999999999" y="1007.77" type="curve" smooth="yes"/>
      <point x="281.84" y="1007.77"/>
      <point x="225.95999999999998" y="932.84"/>
      <point x="206.36999999999998" y="832.79" type="curve"/>
      <point x="169.29000000000002" y="832.79" type="line"/>
      <point x="205.95" y="747.57" type="line"/>
      <point x="223.24" y="844.3100000000001"/>
      <point x="268.82" y="914.88"/>
      <point x="357.2099999999999" y="914.88" type="curve" smooth="yes"/>
      <point x="452.72" y="914.88"/>
      <point x="488.24000000000007" y="846.1899999999999"/>
      <point x="488.24000000000007" y="719.98" type="curve" smooth="yes"/>
    </contour>
    <contour>
      <point x="98.34000000000002" y="0.0" type="line"/>
      <point x="207.95" y="0.0" type="line"/>
      <point x="207.95" y="796.63" type="line"/>
      <point x="203.42" y="811.47" type="line"/>
      <point x="207.42000000000002" y="1046.73" type="line"/>
      <point x="207.42000000000002" y="1331.35" type="line"/>
      <point x="98.34000000000002" y="1331.35" type="line"/>
    </contour>
  </outline>
</glyph>
<glyph name="i" format="2">
  <advance width="315.11"/>
  <unicode hex="0069"/>
  <anchor x="157.79" y="0.0" name="bottom"/>
  <anchor x="251.41" y="0.0" name="ogonek"/>
  <outline>
    <contour>
      <point x="102.74999999999999" y="0.0" type="line"/>
      <point x="212.36" y="0.0" type="line"/>
      <point x="212.36" y="994.24" type="line"/>
      <point x="102.74999999999999" y="994.24" type="line"/>
    </contour>
    <contour>
      <point x="157.79" y="1142.38" type="curve" smooth="yes"/>
      <point x="202.11" y="1142.38"/>
      <point x="220.76999999999998" y="1171.98"/>
      <point x="220.76999999999998" y="1225.76" type="curve" smooth="yes"/>
      <point x="220.76999999999998" y="1238.7" type="line" smooth="yes"/>
      <point x="220.76999999999998" y="1292.48"/>
      <point x="202.11" y="1321.08"/>
      <point x="157.79" y="1321.08" type="curve" smooth="yes"/>
      <point x="113.46999999999998" y="1321.08"/>
      <point x="94.33999999999999" y="1292.48"/>
      <point x="94.33999999999999" y="1238.7" type="curve" smooth="yes"/>
      <point x="94.33999999999999" y="1225.76" type="line" smooth="yes"/>
      <point x="94.33999999999999" y="1171.98"/>
      <point x="113.46999999999998" y="1142.38"/>
    </contour>
  </outline>
</glyph>
<glyph name="j" format="2">
  <advance width="320.58"/>
  <unicode hex="006A"/>
  <outline>
    <contour>
      <point x="108.22" y="217.57" type="line"/>
      <point x="217.83" y="217.10000000000002" type="line"/>
      <point x="217.83" y="994.24" type="line"/>
      <point x="108.22" y="994.24" type="line"/>
    </contour>
    <contour>
      <point x="163.26" y="1139.2" type="curve" smooth="yes"/>
      <point x="207.58" y="1139.2"/>
      <point x="226.24000000000004" y="1168.8000000000002"/>
      <point x="226.24000000000004" y="1222.5800000000002" type="curve" smooth="yes"/>
      <point x="226.24000000000004" y="1235.52" type="line" smooth="yes"/>
      <point x="226.24000000000004" y="1289.3"/>
      <point x="207.58" y="1317.9"/>
      <point x="163.26" y="1317.9" type="curve" smooth="yes"/>
      <point x="118.94" y="1317.9"/>
      <point x="99.81" y="1289.3"/>
      <point x="99.81" y="1235.52" type="curve" smooth="yes"/>
      <point x="99.81" y="1222.5800000000002" type="line" smooth="yes"/>
      <point x="99.81" y="1168.8"/>
      <point x="118.94" y="1139.2"/>
    </contour>
    <component base="jbottom"/>
  </outline>
</glyph>
<glyph name="k" format="2">
  <advance width="627.4399999999999"/>
  <unicode hex="006B"/>
  <anchor x="328.92" y="0.0" name="bottom"/>
  <anchor x="314.21999999999997" y="1331.35" name="top"/>
  <outline>
    <contour>
      <point x="490.6" y="0.0" type="line"/>
      <point x="604.86" y="0.0" type="line"/>
      <point x="341.95" y="550.3000000000001" type="line"/>
      <point x="341.95" y="515.64" type="line"/>
      <point x="591.04" y="994.24" type="line"/>
      <point x="478.37" y="994.24" type="line"/>
      <point x="259.18" y="578.21" type="line"/>
      <point x="194.01000000000002" y="578.21" type="line"/>
      <point x="194.01000000000002" y="483.2" type="line"/>
      <point x="256.53" y="483.2" type="line"/>
    </contour>
    <contour>
      <point x="98.34000000000002" y="0.0" type="line"/>
      <point x="207.95000000000002" y="0.0" type="line"/>
      <point x="207.95000000000002" y="1331.35" type="line"/>
      <point x="98.34000000000002" y="1331.35" type="line"/>
    </contour>
  </outline>
</glyph>
<glyph name="l" format="2">
  <advance width="315.11"/>
  <unicode hex="006C"/>
  <anchor x="158.32" y="0.0" name="bottom"/>
  <anchor x="158.32" y="667.0" name="center"/>
  <anchor x="158.32" y="1331.35" name="top"/>
  <anchor x="341.69" y="1331.35" name="topright"/>
  <outline>
    <contour>
      <point x="102.75000000000001" y="0.0" type="line"/>
      <point x="212.35999999999999" y="0.0" type="line"/>
      <point x="212.35999999999999" y="1331.35" type="line"/>
      <point x="102.75000000000001" y="1331.35" type="line"/>
    </contour>
  </outline>
</glyph>
<glyph name="m" format="2">
  <advance width="1035.1"/>
  <unicode hex="006D"/>
  <anchor x="517.52" y="0.0" name="bottom"/>
  <anchor x="517.52" y="994.24" name="top"/>
  <outline>
    <contour>
      <point x="834.0899999999999" y="0.0" type="line"/>
      <point x="943.6999999999999" y="0.0" type="line"/>
      <point x="943.6999999999999" y="742.28" type="line" smooth="yes"/>
      <point x="943.6999999999999" y="916.12"/>
      <point x="887.05" y="1007.77"/>
      <point x="756.5699999999999" y="1007.77" type="curve" smooth="yes"/>
      <point x="633.6800000000001" y="1007.77"/>
      <point x="582.33" y="928.0699999999999"/>
      <point x="563.27" y="834.2" type="curve"/>
      <point x="550.44" y="834.2" type="line"/>
      <point x="570.6800000000001" y="747.51" type="line"/>
      <point x="586.97" y="844.78"/>
      <point x="630.1400000000001" y="914.88"/>
      <point x="715.0" y="914.88" type="curve" smooth="yes"/>
      <point x="800.5699999999999" y="914.88"/>
      <point x="834.0899999999999" y="848.66"/>
      <point x="834.0899999999999" y="730.04" type="curve" smooth="yes"/>
    </contour>
    <contour>
      <point x="98.34000000000002" y="0.0" type="line"/>
      <point x="207.95" y="0.0" type="line"/>
      <point x="207.95" y="822.24" type="line"/>
      <point x="202.29999999999998" y="825.42" type="line"/>
      <point x="207.89" y="994.24" type="line"/>
      <point x="98.34000000000002" y="994.24" type="line"/>
    </contour>
    <contour>
      <point x="466.48" y="0.0" type="line"/>
      <point x="575.5600000000001" y="0.0" type="line"/>
      <point x="575.5600000000001" y="739.1" type="line" smooth="yes"/>
      <point x="575.5600000000001" y="768.16"/>
      <point x="572.5" y="792.9300000000001"/>
      <point x="567.44" y="815.52" type="curve"/>
      <point x="551.85" y="941.06"/>
      <point x="496.91" y="1007.77"/>
      <point x="389.96000000000004" y="1007.77" type="curve" smooth="yes"/>
      <point x="275.31000000000006" y="1007.77"/>
      <point x="224.37000000000003" y="931.9"/>
      <point x="204.77999999999997" y="831.38" type="curve"/>
      <point x="175.47" y="831.38" type="line"/>
      <point x="205.42" y="745.1" type="line"/>
      <point x="221.71" y="843.84"/>
      <point x="264.88" y="914.88"/>
      <point x="347.39" y="914.88" type="curve" smooth="yes"/>
      <point x="433.90000000000003" y="914.88"/>
      <point x="466.48" y="848.66"/>
      <point x="466.48" y="730.0400000000001" type="curve" smooth="yes"/>
    </contour>
  </outline>
</glyph>
<glyph name="n" format="2">
  <advance width="689.2500000000001"/>
  <unicode hex="006E"/>
  <anchor x="345.39000000000004" y="0.0" name="bottom"/>
  <anchor x="345.39000000000004" y="994.24" name="top"/>
  <outline>
    <contour>
      <point x="488.24000000000007" y="0.0" type="line"/>
      <point x="597.85" y="0.0" type="line"/>
      <point x="597.85" y="732.58" type="line" smooth="yes"/>
      <point x="597.85" y="913.65"/>
      <point x="537.26" y="1007.77"/>
      <point x="401.8999999999999" y="1007.77" type="curve" smooth="yes"/>
      <point x="283.01" y="1007.77"/>
      <point x="226.31" y="938.01"/>
      <point x="204.77999999999997" y="830.4399999999999" type="curve"/>
      <point x="176.41" y="830.4399999999999" type="line"/>
      <point x="205.42" y="745.16" type="line"/>
      <point x="224.59" y="850.89"/>
      <point x="272.58" y="914.88"/>
      <point x="357.73999999999995" y="914.88" type="curve" smooth="yes"/>
      <point x="452.72" y="914.88"/>
      <point x="488.24000000000007" y="846.1899999999999"/>
      <point x="488.24000000000007" y="719.98" type="curve" smooth="yes"/>
    </contour>
    <contour>
      <point x="98.34000000000002" y="0.0" type="line"/>
      <point x="207.95" y="0.0" type="line"/>
      <point x="207.95" y="824.12" type="line"/>
      <point x="202.29999999999998" y="827.83" type="line"/>
      <point x="207.89" y="994.24" type="line"/>
      <point x="98.34000000000002" y="994.24" type="line"/>
    </contour>
  </outline>
</glyph>
<glyph name="o" format="2">
  <advance width="665.31"/>
  <unicode hex="006F"/>
  <anchor x="332.91999999999996" y="0.0" name="bottom"/>
  <anchor x="332.9200000000001" y="497.12" name="center"/>
  <anchor x="488.47999999999996" y="2.6500000000000004" name="ogonek"/>
  <anchor x="332.91999999999996" y="994.24" name="top"/>
  <anchor x="605.1" y="994.24" name="topright"/>
  <outline>
    <contour>
      <point x="332.91999999999996" y="-15.12" type="curve" smooth="yes"/>
      <point x="501.01" y="-15.12"/>
      <point x="586.91" y="89.60000000000001"/>
      <point x="586.91" y="285.79999999999995" type="curve"/>
      <point x="586.91" y="708.97" type="line"/>
      <point x="586.91" y="905.17"/>
      <point x="501.01" y="1009.3599999999999"/>
      <point x="332.91999999999996" y="1009.3599999999999" type="curve" smooth="yes"/>
      <point x="164.3" y="1009.3599999999999"/>
      <point x="78.39999999999999" y="905.17"/>
      <point x="78.39999999999999" y="708.97" type="curve"/>
      <point x="78.39999999999999" y="285.79999999999995" type="line"/>
      <point x="78.39999999999999" y="89.60000000000001"/>
      <point x="164.29999999999998" y="-15.12"/>
    </contour>
    <contour>
      <point x="332.91999999999996" y="76.71" type="curve" smooth="yes"/>
      <point x="232.41" y="76.71"/>
      <point x="188.01" y="145.52"/>
      <point x="188.01" y="278.91" type="curve" smooth="yes"/>
      <point x="188.01" y="715.86" type="line" smooth="yes"/>
      <point x="188.01" y="849.25"/>
      <point x="232.41" y="917.53"/>
      <point x="332.91999999999996" y="917.53" type="curve" smooth="yes"/>
      <point x="432.90000000000003" y="917.53"/>
      <point x="477.29999999999995" y="849.25"/>
      <point x="477.29999999999995" y="715.86" type="curve" smooth="yes"/>
      <point x="477.29999999999995" y="278.91" type="line" smooth="yes"/>
      <point x="477.29999999999995" y="145.52"/>
      <point x="432.9" y="76.71"/>
    </contour>
  </outline>
</glyph>
<glyph name="p" format="2">
  <advance width="682.72"/>
  <unicode hex="0070"/>
  <anchor x="341.85999999999996" y="0.0" name="bottom"/>
  <anchor x="341.85999999999996" y="994.24" name="top"/>
  <outline>
    <contour>
      <point x="392.78" y="-13.53" type="curve" smooth="yes"/>
      <point x="539.7900000000001" y="-13.53"/>
      <point x="603.79" y="93.60000000000001"/>
      <point x="603.79" y="294.51000000000005" type="curve" smooth="yes"/>
      <point x="603.79" y="704.61" type="line" smooth="yes"/>
      <point x="603.79" y="903.05"/>
      <point x="540.26" y="1007.77"/>
      <point x="395.5400000000001" y="1007.77" type="curve" smooth="yes"/>
      <point x="278.65999999999997" y="1007.77"/>
      <point x="224.31" y="932.8399999999999"/>
      <point x="203.83999999999997" y="831.85" type="curve"/>
      <point x="177.59" y="831.85" type="line"/>
      <point x="202.89" y="748.75" type="line"/>
      <point x="222.12000000000003" y="846.43"/>
      <point x="267.76000000000005" y="917.0"/>
      <point x="357.21" y="917.0" type="curve" smooth="yes"/>
      <point x="455.18999999999994" y="917.0"/>
      <point x="494.18000000000006" y="845.13"/>
      <point x="494.18000000000006" y="711.09" type="curve" smooth="yes"/>
      <point x="494.18000000000006" y="289.74" type="line" smooth="yes"/>
      <point x="494.18000000000006" y="152.70000000000002"/>
      <point x="451.78000000000003" y="79.36"/>
      <point x="356.2099999999999" y="79.36" type="curve" smooth="yes"/>
      <point x="258.64" y="79.36"/>
      <point x="208.23999999999998" y="157.23"/>
      <point x="204.89" y="277.74" type="curve"/>
      <point x="168.35000000000002" y="174.60999999999999" type="line"/>
      <point x="204.49" y="174.60999999999999" type="line"/>
      <point x="218.03000000000003" y="68.04"/>
      <point x="274.67" y="-13.53"/>
    </contour>
    <contour>
      <point x="98.34000000000002" y="-350.0" type="line"/>
      <point x="207.42000000000002" y="-350.0" type="line"/>
      <point x="207.42000000000002" y="-32.900000000000006" type="line"/>
      <point x="203.42000000000002" y="178.13" type="line"/>
      <point x="204.89" y="200.14" type="line"/>
      <point x="204.89" y="790.6300000000001" type="line"/>
      <point x="201.23999999999998" y="797.51" type="line"/>
      <point x="207.89" y="994.24" type="line"/>
      <point x="98.34000000000002" y="994.24" type="line"/>
    </contour>
  </outline>
</glyph>
<glyph name="q" format="2">
  <advance width="682.72"/>
  <unicode hex="0071"/>
  <anchor x="341.33" y="0.0" name="bottom"/>
  <anchor x="341.33" y="994.24" name="top"/>
  <outline>
    <contour>
      <point x="287.18" y="-13.53" type="curve" smooth="yes"/>
      <point x="400.18" y="-13.53"/>
      <point x="456.82000000000005" y="56.699999999999996"/>
      <point x="477.28999999999996" y="163.79999999999998" type="curve"/>
      <point x="502.07" y="163.79999999999998" type="line"/>
      <point x="479.83000000000004" y="248.55" type="line"/>
      <point x="460.12999999999994" y="143.35000000000002"/>
      <point x="411.67" y="79.36"/>
      <point x="326.03999999999996" y="79.36" type="curve" smooth="yes"/>
      <point x="227.53000000000003" y="79.36"/>
      <point x="188.54" y="152.17000000000002"/>
      <point x="188.54" y="287.62" type="curve" smooth="yes"/>
      <point x="188.54" y="706.15" type="line" smooth="yes"/>
      <point x="188.54" y="843.6600000000001"/>
      <point x="230.94000000000003" y="917.0"/>
      <point x="326.51" y="917.0" type="curve" smooth="yes"/>
      <point x="423.60999999999996" y="917.0"/>
      <point x="471.89" y="840.7199999999999"/>
      <point x="477.83" y="718.62" type="curve"/>
      <point x="507.37000000000006" y="819.63" type="line"/>
      <point x="479.82000000000005" y="819.63" type="line"/>
      <point x="465.81" y="926.1999999999999"/>
      <point x="410.16999999999996" y="1007.77"/>
      <point x="290.47" y="1007.77" type="curve" smooth="yes"/>
      <point x="142.92999999999998" y="1007.77"/>
      <point x="78.92999999999999" y="900.64"/>
      <point x="78.92999999999999" y="699.26" type="curve" smooth="yes"/>
      <point x="78.92999999999999" y="292.45" type="line" smooth="yes"/>
      <point x="78.92999999999999" y="92.13"/>
      <point x="142.45999999999998" y="-13.53"/>
    </contour>
    <contour>
      <point x="475.3" y="-350.0" type="line"/>
      <point x="584.38" y="-350.0" type="line"/>
      <point x="584.38" y="994.24" type="line"/>
      <point x="474.83000000000004" y="994.24" type="line"/>
      <point x="481.48" y="805.5" type="line"/>
      <point x="477.83" y="785.46" type="line"/>
      <point x="477.83" y="203.42999999999998" type="line"/>
      <point x="479.3" y="181.42000000000002" type="line"/>
      <point x="475.3" y="-32.900000000000006" type="line"/>
    </contour>
  </outline>
</glyph>
<glyph name="r" format="2">
  <advance width="451.34999999999997"/>
  <unicode hex="0072"/>
  <anchor x="154.38" y="0.0" name="bottom"/>
  <anchor x="261.14" y="994.24" name="top"/>
  <outline>
    <contour>
      <point x="205.48" y="652.08" type="line"/>
      <point x="220.89" y="805.34"/>
      <point x="293.83" y="883.97"/>
      <point x="394.0" y="883.97" type="curve" smooth="yes"/>
      <point x="411.53" y="883.97"/>
      <point x="427.0" y="881.97"/>
      <point x="438.93999999999994" y="879.5" type="curve"/>
      <point x="433.34999999999997" y="999.3" type="line"/>
      <point x="422.34999999999997" y="1001.24"/>
      <point x="411.06" y="1002.71"/>
      <point x="398.24" y="1002.71" type="curve" smooth="yes"/>
      <point x="278.42" y="1002.71"/>
      <point x="212.14" y="909.8499999999999"/>
      <point x="200.66" y="761.94" type="curve"/>
      <point x="174.7" y="761.94" type="line"/>
    </contour>
    <contour>
      <point x="98.34000000000002" y="0.0" type="line"/>
      <point x="207.95" y="0.0" type="line"/>
      <point x="207.95" y="734.16" type="line"/>
      <point x="196.59" y="755.8800000000001" type="line"/>
      <point x="204.24" y="994.24" type="line"/>
      <point x="98.34000000000002" y="994.24" type="line"/>
    </contour>
  </outline>
</glyph>
<glyph name="s" format="2">
  <advance width="519.41"/>
  <unicode hex="0073"/>
  <anchor x="254.44000000000003" y="0.0" name="bottom"/>
  <anchor x="253.38" y="994.24" name="top"/>
  <outline>
    <contour>
      <point x="240.26" y="-13.530000000000001" type="curve" smooth="yes"/>
      <point x="389.94" y="-13.530000000000001"/>
      <point x="468.01" y="79.36"/>
      <point x="468.01" y="235.20000000000002" type="curve" smooth="yes"/>
      <point x="468.01" y="275.59999999999997" type="line" smooth="yes"/>
      <point x="468.01" y="407.08"/>
      <point x="425.0" y="469.55"/>
      <point x="300.18" y="544.67" type="curve" smooth="yes"/>
      <point x="196.66" y="607.0799999999999"/>
      <point x="157.42000000000002" y="647.01"/>
      <point x="157.42000000000002" y="744.28" type="curve" smooth="yes"/>
      <point x="157.42000000000002" y="765.86" type="line" smooth="yes"/>
      <point x="157.42000000000002" y="858.07"/>
      <point x="197.06000000000003" y="911.82"/>
      <point x="285.05" y="911.82" type="curve" smooth="yes"/>
      <point x="354.7" y="911.82"/>
      <point x="404.06" y="883.29"/>
      <point x="456.06" y="842.12" type="curve"/>
      <point x="447.34999999999997" y="945.01" type="line"/>
      <point x="407.10999999999996" y="979.4200000000001"/>
      <point x="351.09999999999997" y="1007.77"/>
      <point x="270.15" y="1007.77" type="curve" smooth="yes"/>
      <point x="125.29999999999998" y="1007.77"/>
      <point x="50.459999999999994" y="920.9399999999999"/>
      <point x="50.459999999999994" y="772.22" type="curve" smooth="yes"/>
      <point x="50.459999999999994" y="747.4" type="line" smooth="yes"/>
      <point x="50.459999999999994" y="614.05"/>
      <point x="94.58" y="548.16"/>
      <point x="219.52" y="474.57" type="curve" smooth="yes"/>
      <point x="347.63" y="399.16"/>
      <point x="360.52000000000004" y="350.12"/>
      <point x="360.52000000000004" y="272.65999999999997" type="curve" smooth="yes"/>
      <point x="360.52000000000004" y="237.32" type="line" smooth="yes"/>
      <point x="360.52000000000004" y="141.17"/>
      <point x="317.53000000000003" y="84.54"/>
      <point x="228.54" y="84.54" type="curve" smooth="yes"/>
      <point x="160.65" y="84.54"/>
      <point x="103.87999999999998" y="112.6"/>
      <point x="48.169999999999995" y="153.48000000000002" type="curve"/>
      <point x="56.879999999999995" y="44.82000000000001" type="line"/>
      <point x="96.77000000000001" y="15.349999999999998"/>
      <point x="161.66" y="-13.530000000000001"/>
    </contour>
  </outline>
</glyph>
<glyph name="t" format="2">
  <advance width="477.69"/>
  <unicode hex="0074"/>
  <anchor x="288.19" y="0.0" name="bottom"/>
  <anchor x="239.08" y="497.12" name="center"/>
  <anchor x="186.03" y="1228.76" name="top"/>
  <anchor x="357.26" y="1411.01" name="topright"/>
  <outline>
    <contour>
      <point x="318.61" y="-12.059999999999999" type="curve" smooth="yes"/>
      <point x="369.15000000000003" y="-12.059999999999999"/>
      <point x="417.33000000000004" y="-0.05999999999999961"/>
      <point x="449.09999999999997" y="16.940000000000005" type="curve"/>
      <point x="457.81" y="116.89000000000001" type="line"/>
      <point x="425.93000000000006" y="100.07000000000001"/>
      <point x="390.11" y="88.66000000000001"/>
      <point x="349.76" y="88.66000000000001" type="curve" smooth="yes"/>
      <point x="268.71" y="88.66000000000001"/>
      <point x="235.89" y="125.70999999999998"/>
      <point x="235.89" y="216.7" type="curve" smooth="yes"/>
      <point x="235.89" y="955.77" type="line"/>
      <point x="127.87" y="955.77" type="line"/>
      <point x="127.87" y="192.67999999999998" type="line" smooth="yes"/>
      <point x="127.87" y="58.00999999999999"/>
      <point x="187.88000000000002" y="-12.059999999999999"/>
    </contour>
    <contour>
      <point x="17.88" y="891.24" type="line"/>
      <point x="427.93" y="891.24" type="line"/>
      <point x="436.64" y="981.01" type="line"/>
      <point x="17.88" y="981.01" type="line"/>
    </contour>
    <contour>
      <point x="128.93" y="967.42" type="line"/>
      <point x="232.29999999999998" y="967.42" type="line"/>
      <point x="237.42000000000002" y="1251.47" type="line"/>
      <point x="128.92999999999998" y="1230.64" type="line"/>
    </contour>
  </outline>
</glyph>
<glyph name="u" format="2">
  <advance width="689.2500000000001"/>
  <unicode hex="0075"/>
  <anchor x="345.39" y="0.0" name="bottom"/>
  <anchor x="629.96" y="0.0" name="ogonek"/>
  <anchor x="345.39" y="994.24" name="top"/>
  <anchor x="674.4299999999998" y="994.24" name="topright"/>
  <outline>
    <contour>
      <point x="201.01" y="994.24" type="line"/>
      <point x="91.39999999999999" y="994.24" type="line"/>
      <point x="91.39999999999999" y="261.65999999999997" type="line" smooth="yes"/>
      <point x="91.39999999999999" y="80.59"/>
      <point x="151.99" y="-13.53"/>
      <point x="287.35" y="-13.53" type="curve" smooth="yes"/>
      <point x="406.23999999999995" y="-13.53"/>
      <point x="462.93999999999994" y="56.23"/>
      <point x="484.46999999999997" y="163.79999999999998" type="curve"/>
      <point x="512.84" y="163.79999999999998" type="line"/>
      <point x="483.83" y="249.08" type="line"/>
      <point x="464.65999999999997" y="143.35000000000002"/>
      <point x="416.66999999999996" y="79.36"/>
      <point x="331.51" y="79.36" type="curve" smooth="yes"/>
      <point x="236.53" y="79.36"/>
      <point x="201.01" y="148.04999999999998"/>
      <point x="201.01" y="274.26" type="curve" smooth="yes"/>
    </contour>
    <contour>
      <point x="590.91" y="994.24" type="line"/>
      <point x="481.29999999999995" y="994.24" type="line"/>
      <point x="481.29999999999995" y="170.12" type="line"/>
      <point x="486.95" y="166.41" type="line"/>
      <point x="481.35999999999996" y="0.0" type="line"/>
      <point x="590.91" y="0.0" type="line"/>
    </contour>
  </outline>
</glyph>
<glyph name="v" format="2">
  <advance width="632.19"/>
  <unicode hex="0076"/>
  <anchor x="316.33" y="0.0" name="bottom"/>
  <anchor x="316.33" y="994.24" name="top"/>
  <outline>
    <contour>
      <point x="323.39" y="79.11" type="line"/>
      <point x="308.8" y="79.11" type="line"/>
      <point x="155.54" y="994.24" type="line"/>
      <point x="44.46" y="994.24" type="line"/>
      <point x="224.61999999999998" y="0.0" type="line"/>
      <point x="407.56999999999994" y="0.0" type="line"/>
      <point x="587.73" y="994.24" type="line"/>
      <point x="476.65000000000003" y="994.24" type="line"/>
    </contour>
  </outline>
</glyph>
<glyph name="w" format="2">
  <advance width="985.86"/>
  <unicode hex="0077"/>
  <anchor x="492.93" y="0.0" name="bottom"/>
  <anchor x="492.93" y="994.24" name="top"/>
  <outline>
    <contour>
      <point x="193.03000000000003" y="0.0" type="line"/>
      <point x="369.03" y="0.0" type="line"/>
      <point x="462.28000000000003" y="660.92" type="line"/>
      <point x="488.40000000000003" y="882.77" type="line"/>
      <point x="497.99" y="882.77" type="line"/>
      <point x="524.58" y="660.9200000000001" type="line"/>
      <point x="617.83" y="0.0" type="line"/>
      <point x="793.36" y="0.0" type="line"/>
      <point x="935.93" y="994.24" type="line"/>
      <point x="828.56" y="994.24" type="line"/>
      <point x="709.24" y="82.29" type="line"/>
      <point x="697.1800000000001" y="82.29" type="line"/>
      <point x="570.9799999999999" y="967.42" type="line"/>
      <point x="415.41" y="967.42" type="line"/>
      <point x="289.67999999999995" y="82.29" type="line"/>
      <point x="277.62" y="82.29" type="line"/>
      <point x="159.42" y="994.24" type="line"/>
      <point x="49.93" y="994.24" type="line"/>
    </contour>
  </outline>
</glyph>
<glyph name="x" format="2">
  <advance width="606.0799999999999"/>
  <unicode hex="0078"/>
  <anchor x="303.03999999999996" y="0.0" name="bottom"/>
  <anchor x="303.03999999999996" y="994.24" name="top"/>
  <outline>
    <contour>
      <point x="44.87" y="0.0" type="line"/>
      <point x="155.42000000000002" y="0.0" type="line"/>
      <point x="298.98" y="462.55" type="line"/>
      <point x="307.63" y="462.55" type="line"/>
      <point x="450.66" y="0.0" type="line"/>
      <point x="561.21" y="0.0" type="line"/>
      <point x="384.75" y="543.66" type="line"/>
      <point x="384.75" y="499.93" type="line"/>
      <point x="557.74" y="994.24" type="line"/>
      <point x="448.18999999999994" y="994.24" type="line"/>
      <point x="307.63" y="570.6800000000001" type="line"/>
      <point x="298.98" y="570.6800000000001" type="line"/>
      <point x="157.89000000000001" y="994.24" type="line"/>
      <point x="48.339999999999996" y="994.24" type="line"/>
      <point x="221.33" y="499.93" type="line"/>
      <point x="221.33" y="543.6600000000001" type="line"/>
    </contour>
  </outline>
</glyph>
<glyph name="y" format="2">
  <advance width="631.66"/>
  <unicode hex="0079"/>
  <anchor x="493.63000000000005" y="-17.95" name="bottom"/>
  <anchor x="316.33" y="994.24" name="top"/>
  <outline>
    <contour>
      <point x="368.13" y="124.87" type="line"/>
      <point x="305.61999999999995" y="124.87" type="line"/>
      <point x="155.54" y="994.24" type="line"/>
      <point x="44.46" y="994.24" type="line"/>
      <point x="224.62" y="43.64" type="line"/>
      <point x="358.36" y="43.64" type="line"/>
      <point x="306.67" y="82.84" type="line"/>
      <point x="222.79" y="-350.0" type="line"/>
      <point x="328.21999999999997" y="-350.0" type="line"/>
      <point x="587.2" y="994.24" type="line"/>
      <point x="476.11999999999995" y="994.24" type="line"/>
      <point x="317.15" y="114.28" type="line"/>
    </contour>
  </outline>
</glyph>
<glyph name="z" format="2">
  <advance width="541.47"/>
  <unicode hex="007A"/>
  <anchor x="269.5" y="0.0" name="bottom"/>
  <anchor x="270.96999999999997" y="497.12" name="center"/>
  <anchor x="269.5" y="994.24" name="top"/>
  <outline>
    <contour>
      <point x="481.94999999999993" y="96.07000000000001" type="line"/>
      <point x="170.25" y="96.07000000000001" type="line"/>
      <point x="480.89" y="906.0" type="line"/>
      <point x="480.89" y="994.24" type="line"/>
      <point x="59.11000000000001" y="994.24" type="line"/>
      <point x="59.11000000000001" y="899.23" type="line"/>
      <point x="368.15999999999997" y="899.23" type="line"/>
      <point x="58.050000000000004" y="89.3" type="line"/>
      <point x="58.050000000000004" y="0.0" type="line"/>
      <point x="481.94999999999993" y="0.0" type="line"/>
    </contour>
  </outline>
</glyph>
<glyph name="braceleft" format="2">
  <advance width="483.39"/>
  <unicode hex="007B"/>
  <outline>
    <contour>
      <point x="451.39000000000004" y="1337.0600000000002" type="line"/>
      <point x="416.56" y="1348.59"/>
      <point x="384.32000000000005" y="1355.59"/>
      <point x="346.79" y="1355.59" type="curve" smooth="yes"/>
      <point x="220.35" y="1355.59"/>
      <point x="158.57" y="1284.17"/>
      <point x="158.57" y="1130.14" type="curve" smooth="yes"/>
      <point x="158.57" y="1024.22"/>
      <point x="172.1" y="864.0500000000001"/>
      <point x="172.1" y="780.42" type="curve" smooth="yes"/>
      <point x="172.1" y="672.73"/>
      <point x="143.1" y="621.68"/>
      <point x="49.63999999999999" y="611.74" type="curve"/>
      <point x="49.63999999999999" y="504.26" type="line"/>
      <point x="143.1" y="493.85"/>
      <point x="172.1" y="443.73999999999995"/>
      <point x="172.1" y="336.05" type="curve" smooth="yes"/>
      <point x="172.1" y="254.42"/>
      <point x="158.57" y="90.78"/>
      <point x="158.57" y="-18.61" type="curve" smooth="yes"/>
      <point x="158.57" y="-172.17"/>
      <point x="221.29000000000002" y="-244.06"/>
      <point x="346.79" y="-244.06" type="curve" smooth="yes"/>
      <point x="384.32000000000005" y="-244.06"/>
      <point x="416.56" y="-237.05999999999997"/>
      <point x="451.39000000000004" y="-225.06" type="curve"/>
      <point x="451.39000000000004" y="-137.53" type="line"/>
      <point x="430.45" y="-146.41"/>
      <point x="403.15999999999997" y="-153.29"/>
      <point x="372.11" y="-153.29" type="curve" smooth="yes"/>
      <point x="298.82" y="-153.29"/>
      <point x="266.05999999999995" y="-108.58999999999999"/>
      <point x="266.05999999999995" y="-10.249999999999996" type="curve" smooth="yes"/>
      <point x="266.05999999999995" y="81.49000000000001"/>
      <point x="279.06" y="244.07"/>
      <point x="279.06" y="336.46000000000004" type="curve" smooth="yes"/>
      <point x="279.06" y="463.64"/>
      <point x="244.23999999999998" y="537.35"/>
      <point x="130.64000000000001" y="557.41" type="curve"/>
      <point x="138.41" y="534.98" type="line"/>
      <point x="138.41" y="561.12" type="line"/>
      <point x="240.76999999999998" y="581.3000000000001"/>
      <point x="279.06" y="650.89"/>
      <point x="279.06" y="779.54" type="curve" smooth="yes"/>
      <point x="279.06" y="870.4"/>
      <point x="266.05999999999995" y="1030.98"/>
      <point x="266.05999999999995" y="1121.7800000000002" type="curve" smooth="yes"/>
      <point x="266.05999999999995" y="1220.12"/>
      <point x="298.82" y="1264.82"/>
      <point x="372.11" y="1264.82" type="curve" smooth="yes"/>
      <point x="403.16" y="1264.82"/>
      <point x="430.45" y="1257.94"/>
      <point x="451.39000000000004" y="1249.0600000000002" type="curve"/>
    </contour>
  </outline>
</glyph>
<glyph name="bar" format="2">
  <advance width="357.69"/>
  <unicode hex="007C"/>
  <outline>
    <contour>
      <point x="229.47" y="-426.99" type="line"/>
      <point x="229.47" y="1426.0" type="line"/>
      <point x="128.22" y="1426.0" type="line"/>
      <point x="128.22" y="-426.99" type="line"/>
    </contour>
  </outline>
</glyph>
<glyph name="braceright" format="2">
  <advance width="483.39"/>
  <unicode hex="007D"/>
  <outline>
    <contour>
      <point x="31.999999999999996" y="1337.0600000000002" type="curve"/>
      <point x="31.999999999999996" y="1249.0600000000002" type="line"/>
      <point x="52.940000000000005" y="1257.94"/>
      <point x="80.22999999999999" y="1264.82"/>
      <point x="111.28" y="1264.82" type="curve" smooth="yes"/>
      <point x="184.57000000000002" y="1264.82"/>
      <point x="217.33" y="1220.12"/>
      <point x="217.33" y="1121.7800000000002" type="curve" smooth="yes"/>
      <point x="217.33" y="1030.98"/>
      <point x="204.32999999999998" y="870.4"/>
      <point x="204.32999999999998" y="779.54" type="curve" smooth="yes"/>
      <point x="204.32999999999998" y="650.89"/>
      <point x="242.62" y="581.3000000000001"/>
      <point x="344.98" y="561.12" type="curve"/>
      <point x="344.98" y="534.98" type="line"/>
      <point x="352.75" y="557.41" type="line"/>
      <point x="239.15" y="537.35"/>
      <point x="204.32999999999998" y="463.64"/>
      <point x="204.32999999999998" y="336.46000000000004" type="curve" smooth="yes"/>
      <point x="204.32999999999998" y="244.07"/>
      <point x="217.33" y="81.49000000000001"/>
      <point x="217.33" y="-10.249999999999996" type="curve" smooth="yes"/>
      <point x="217.33" y="-108.58999999999999"/>
      <point x="184.57000000000002" y="-153.29"/>
      <point x="111.28" y="-153.29" type="curve" smooth="yes"/>
      <point x="80.22999999999999" y="-153.29"/>
      <point x="52.940000000000005" y="-146.41"/>
      <point x="31.999999999999996" y="-137.53" type="curve"/>
      <point x="31.999999999999996" y="-225.06" type="line"/>
      <point x="66.83000000000001" y="-237.05999999999997"/>
      <point x="99.07" y="-244.06"/>
      <point x="136.6" y="-244.06" type="curve" smooth="yes"/>
      <point x="262.1" y="-244.06"/>
      <point x="324.82" y="-172.17"/>
      <point x="324.82" y="-18.61" type="curve" smooth="yes"/>
      <point x="324.82" y="90.78"/>
      <point x="311.29" y="254.42"/>
      <point x="311.29" y="336.05" type="curve" smooth="yes"/>
      <point x="311.29" y="443.73999999999995"/>
      <point x="340.28999999999996" y="493.85"/>
      <point x="433.74999999999994" y="504.26" type="curve"/>
      <point x="433.74999999999994" y="611.74" type="line"/>
      <point x="340.28999999999996" y="621.68"/>
      <point x="311.29" y="672.73"/>
      <point x="311.29" y="780.42" type="curve" smooth="yes"/>
      <point x="311.29" y="864.0500000000001"/>
      <point x="324.82" y="1024.22"/>
      <point x="324.82" y="1130.14" type="curve" smooth="yes"/>
      <point x="324.82" y="1284.17"/>
      <point x="263.03999999999996" y="1355.59"/>
      <point x="136.6" y="1355.59" type="curve" smooth="yes"/>
      <point x="99.07" y="1355.59"/>
      <point x="66.83000000000001" y="1348.59"/>
    </contour>
  </outline>
</glyph>
<glyph name="asciitilde" format="2">
  <advance width="764.51"/>
  <unicode hex="007E"/>
  <outline>
    <contour>
      <point x="523.3199999999999" y="540.1" type="curve" smooth="yes"/>
      <point x="623.11" y="540.1"/>
      <point x="665.94" y="600.06"/>
      <point x="665.94" y="709.03" type="curve" smooth="yes"/>
      <point x="665.94" y="739.92" type="line"/>
      <point x="580.5899999999999" y="739.92" type="line"/>
      <point x="580.5899999999999" y="720.0400000000001" type="line" smooth="yes"/>
      <point x="580.5899999999999" y="666.0500000000001"/>
      <point x="562.48" y="635.6999999999999"/>
      <point x="516.25" y="635.6999999999999" type="curve" smooth="yes"/>
      <point x="437.91" y="635.6999999999999"/>
      <point x="342.25" y="724.4499999999999"/>
      <point x="240.66" y="724.4499999999999" type="curve" smooth="yes"/>
      <point x="140.87" y="724.4499999999999"/>
      <point x="98.03999999999998" y="662.37"/>
      <point x="98.03999999999998" y="553.5200000000001" type="curve" smooth="yes"/>
      <point x="98.03999999999998" y="523.22" type="line"/>
      <point x="182.45" y="523.22" type="line"/>
      <point x="182.45" y="541.9799999999999" type="line" smooth="yes"/>
      <point x="182.45" y="596.38"/>
      <point x="201.03" y="628.85"/>
      <point x="247.73" y="628.85" type="curve" smooth="yes"/>
      <point x="327.72" y="628.85"/>
      <point x="419.84999999999997" y="540.1"/>
    </contour>
  </outline>
</glyph>
<glyph name="exclamdown" format="2">
  <advance width="342.51"/>
  <unicode hex="00A1"/>
  <outline>
    <contour>
      <point x="214.64" y="623.46" type="line"/>
      <point x="127.87" y="623.46" type="line"/>
      <point x="112.85999999999999" y="-283.76000000000005" type="line"/>
      <point x="229.65" y="-283.76000000000005" type="line"/>
    </contour>
    <contour>
      <point x="172.08" y="1008.01" type="curve" smooth="yes"/>
      <point x="126.76" y="1008.01"/>
      <point x="108.10000000000001" y="976.76"/>
      <point x="108.10000000000001" y="916.15" type="curve" smooth="yes"/>
      <point x="108.10000000000001" y="899.62" type="line" smooth="yes"/>
      <point x="108.10000000000001" y="840.01"/>
      <point x="126.76" y="808.29"/>
      <point x="172.08" y="808.29" type="curve" smooth="yes"/>
      <point x="215.81" y="808.29"/>
      <point x="236.53" y="840.01"/>
      <point x="236.53" y="899.62" type="curve" smooth="yes"/>
      <point x="236.53" y="916.15" type="line" smooth="yes"/>
      <point x="236.53" y="976.76"/>
      <point x="215.81" y="1008.01"/>
    </contour>
  </outline>
</glyph>
<glyph name="cent" format="2">
  <advance width="514.11"/>
  <unicode hex="00A2"/>
  <anchor x="289.85" y="0.0" name="bottom"/>
  <anchor x="289.85" y="994.24" name="top"/>
  <outline>
    <contour>
      <point x="344.77000000000004" y="958.09" type="line"/>
      <point x="344.77000000000004" y="1162.35" type="line"/>
      <point x="248.82000000000002" y="1162.35" type="line"/>
      <point x="248.82000000000002" y="958.09" type="line"/>
    </contour>
    <contour>
      <point x="344.77000000000004" y="-179.70000000000002" type="line"/>
      <point x="344.77000000000004" y="31.970000000000002" type="line"/>
      <point x="248.82000000000002" y="31.970000000000002" type="line"/>
      <point x="248.82000000000002" y="-179.70000000000002" type="line"/>
    </contour>
    <component base="c"/>
  </outline>
</glyph>
<glyph name="sterling" format="2">
  <advance width="617.4000000000001"/>
  <unicode hex="00A3"/>
  <outline>
    <contour>
      <point x="54.699999999999996" y="618.21" type="line"/>
      <point x="505.23" y="618.21" type="line"/>
      <point x="512.8199999999999" y="708.39" type="line"/>
      <point x="61.82" y="708.39" type="line"/>
    </contour>
    <contour>
      <point x="162.24" y="101.25000000000001" type="line"/>
      <point x="162.24" y="105.37" type="line"/>
      <point x="254.06000000000003" y="176.64"/>
      <point x="293.84000000000003" y="286.54"/>
      <point x="293.84000000000003" y="472.97" type="curve" smooth="yes"/>
      <point x="293.84000000000003" y="624.9399999999999"/>
      <point x="252.36999999999998" y="843.39"/>
      <point x="252.36999999999998" y="994.2" type="curve" smooth="yes"/>
      <point x="252.36999999999998" y="1126.24"/>
      <point x="295.78000000000003" y="1193.93"/>
      <point x="400.12000000000006" y="1193.93" type="curve" smooth="yes"/>
      <point x="449.47" y="1193.93"/>
      <point x="494.93999999999994" y="1184.52"/>
      <point x="544.82" y="1162.23" type="curve"/>
      <point x="536.11" y="1261.24" type="line"/>
      <point x="498.28000000000003" y="1279.71"/>
      <point x="438.57" y="1295.1200000000001"/>
      <point x="378.27" y="1295.1200000000001" type="curve" smooth="yes"/>
      <point x="209.36" y="1295.1200000000001"/>
      <point x="139.17" y="1196.88"/>
      <point x="139.17" y="1006.39" type="curve" smooth="yes"/>
      <point x="139.17" y="848.76"/>
      <point x="181.11" y="643.48"/>
      <point x="181.11" y="472.44" type="curve" smooth="yes"/>
      <point x="181.10999999999999" y="287.73"/>
      <point x="151.4" y="182.89000000000001"/>
      <point x="60.0" y="96.19" type="curve" smooth="yes"/>
      <point x="59.99999999999999" y="96.19" type="line"/>
      <point x="59.99999999999999" y="0.0" type="line"/>
      <point x="565.35" y="0.0" type="line"/>
      <point x="565.35" y="101.25000000000001" type="line"/>
    </contour>
  </outline>
</glyph>
<glyph name="currency" format="2">
  <advance width="692.87"/>
  <unicode hex="00A4"/>
  <outline>
    <contour>
      <point x="346.17" y="277.46" type="curve" smooth="yes"/>
      <point x="502.14" y="277.46"/>
      <point x="583.8" y="378.46999999999997"/>
      <point x="583.8" y="567.7800000000001" type="curve" smooth="yes"/>
      <point x="583.8" y="665.11" type="line" smooth="yes"/>
      <point x="583.8" y="853.89"/>
      <point x="502.14" y="954.9"/>
      <point x="346.17" y="954.9" type="curve" smooth="yes"/>
      <point x="190.20000000000002" y="954.9"/>
      <point x="108.53999999999999" y="853.89"/>
      <point x="108.53999999999999" y="665.11" type="curve" smooth="yes"/>
      <point x="108.53999999999999" y="567.7800000000001" type="line" smooth="yes"/>
      <point x="108.53999999999999" y="378.46999999999997"/>
      <point x="190.20000000000002" y="277.46"/>
    </contour>
    <contour>
      <point x="346.17" y="361.34" type="curve" smooth="yes"/>
      <point x="253.00999999999996" y="361.34"/>
      <point x="207.54999999999998" y="430.15"/>
      <point x="207.54999999999998" y="564.6" type="curve" smooth="yes"/>
      <point x="207.54999999999998" y="668.29" type="line" smooth="yes"/>
      <point x="207.54999999999998" y="802.74"/>
      <point x="253.00999999999996" y="871.55"/>
      <point x="346.17" y="871.55" type="curve" smooth="yes"/>
      <point x="439.33000000000004" y="871.55"/>
      <point x="483.73" y="802.2099999999999"/>
      <point x="484.26000000000005" y="668.29" type="curve" smooth="yes"/>
      <point x="484.79" y="564.6" type="line" smooth="yes"/>
      <point x="485.32000000000005" y="430.15"/>
      <point x="439.33000000000004" y="361.34"/>
    </contour>
    <contour>
      <point x="519.74" y="394.97999999999996" type="line"/>
      <point x="455.58" y="334.40999999999997" type="line"/>
      <point x="582.8900000000001" y="143.98999999999998" type="line"/>
      <point x="653.76" y="194.85" type="line"/>
    </contour>
    <contour>
      <point x="241.41" y="341.0" type="line"/>
      <point x="175.07000000000002" y="397.33" type="line"/>
      <point x="39.11000000000001" y="194.85" type="line"/>
      <point x="109.44999999999999" y="143.98999999999998" type="line"/>
    </contour>
    <contour>
      <point x="172.01" y="836.4399999999999" type="line"/>
      <point x="238.29" y="891.89" type="line"/>
      <point x="108.97999999999999" y="1085.25" type="line"/>
      <point x="39.11000000000001" y="1035.3899999999999" type="line"/>
    </contour>
    <contour>
      <point x="450.4" y="887.18" type="line"/>
      <point x="514.56" y="828.0799999999999" type="line"/>
      <point x="653.23" y="1035.3899999999999" type="line"/>
      <point x="583.36" y="1085.25" type="line"/>
    </contour>
  </outline>
</glyph>
<glyph name="yen" format="2">
  <advance width="696.6999999999999"/>
  <unicode hex="00A5"/>
  <anchor x="345.44000000000005" y="0.0" name="bottom"/>
  <anchor x="345.44000000000005" y="1278.0" name="top"/>
  <anchor x="44.519999999999996" y="1278.0" name="topleft"/>
  <outline>
    <contour>
      <point x="389.09000000000003" y="558.08" type="line"/>
      <point x="603.65" y="558.08" type="line"/>
      <point x="611.24" y="647.38" type="line"/>
      <point x="409.03999999999996" y="647.38" type="line"/>
    </contour>
    <contour>
      <point x="96.11000000000001" y="349.39" type="line"/>
      <point x="88.05000000000001" y="261.67999999999995" type="line"/>
      <point x="603.65" y="261.67999999999995" type="line"/>
      <point x="611.24" y="349.39" type="line"/>
    </contour>
    <contour>
      <point x="278.83" y="647.38" type="line"/>
      <point x="96.11000000000001" y="647.38" type="line"/>
      <point x="88.05000000000001" y="558.08" type="line"/>
      <point x="300.78" y="558.08" type="line"/>
    </contour>
    <component base="Y" xOffset="24.519999999999996"/>
  </outline>
</glyph>
<glyph name="brokenbar" format="2">
  <advance width="357.69"/>
  <unicode hex="00A6"/>
  <outline>
    <contour>
      <point x="229.47" y="588.17" type="line"/>
      <point x="229.47" y="1426.0" type="line"/>
      <point x="128.22" y="1426.0" type="line"/>
      <point x="128.22" y="588.17" type="line"/>
    </contour>
    <contour>
      <point x="229.47" y="-426.99" type="line"/>
      <point x="229.47" y="411.37" type="line"/>
      <point x="128.22" y="411.37" type="line"/>
      <point x="128.22" y="-426.99" type="line"/>
    </contour>
  </outline>
</glyph>
<glyph name="section" format="2">
  <advance width="574.6400000000001"/>
  <unicode hex="00A7"/>
  <outline>
    <contour>
      <point x="307.91" y="372.98" type="curve"/>
      <point x="370.7699999999999" y="323.13" type="line"/>
      <point x="370.77" y="349.38" type="line"/>
      <point x="450.01" y="382.39"/>
      <point x="493.77" y="445.35"/>
      <point x="493.77" y="547.92" type="curve" smooth="yes"/>
      <point x="493.77" y="603.4100000000001" type="line" smooth="yes"/>
      <point x="493.77" y="735.42"/>
      <point x="442.81000000000006" y="794.71"/>
      <point x="319.58" y="872.4799999999999" type="curve" smooth="yes"/>
      <point x="222.95000000000002" y="932.77"/>
      <point x="184.76999999999998" y="969.06"/>
      <point x="184.76999999999998" y="1056.33" type="curve" smooth="yes"/>
      <point x="184.76999999999998" y="1071.0900000000001" type="line" smooth="yes"/>
      <point x="184.76999999999998" y="1152.95"/>
      <point x="224.41" y="1200.76"/>
      <point x="311.87" y="1200.76" type="curve" smooth="yes"/>
      <point x="382.58000000000004" y="1200.76"/>
      <point x="433.53000000000003" y="1172.23"/>
      <point x="482.34999999999997" y="1130.5300000000002" type="curve"/>
      <point x="473.63999999999993" y="1231.83" type="line"/>
      <point x="433.40000000000003" y="1265.18"/>
      <point x="376.33000000000004" y="1295.1200000000001"/>
      <point x="293.26" y="1295.1200000000001" type="curve" smooth="yes"/>
      <point x="152.12" y="1295.1200000000001"/>
      <point x="77.28" y="1214.23"/>
      <point x="77.28" y="1075.86" type="curve" smooth="yes"/>
      <point x="77.28" y="1060.51" type="line" smooth="yes"/>
      <point x="77.28" y="938.52"/>
      <point x="124.27999999999999" y="878.6800000000001"/>
      <point x="252.17" y="801.32" type="curve" smooth="yes"/>
      <point x="373.45000000000005" y="727.62"/>
      <point x="392.64" y="678.4599999999999"/>
      <point x="392.64" y="586.6899999999999" type="curve" smooth="yes"/>
      <point x="392.64" y="520.89" type="line" smooth="yes"/>
      <point x="392.64" y="450.51"/>
      <point x="371.11999999999995" y="400.8"/>
    </contour>
    <contour>
      <point x="263.67" y="809.66" type="curve"/>
      <point x="200.81" y="861.1" type="line"/>
      <point x="201.34000000000003" y="833.7900000000001" type="line"/>
      <point x="119.45" y="799.1899999999999"/>
      <point x="77.81" y="738.3499999999999"/>
      <point x="77.81" y="635.25" type="curve" smooth="yes"/>
      <point x="77.81" y="588.88" type="line" smooth="yes"/>
      <point x="77.81" y="451.82"/>
      <point x="126.16999999999999" y="392.29"/>
      <point x="254.29000000000002" y="310.75" type="curve" smooth="yes"/>
      <point x="361.90999999999997" y="244.22999999999996"/>
      <point x="386.81000000000006" y="202.06"/>
      <point x="386.81000000000006" y="123.01" type="curve" smooth="yes"/>
      <point x="386.81000000000006" y="104.49000000000001" type="line" smooth="yes"/>
      <point x="386.81000000000006" y="19.400000000000002"/>
      <point x="343.82000000000005" y="-38.82"/>
      <point x="254.3" y="-38.82" type="curve" smooth="yes"/>
      <point x="184.29" y="-38.82"/>
      <point x="125.4" y="-10.759999999999994"/>
      <point x="74.46" y="29.590000000000003" type="curve"/>
      <point x="82.64" y="-74.83" type="line"/>
      <point x="122.53" y="-105.36"/>
      <point x="187.94999999999996" y="-135.3"/>
      <point x="267.08" y="-135.3" type="curve" smooth="yes"/>
      <point x="416.23" y="-135.3"/>
      <point x="493.77" y="-45.06"/>
      <point x="493.77" y="100.25" type="curve" smooth="yes"/>
      <point x="493.77" y="122.77000000000001" type="line" smooth="yes"/>
      <point x="493.77" y="240.01"/>
      <point x="453.59" y="300.9"/>
      <point x="327.0" y="378.73" type="curve" smooth="yes"/>
      <point x="219.24" y="444.84999999999997"/>
      <point x="178.94" y="490.08"/>
      <point x="178.94" y="600.6" type="curve" smooth="yes"/>
      <point x="178.94" y="660.16" type="line"/>
      <point x="178.94" y="732.6600000000001"/>
      <point x="200.46" y="781.8399999999999"/>
    </contour>
  </outline>
</glyph>
<glyph name="copyright" format="2">
  <advance width="1082.16"/>
  <unicode hex="00A9"/>
  <outline>
    <contour>
      <point x="541.08" y="-16.590000000000003" type="curve" smooth="yes"/>
      <point x="827.28" y="-16.590000000000003"/>
      <point x="993.8199999999999" y="150.95"/>
      <point x="993.8199999999999" y="445.98" type="curve" smooth="yes"/>
      <point x="993.8199999999999" y="831.08" type="line" smooth="yes"/>
      <point x="993.8199999999999" y="1126.58"/>
      <point x="827.28" y="1294.59"/>
      <point x="541.08" y="1294.59" type="curve" smooth="yes"/>
      <point x="254.35000000000002" y="1294.59"/>
      <point x="88.33999999999999" y="1126.58"/>
      <point x="88.33999999999999" y="831.08" type="curve" smooth="yes"/>
      <point x="88.33999999999999" y="445.98" type="line" smooth="yes"/>
      <point x="88.33999999999999" y="150.95"/>
      <point x="254.35000000000002" y="-16.590000000000003"/>
    </contour>
    <contour>
      <point x="567.0300000000001" y="308.41" type="curve" smooth="yes"/>
      <point x="619.5600000000001" y="308.41"/>
      <point x="662.6800000000001" y="326.17"/>
      <point x="689.7399999999999" y="350.99" type="curve"/>
      <point x="696.39" y="430.21" type="line"/>
      <point x="665.1" y="403.63"/>
      <point x="630.75" y="384.87"/>
      <point x="586.52" y="384.87" type="curve" smooth="yes"/>
      <point x="504.94000000000005" y="384.87"/>
      <point x="472.0" y="441.39"/>
      <point x="472.0" y="539.37" type="curve" smooth="yes"/>
      <point x="472.0" y="740.16" type="line" smooth="yes"/>
      <point x="472.0" y="838.67"/>
      <point x="502.82000000000005" y="895.1899999999999"/>
      <point x="583.4" y="895.1899999999999" type="curve" smooth="yes"/>
      <point x="629.16" y="895.1899999999999"/>
      <point x="662.98" y="876.9599999999999"/>
      <point x="693.27" y="850.8499999999999" type="curve"/>
      <point x="686.15" y="928.54" type="line"/>
      <point x="658.56" y="952.3"/>
      <point x="617.5600000000001" y="970.59"/>
      <point x="566.4399999999999" y="970.59" type="curve" smooth="yes"/>
      <point x="441.65999999999997" y="970.59"/>
      <point x="387.17999999999995" y="885.6999999999999"/>
      <point x="387.17999999999995" y="739.1" type="curve" smooth="yes"/>
      <point x="387.17999999999995" y="538.43" type="line" smooth="yes"/>
      <point x="387.17999999999995" y="391.3"/>
      <point x="441.65999999999997" y="308.41"/>
    </contour>
    <contour>
      <point x="541.08" y="55.1" type="curve" smooth="yes"/>
      <point x="306.03000000000003" y="55.1"/>
      <point x="169.45" y="196.32999999999998"/>
      <point x="169.45" y="438.09" type="curve" smooth="yes"/>
      <point x="169.45" y="839.97" type="line" smooth="yes"/>
      <point x="169.45" y="1081.67"/>
      <point x="306.03000000000003" y="1222.9"/>
      <point x="541.08" y="1222.9" type="curve" smooth="yes"/>
      <point x="775.6" y="1222.9"/>
      <point x="912.71" y="1081.67"/>
      <point x="912.71" y="839.97" type="curve" smooth="yes"/>
      <point x="912.71" y="438.09" type="line" smooth="yes"/>
      <point x="912.71" y="196.32999999999998"/>
      <point x="775.6" y="55.1"/>
    </contour>
  </outline>
</glyph>
<glyph name="ordfeminine" format="2">
  <advance width="416.51"/>
  <unicode hex="00AA"/>
  <outline>
    <contour>
      <point x="273.88" y="639.5300000000001" type="line"/>
      <point x="355.52000000000004" y="639.5300000000001" type="line"/>
      <point x="355.52000000000004" y="1099.92" type="line" smooth="yes"/>
      <point x="355.52000000000004" y="1220.52"/>
      <point x="312.34" y="1288.59"/>
      <point x="198.90000000000003" y="1288.59" type="curve" smooth="yes"/>
      <point x="146.54" y="1288.59"/>
      <point x="97.71" y="1269.12"/>
      <point x="61.0" y="1243.1799999999998" type="curve"/>
      <point x="54.29" y="1166.96" type="line"/>
      <point x="94.47000000000001" y="1195.8400000000001"/>
      <point x="141.65" y="1217.3700000000001"/>
      <point x="187.89000000000004" y="1217.3700000000001" type="curve" smooth="yes"/>
      <point x="254.11999999999998" y="1217.3700000000001"/>
      <point x="275.47" y="1173.44"/>
      <point x="275.47" y="1100.51" type="curve"/>
      <point x="275.47" y="1026.35" type="line"/>
      <point x="275.47" y="759.36" type="line"/>
      <point x="278.46999999999997" y="758.3000000000001" type="line"/>
    </contour>
    <contour>
      <point x="163.23" y="630.0" type="curve" smooth="yes"/>
      <point x="236.64" y="630.0"/>
      <point x="266.99" y="678.5799999999999"/>
      <point x="277.58" y="743.1" type="curve"/>
      <point x="292.88" y="743.1" type="line"/>
      <point x="276.47" y="796.42" type="line"/>
      <point x="266.59000000000003" y="741.44"/>
      <point x="239.77" y="699.69"/>
      <point x="192.49" y="699.69" type="curve" smooth="yes"/>
      <point x="137.92" y="699.69"/>
      <point x="122.03999999999999" y="741.5"/>
      <point x="122.03999999999999" y="798.66" type="curve" smooth="yes"/>
      <point x="122.03999999999999" y="842.36" type="line" smooth="yes"/>
      <point x="122.03999999999999" y="902.6999999999999"/>
      <point x="139.8" y="933.34"/>
      <point x="199.60999999999999" y="954.04" type="curve" smooth="yes"/>
      <point x="294.77" y="987.15" type="line"/>
      <point x="287.0" y="1051.48" type="line"/>
      <point x="177.35999999999999" y="1014.84" type="line" smooth="yes"/>
      <point x="73.23" y="980.84"/>
      <point x="42.52" y="930.25"/>
      <point x="42.52" y="839.7700000000001" type="curve" smooth="yes"/>
      <point x="42.52" y="791.4200000000001" type="line" smooth="yes"/>
      <point x="42.52" y="687.1800000000001"/>
      <point x="80.10999999999999" y="630.0"/>
    </contour>
  </outline>
</glyph>
<glyph name="logicalnot" format="2">
  <advance width="671.08"/>
  <unicode hex="00AC"/>
  <outline>
    <contour>
      <point x="582.51" y="313.23" type="line"/>
      <point x="582.51" y="642.36" type="line"/>
      <point x="486.03" y="642.36" type="line"/>
      <point x="486.03" y="313.23" type="line"/>
    </contour>
    <contour>
      <point x="58.88" y="590.3199999999999" type="line"/>
      <point x="582.51" y="590.3199999999999" type="line"/>
      <point x="582.51" y="682.6800000000001" type="line"/>
      <point x="58.88" y="682.6800000000001" type="line"/>
    </contour>
  </outline>
</glyph>
<glyph name="registered" format="2">
  <advance width="613.0400000000001"/>
  <unicode hex="00AE"/>
  <outline>
    <contour>
      <point x="306.49" y="567.21" type="curve" smooth="yes"/>
      <point x="466.57" y="567.21"/>
      <point x="547.5799999999999" y="668.52"/>
      <point x="547.5799999999999" y="836.0600000000001" type="curve" smooth="yes"/>
      <point x="547.5799999999999" y="1022.86" type="line" smooth="yes"/>
      <point x="547.5799999999999" y="1191.3400000000001"/>
      <point x="466.57" y="1291.1799999999998"/>
      <point x="306.49" y="1291.1799999999998" type="curve" smooth="yes"/>
      <point x="146.41" y="1291.1799999999998"/>
      <point x="65.92999999999999" y="1190.8100000000002"/>
      <point x="65.92999999999999" y="1022.86" type="curve" smooth="yes"/>
      <point x="65.92999999999999" y="836.0600000000001" type="line" smooth="yes"/>
      <point x="65.92999999999999" y="668.52"/>
      <point x="146.41" y="567.21"/>
    </contour>
    <contour>
      <point x="306.49" y="618.4100000000001" type="curve" smooth="yes"/>
      <point x="180.9" y="618.4100000000001"/>
      <point x="123.36999999999999" y="693.1199999999999"/>
      <point x="123.36999999999999" y="832.88" type="curve" smooth="yes"/>
      <point x="123.36999999999999" y="1026.57" type="line" smooth="yes"/>
      <point x="123.36999999999999" y="1164.8000000000002"/>
      <point x="180.9" y="1239.98"/>
      <point x="306.49" y="1239.98" type="curve" smooth="yes"/>
      <point x="431.55" y="1239.98"/>
      <point x="490.14000000000004" y="1164.8000000000002"/>
      <point x="490.14000000000004" y="1026.57" type="curve" smooth="yes"/>
      <point x="490.14000000000004" y="832.88" type="line" smooth="yes"/>
      <point x="490.14000000000004" y="693.1199999999999"/>
      <point x="431.55" y="618.4100000000001"/>
    </contour>
    <contour>
      <point x="359.6" y="736.1700000000001" type="line"/>
      <point x="412.74" y="736.1700000000001" type="line"/>
      <point x="401.33" y="819.4" type="line" smooth="yes"/>
      <point x="392.38999999999993" y="886.22"/>
      <point x="377.38999999999993" y="916.6999999999999"/>
      <point x="332.56" y="923.11" type="curve"/>
      <point x="337.04" y="915.1099999999999" type="line"/>
      <point x="340.8" y="922.76" type="line"/>
      <point x="389.15" y="927.6999999999999"/>
      <point x="404.79999999999995" y="959.11"/>
      <point x="404.79999999999995" y="1003.76" type="curve" smooth="yes"/>
      <point x="404.79999999999995" y="1032.2799999999997" type="line" smooth="yes"/>
      <point x="404.79999999999995" y="1098.4"/>
      <point x="374.09" y="1130.1100000000001"/>
      <point x="310.02" y="1130.1100000000001" type="curve" smooth="yes"/>
      <point x="260.73" y="1130.1100000000001" type="line"/>
      <point x="260.73" y="1084.09" type="line"/>
      <point x="309.02" y="1084.09" type="line" smooth="yes"/>
      <point x="342.59999999999997" y="1084.09"/>
      <point x="352.66" y="1060.92"/>
      <point x="352.66" y="1024.45" type="curve" smooth="yes"/>
      <point x="352.66" y="996.05" type="line" smooth="yes"/>
      <point x="352.66" y="955.7"/>
      <point x="339.31" y="936.82"/>
      <point x="304.61" y="936.2900000000001" type="curve" smooth="yes"/>
      <point x="263.67" y="935.76" type="line"/>
      <point x="263.67" y="890.27" type="line"/>
      <point x="299.67" y="890.27" type="line" smooth="yes"/>
      <point x="328.61" y="890.27"/>
      <point x="343.31" y="876.09"/>
      <point x="350.19" y="816.8100000000001" type="curve" smooth="yes"/>
    </contour>
    <contour>
      <point x="223.77" y="736.1700000000001" type="line"/>
      <point x="275.90999999999997" y="736.1700000000001" type="line"/>
      <point x="275.90999999999997" y="903.04" type="line"/>
      <point x="275.90999999999997" y="921.4000000000001" type="line"/>
      <point x="275.90999999999997" y="1130.1100000000001" type="line"/>
      <point x="223.77" y="1130.1100000000001" type="line"/>
    </contour>
  </outline>
</glyph>
<glyph name="degree" format="2">
  <advance width="490.67"/>
  <unicode hex="00B0"/>
  <outline>
    <contour>
      <point x="245.6" y="833.0899999999999" type="curve" smooth="yes"/>
      <point x="360.44" y="833.0899999999999"/>
      <point x="423.38999999999993" y="912.27"/>
      <point x="423.38999999999993" y="1055.28" type="curve" smooth="yes"/>
      <point x="423.38999999999993" y="1072.93" type="line" smooth="yes"/>
      <point x="423.38999999999993" y="1215.94"/>
      <point x="360.44" y="1295.1200000000001"/>
      <point x="245.6" y="1295.1200000000001" type="curve" smooth="yes"/>
      <point x="130.23000000000002" y="1295.1200000000001"/>
      <point x="67.28" y="1215.94"/>
      <point x="67.28" y="1072.93" type="curve" smooth="yes"/>
      <point x="67.28" y="1055.28" type="line" smooth="yes"/>
      <point x="67.28" y="912.74"/>
      <point x="130.23000000000002" y="833.0899999999999"/>
    </contour>
    <contour>
      <point x="245.6" y="909.0799999999999" type="curve" smooth="yes"/>
      <point x="182.97" y="909.0799999999999"/>
      <point x="152.1" y="960.83"/>
      <point x="152.1" y="1053.81" type="curve" smooth="yes"/>
      <point x="152.1" y="1074.4" type="line" smooth="yes"/>
      <point x="152.1" y="1166.8500000000001"/>
      <point x="182.5" y="1219.13"/>
      <point x="245.6" y="1219.13" type="curve" smooth="yes"/>
      <point x="308.7" y="1219.13"/>
      <point x="338.57000000000005" y="1166.8500000000001"/>
      <point x="338.57000000000005" y="1074.4" type="curve" smooth="yes"/>
      <point x="338.57000000000005" y="1053.81" type="line" smooth="yes"/>
      <point x="338.57000000000005" y="960.36"/>
      <point x="308.7" y="909.0799999999999"/>
    </contour>
  </outline>
</glyph>
<glyph name="plusminus" format="2">
  <advance width="675.2"/>
  <unicode hex="00B1"/>
  <outline>
    <contour>
      <point x="76.05" y="231.07" type="line"/>
      <point x="599.15" y="231.07" type="line"/>
      <point x="599.15" y="320.78" type="line"/>
      <point x="76.05" y="320.78" type="line"/>
    </contour>
    <contour>
      <point x="385.34" y="440.12" type="line"/>
      <point x="385.34" y="991.4300000000001" type="line"/>
      <point x="289.39" y="991.4300000000001" type="line"/>
      <point x="289.39" y="440.12" type="line"/>
    </contour>
    <contour>
      <point x="76.05" y="670.39" type="line"/>
      <point x="599.15" y="670.39" type="line"/>
      <point x="599.15" y="761.1600000000001" type="line"/>
      <point x="76.05" y="761.1600000000001" type="line"/>
    </contour>
  </outline>
</glyph>
<glyph name="twosuperior" format="2">
  <advance width="337.39"/>
  <unicode hex="00B2"/>
  <outline>
    <contour>
      <point x="26.880000000000003" y="700.0" type="line"/>
      <point x="305.16" y="700.0" type="line"/>
      <point x="305.16" y="770.28" type="line"/>
      <point x="79.91999999999999" y="770.28" type="line"/>
      <point x="110.29000000000002" y="754.0400000000001" type="line"/>
      <point x="110.29000000000002" y="774.8100000000001" type="line"/>
      <point x="198.23000000000002" y="925.85" type="line" smooth="yes"/>
      <point x="274.09999999999997" y="1058.0500000000002"/>
      <point x="301.22" y="1124.7"/>
      <point x="301.22" y="1209.52" type="curve" smooth="yes"/>
      <point x="301.22" y="1228.81" type="line" smooth="yes"/>
      <point x="301.22" y="1330.64"/>
      <point x="255.15" y="1392.5900000000001"/>
      <point x="156.31000000000003" y="1392.5900000000001" type="curve" smooth="yes"/>
      <point x="108.53999999999999" y="1392.5900000000001"/>
      <point x="70.3" y="1375.77"/>
      <point x="44.47" y="1358.18" type="curve"/>
      <point x="37.82" y="1283.96" type="line"/>
      <point x="65.64" y="1301.78"/>
      <point x="96.22999999999999" y="1319.72"/>
      <point x="138.23000000000002" y="1319.72" type="curve" smooth="yes"/>
      <point x="196.17000000000002" y="1319.72"/>
      <point x="218.99" y="1282.02"/>
      <point x="218.99" y="1216.74" type="curve" smooth="yes"/>
      <point x="218.99" y="1199.57" type="line" smooth="yes"/>
      <point x="218.99" y="1129.8799999999999"/>
      <point x="193.17" y="1068.83"/>
      <point x="128.24" y="953.51" type="curve" smooth="yes"/>
      <point x="26.880000000000003" y="776.34" type="line"/>
    </contour>
  </outline>
</glyph>
<glyph name="threesuperior" format="2">
  <advance width="342.51"/>
  <unicode hex="00B3"/>
  <outline>
    <contour>
      <point x="142.78000000000003" y="688.47" type="curve" smooth="yes"/>
      <point x="269.91" y="688.47"/>
      <point x="300.80999999999995" y="769.82"/>
      <point x="300.80999999999995" y="856.13" type="curve" smooth="yes"/>
      <point x="300.80999999999995" y="914.11" type="line" smooth="yes"/>
      <point x="300.80999999999995" y="997.94"/>
      <point x="269.16" y="1048.29"/>
      <point x="199.21000000000004" y="1054.94" type="curve"/>
      <point x="202.45000000000002" y="1047.6399999999999" type="line"/>
      <point x="202.92" y="1056.59" type="line"/>
      <point x="271.63" y="1067.77"/>
      <point x="296.81" y="1119.24"/>
      <point x="296.81" y="1193.8899999999999" type="curve" smooth="yes"/>
      <point x="296.81" y="1238.6399999999999" type="line" smooth="yes"/>
      <point x="296.81" y="1334.47"/>
      <point x="255.33" y="1392.5900000000001"/>
      <point x="151.67000000000002" y="1392.5900000000001" type="curve" smooth="yes"/>
      <point x="102.31" y="1392.5900000000001"/>
      <point x="62.42" y="1376.6499999999999"/>
      <point x="35.120000000000005" y="1357.6499999999999" type="curve"/>
      <point x="27.939999999999998" y="1286.6100000000001" type="line"/>
      <point x="56.470000000000006" y="1305.43"/>
      <point x="91.06" y="1322.84"/>
      <point x="131.65000000000003" y="1322.84" type="curve" smooth="yes"/>
      <point x="192.76000000000002" y="1322.84"/>
      <point x="215.64000000000001" y="1285.32"/>
      <point x="215.64000000000001" y="1225.04" type="curve" smooth="yes"/>
      <point x="215.64000000000001" y="1182.82" type="line" smooth="yes"/>
      <point x="215.64000000000001" y="1103.84"/>
      <point x="177.82" y="1087.49"/>
      <point x="128.94000000000003" y="1085.96" type="curve" smooth="yes"/>
      <point x="70.71" y="1084.4299999999998" type="line"/>
      <point x="70.71" y="1020.39" type="line"/>
      <point x="136.88000000000002" y="1018.33" type="line" smooth="yes"/>
      <point x="197.64000000000001" y="1016.2700000000001"/>
      <point x="217.58" y="978.28"/>
      <point x="217.58" y="920.94" type="curve" smooth="yes"/>
      <point x="217.58" y="866.08" type="line" smooth="yes"/>
      <point x="217.58" y="808.6800000000001"/>
      <point x="201.51999999999998" y="760.34"/>
      <point x="131.53000000000003" y="760.34" type="curve" smooth="yes"/>
      <point x="89.0" y="760.34"/>
      <point x="52.12" y="777.6899999999999"/>
      <point x="22.939999999999998" y="797.04" type="curve"/>
      <point x="30.12" y="721.29" type="line"/>
      <point x="54.3" y="704.8199999999999"/>
      <point x="91.78" y="688.47"/>
    </contour>
  </outline>
</glyph>
<glyph name="micro" format="2">
  <advance width="696.1899999999999"/>
  <unicode hex="00B5"/>
  <outline>
    <contour>
      <point x="597.85" y="994.24" type="line"/>
      <point x="488.24" y="994.24" type="line"/>
      <point x="488.24" y="169.06" type="line"/>
      <point x="492.83000000000004" y="164.29" type="line"/>
      <point x="487.24" y="0.0" type="line"/>
      <point x="597.85" y="0.0" type="line"/>
    </contour>
    <contour>
      <point x="208.95" y="271.98" type="curve" smooth="yes"/>
      <point x="208.95" y="994.24" type="line"/>
      <point x="98.34000000000002" y="994.24" type="line"/>
      <point x="98.34000000000002" y="-350.0" type="line"/>
      <point x="203.70999999999998" y="-350.0" type="line"/>
      <point x="203.70999999999998" y="-176.15" type="line"/>
      <point x="192.41000000000003" y="103.15" type="line"/>
      <point x="195.12" y="102.68" type="line"/>
      <point x="212.65" y="31.339999999999996"/>
      <point x="256.28" y="-12.469999999999999"/>
      <point x="333.55999999999995" y="-12.469999999999999" type="curve" smooth="yes"/>
      <point x="420.59999999999997" y="-12.469999999999999"/>
      <point x="469.35" y="42.44999999999999"/>
      <point x="490.35" y="161.67999999999998" type="curve"/>
      <point x="518.19" y="161.67999999999998" type="line"/>
      <point x="490.24000000000007" y="250.14000000000001" type="line"/>
      <point x="471.07000000000005" y="144.41000000000003"/>
      <point x="424.14" y="80.42"/>
      <point x="345.91999999999996" y="80.42" type="curve" smooth="yes"/>
      <point x="249.7" y="80.42"/>
      <point x="208.95" y="153.45999999999998"/>
    </contour>
  </outline>
</glyph>
<glyph name="paragraph" format="2">
  <advance width="504.54999999999995"/>
  <unicode hex="00B6"/>
  <outline>
    <contour>
      <point x="264.90000000000003" y="665.87" type="curve"/>
      <point x="321.15999999999997" y="665.87" type="line"/>
      <point x="321.63" y="1278.0" type="line"/>
      <point x="263.96" y="1278.0" type="line" smooth="yes"/>
      <point x="132.76" y="1278.0"/>
      <point x="72.4" y="1195.29"/>
      <point x="72.4" y="1057.45" type="curve" smooth="yes"/>
      <point x="72.4" y="887.8900000000001" type="line" smooth="yes"/>
      <point x="72.4" y="746.46"/>
      <point x="132.76" y="665.87"/>
    </contour>
    <contour>
      <point x="395.74000000000007" y="0.0" type="line"/>
      <point x="395.74000000000007" y="1278.0" type="line"/>
      <point x="285.71999999999997" y="1278.0" type="line"/>
      <point x="285.19" y="0.0" type="line"/>
    </contour>
  </outline>
</glyph>
<glyph name="onesuperior" format="2">
  <advance width="289.21000000000004"/>
  <unicode hex="00B9"/>
  <outline>
    <contour>
      <point x="148.57999999999998" y="700.0" type="line"/>
      <point x="227.16" y="700.0" type="line"/>
      <point x="227.16" y="1383.53" type="line"/>
      <point x="148.82999999999998" y="1383.53" type="line"/>
      <point x="17.590000000000003" y="1276.72" type="line"/>
      <point x="15.999999999999996" y="1191.14" type="line"/>
      <point x="142.46" y="1296.4699999999998" type="line"/>
      <point x="148.05" y="1296.4699999999998" type="line"/>
    </contour>
  </outline>
</glyph>
<glyph name="ordmasculine" format="2">
  <advance width="463.62000000000006"/>
  <unicode hex="00BA"/>
  <outline>
    <contour>
      <point x="231.30999999999997" y="630.0" type="curve" smooth="yes"/>
      <point x="343.79999999999995" y="630.0"/>
      <point x="400.34" y="700.95"/>
      <point x="400.34" y="833.79" type="curve" smooth="yes"/>
      <point x="400.34" y="1088.68" type="line" smooth="yes"/>
      <point x="400.34" y="1221.52"/>
      <point x="344.33000000000004" y="1291.47"/>
      <point x="231.30999999999997" y="1291.47" type="curve" smooth="yes"/>
      <point x="119.82000000000001" y="1291.47"/>
      <point x="63.279999999999994" y="1221.52"/>
      <point x="63.279999999999994" y="1088.68" type="curve" smooth="yes"/>
      <point x="63.279999999999994" y="833.79" type="line" smooth="yes"/>
      <point x="63.279999999999994" y="699.95"/>
      <point x="119.82000000000001" y="630.0"/>
    </contour>
    <contour>
      <point x="231.83999999999997" y="700.69" type="curve" smooth="yes"/>
      <point x="172.56" y="700.69"/>
      <point x="146.98" y="744.2099999999999"/>
      <point x="146.98" y="823.84" type="curve" smooth="yes"/>
      <point x="146.98" y="1098.69" type="line" smooth="yes"/>
      <point x="146.98" y="1178.26"/>
      <point x="172.56" y="1220.7800000000002"/>
      <point x="231.83999999999997" y="1220.7800000000002" type="curve" smooth="yes"/>
      <point x="290.59000000000003" y="1220.7800000000002"/>
      <point x="316.17" y="1178.73"/>
      <point x="316.17" y="1098.69" type="curve" smooth="yes"/>
      <point x="316.17" y="823.84" type="line" smooth="yes"/>
      <point x="316.17" y="743.2099999999999"/>
      <point x="290.59000000000003" y="700.69"/>
    </contour>
  </outline>
</glyph>
<glyph name="guillemetright" format="2">
  <advance width="683.46"/>
  <unicode hex="00BB"/>
  <outline>
    <contour>
      <point x="219.97" y="496.12" type="line"/>
      <point x="60.98" y="105.17" type="line"/>
      <point x="162.23000000000002" y="105.17" type="line"/>
      <point x="317.69" y="478.40999999999997" type="line"/>
      <point x="317.69" y="514.36" type="line"/>
      <point x="162.23000000000002" y="887.6" type="line"/>
      <point x="60.98" y="887.6" type="line"/>
    </contour>
    <contour>
      <point x="516.23" y="496.12" type="line"/>
      <point x="357.24" y="105.17" type="line"/>
      <point x="458.49" y="105.17" type="line"/>
      <point x="613.95" y="478.40999999999997" type="line"/>
      <point x="613.95" y="514.36" type="line"/>
      <point x="458.49" y="887.6" type="line"/>
      <point x="357.24" y="887.6" type="line"/>
    </contour>
  </outline>
</glyph>
<glyph name="questiondown" format="2">
  <advance width="486.28"/>
  <unicode hex="00BF"/>
  <outline>
    <contour>
      <point x="351.22999999999996" y="640.3000000000001" type="line"/>
      <point x="282.03" y="601.0600000000001" type="line" smooth="yes"/>
      <point x="133.94" y="515.1800000000001"/>
      <point x="73.63" y="424.11"/>
      <point x="73.63" y="222.73999999999998" type="curve" smooth="yes"/>
      <point x="73.63" y="-28.5" type="line" smooth="yes"/>
      <point x="73.63" y="-205.16"/>
      <point x="133.82" y="-300.88"/>
      <point x="279.49" y="-300.88" type="curve" smooth="yes"/>
      <point x="346.03" y="-300.88"/>
      <point x="404.39" y="-276.88"/>
      <point x="441.21999999999997" y="-252.35" type="curve"/>
      <point x="453.58" y="-153.98999999999998" type="line"/>
      <point x="410.58" y="-181.87"/>
      <point x="367.10999999999996" y="-201.75"/>
      <point x="311.28999999999996" y="-201.75" type="curve" smooth="yes"/>
      <point x="217.59" y="-201.75"/>
      <point x="182.71" y="-140.64000000000001"/>
      <point x="182.71" y="-12.719999999999995" type="curve" smooth="yes"/>
      <point x="182.71" y="225.26999999999998" type="line" smooth="yes"/>
      <point x="182.71" y="371.47999999999996"/>
      <point x="211.29" y="436.06"/>
      <point x="315.93000000000006" y="503.28000000000003" type="curve" smooth="yes"/>
      <point x="351.22999999999996" y="525.2800000000001" type="line"/>
    </contour>
    <contour>
      <point x="312.7900000000001" y="1008.01" type="curve" smooth="yes"/>
      <point x="269.06" y="1008.01"/>
      <point x="248.33999999999997" y="976.76"/>
      <point x="248.33999999999997" y="916.15" type="curve" smooth="yes"/>
      <point x="248.33999999999997" y="899.62" type="line" smooth="yes"/>
      <point x="248.33999999999997" y="840.01"/>
      <point x="269.06" y="808.29"/>
      <point x="312.7900000000001" y="808.29" type="curve" smooth="yes"/>
      <point x="358.11" y="808.29"/>
      <point x="376.77" y="840.01"/>
      <point x="376.77" y="899.62" type="curve" smooth="yes"/>
      <point x="376.77" y="916.15" type="line" smooth="yes"/>
      <point x="376.77" y="976.76"/>
      <point x="358.11" y="1008.01"/>
    </contour>
  </outline>
</glyph>
<glyph name="AE" format="2">
  <advance width="969.5600000000001"/>
  <unicode hex="00C6"/>
  <anchor x="485.28" y="0.0" name="bottom"/>
  <anchor x="485.28" y="1278.0" name="top"/>
  <outline>
    <contour>
      <point x="46.339999999999996" y="0.0" type="line"/>
      <point x="157.89000000000001" y="0.0" type="line"/>
      <point x="438.85" y="1194.1200000000001" type="line"/>
      <point x="498.09000000000003" y="1194.1200000000001" type="line"/>
      <point x="498.09000000000003" y="1278.0" type="line"/>
      <point x="355.26" y="1278.0" type="line"/>
    </contour>
    <contour>
      <point x="210.18999999999997" y="394.22999999999996" type="line"/>
      <point x="516.86" y="394.22999999999996" type="line"/>
      <point x="516.86" y="489.77" type="line"/>
      <point x="210.18999999999997" y="489.77" type="line"/>
    </contour>
    <contour>
      <point x="544.61" y="0.0" type="line"/>
      <point x="907.2700000000001" y="0.0" type="line"/>
      <point x="907.2700000000001" y="100.19000000000001" type="line"/>
      <point x="544.61" y="100.19000000000001" type="line"/>
    </contour>
    <contour>
      <point x="486.02000000000004" y="0.0" type="line"/>
      <point x="596.57" y="0.0" type="line"/>
      <point x="596.57" y="1278.0" type="line"/>
      <point x="486.02000000000004" y="1278.0" type="line"/>
    </contour>
    <contour>
      <point x="554.9" y="605.49" type="line"/>
      <point x="901.15" y="605.49" type="line"/>
      <point x="901.15" y="704.6800000000001" type="line"/>
      <point x="554.9" y="704.6800000000001" type="line"/>
    </contour>
    <contour>
      <point x="541.6700000000001" y="1177.81" type="line"/>
      <point x="907.2699999999999" y="1177.81" type="line"/>
      <point x="907.2699999999999" y="1278.0" type="line"/>
      <point x="541.6700000000001" y="1278.0" type="line"/>
    </contour>
  </outline>
</glyph>
<glyph name="Eth" format="2">
  <advance width="730.72"/>
  <unicode hex="00D0"/>
  <anchor x="354.33" y="0.0" name="bottom"/>
  <anchor x="366.92" y="639.0" name="center"/>
  <anchor x="354.33" y="1278.0" name="top"/>
  <outline>
    <contour>
      <point x="16.7" y="616.26" type="line"/>
      <point x="384.21" y="616.26" type="line"/>
      <point x="384.21" y="704.32" type="line"/>
      <point x="16.7" y="704.32" type="line"/>
    </contour>
    <component base="D"/>
  </outline>
</glyph>
<glyph name="multiply" format="2">
  <advance width="622.15"/>
  <unicode hex="00D7"/>
  <outline>
    <contour>
      <point x="561.93" y="406.08000000000004" type="line"/>
      <point x="134.32" y="922.96" type="line"/>
      <point x="67.57000000000001" y="868.98" type="line"/>
      <point x="494.71000000000004" y="351.1" type="line"/>
    </contour>
    <contour>
      <point x="60.21999999999999" y="406.08000000000004" type="line"/>
      <point x="127.44" y="351.1" type="line"/>
      <point x="554.58" y="868.98" type="line"/>
      <point x="487.83000000000004" y="922.96" type="line"/>
    </contour>
  </outline>
</glyph>
<glyph name="Oslash" format="2">
  <advance width="730.2500000000001"/>
  <unicode hex="00D8"/>
  <anchor x="364.86000000000007" y="0.0" name="bottom"/>
  <anchor x="364.86000000000007" y="639.0" name="center"/>
  <anchor x="657.36" y="10.0" name="ogonek"/>
  <anchor x="364.86000000000007" y="1278.0" name="top"/>
  <anchor x="20.0" y="1278.0" name="topleft"/>
  <anchor x="709.72" y="1278.0" name="topright"/>
  <outline>
    <contour>
      <point x="365.92" y="-17.12" type="curve" smooth="yes"/>
      <point x="548.6" y="-17.12"/>
      <point x="641.91" y="99.07000000000001"/>
      <point x="641.91" y="327.03999999999996" type="curve" smooth="yes"/>
      <point x="641.91" y="948.43" type="line" smooth="yes"/>
      <point x="641.91" y="1173.81"/>
      <point x="542.8299999999999" y="1295.1200000000001"/>
      <point x="363.8" y="1295.1200000000001" type="curve" smooth="yes"/>
      <point x="180.65" y="1295.1200000000001"/>
      <point x="88.33999999999999" y="1176.9299999999998"/>
      <point x="88.33999999999999" y="949.49" type="curve" smooth="yes"/>
      <point x="88.33999999999999" y="328.09999999999997" type="line" smooth="yes"/>
      <point x="88.33999999999999" y="102.71999999999998"/>
      <point x="186.41999999999996" y="-17.12"/>
    </contour>
    <contour>
      <point x="136.75" y="-81.29" type="line"/>
      <point x="223.63" y="-81.29" type="line"/>
      <point x="263.40999999999997" y="58.74" type="line"/>
      <point x="267.94" y="80.57000000000001" type="line"/>
      <point x="528.88" y="1151.53" type="line"/>
      <point x="546.5999999999999" y="1195.26" type="line"/>
      <point x="593.5" y="1358.8200000000002" type="line"/>
      <point x="506.09000000000003" y="1358.8200000000002" type="line"/>
      <point x="474.84999999999997" y="1240.76" type="line"/>
      <point x="467.66999999999996" y="1205.15" type="line"/>
      <point x="206.60999999999999" y="132.53" type="line"/>
      <point x="186.83" y="92.28" type="line"/>
    </contour>
    <contour>
      <point x="364.86" y="79.83" type="curve" smooth="yes"/>
      <point x="251.29" y="79.83"/>
      <point x="198.89000000000001" y="163.10999999999999"/>
      <point x="198.89000000000001" y="288.40999999999997" type="curve" smooth="yes"/>
      <point x="198.89000000000001" y="957.32" type="line" smooth="yes"/>
      <point x="198.89000000000001" y="1115.89"/>
      <point x="249.76" y="1198.1699999999998"/>
      <point x="364.86" y="1198.1699999999998" type="curve" smooth="yes"/>
      <point x="478.96000000000004" y="1198.1699999999998"/>
      <point x="531.36" y="1115.42"/>
      <point x="531.36" y="989.12" type="curve" smooth="yes"/>
      <point x="531.36" y="320.21" type="line" smooth="yes"/>
      <point x="531.36" y="162.10999999999999"/>
      <point x="479.96" y="79.83"/>
    </contour>
  </outline>
</glyph>
<glyph name="Thorn" format="2">
  <advance width="670.02"/>
  <unicode hex="00DE"/>
  <anchor x="336.03999999999996" y="0.0" name="bottom"/>
  <anchor x="336.03999999999996" y="1278.0" name="top"/>
  <outline>
    <contour>
      <point x="168.57" y="222.1" type="line"/>
      <point x="339.98" y="222.1" type="line" smooth="yes"/>
      <point x="521.37" y="222.1"/>
      <point x="606.03" y="332.87"/>
      <point x="606.03" y="527.49" type="curve" smooth="yes"/>
      <point x="606.03" y="756.75" type="line" smooth="yes"/>
      <point x="606.03" y="947.19"/>
      <point x="521.37" y="1060.1399999999999"/>
      <point x="340.39" y="1060.1399999999999" type="curve" smooth="yes"/>
      <point x="173.45" y="1060.1399999999999" type="line"/>
      <point x="173.45" y="962.5999999999999" type="line"/>
      <point x="335.74" y="962.5999999999999" type="line" smooth="yes"/>
      <point x="445.49" y="962.5999999999999"/>
      <point x="493.89000000000004" y="886.91"/>
      <point x="493.89000000000004" y="753.69" type="curve" smooth="yes"/>
      <point x="493.89000000000004" y="530.02" type="line" smooth="yes"/>
      <point x="493.89000000000004" y="395.79999999999995"/>
      <point x="445.49" y="319.64"/>
      <point x="334.27" y="319.64" type="curve" smooth="yes"/>
      <point x="168.57" y="319.64" type="line"/>
    </contour>
    <contour>
      <point x="108.81" y="0.0" type="line"/>
      <point x="220.42" y="0.0" type="line"/>
      <point x="220.42" y="255.64999999999998" type="line"/>
      <point x="219.89" y="284.73" type="line"/>
      <point x="219.89" y="996.8000000000001" type="line"/>
      <point x="220.42" y="1044.25" type="line"/>
      <point x="220.42" y="1278.0" type="line"/>
      <point x="108.81" y="1278.0" type="line"/>
    </contour>
  </outline>
</glyph>
<glyph name="germandbls" format="2">
  <advance width="763.56"/>
  <unicode hex="00DF"/>
  <anchor x="364.28000000000003" y="0.0" name="bottom"/>
  <anchor x="364.28000000000003" y="994.24" name="top"/>
  <outline>
    <contour>
      <point x="98.34000000000002" y="1066.85" type="curve" smooth="yes"/>
      <point x="98.34000000000002" y="0.0" type="line"/>
      <point x="205.3" y="0.0" type="line"/>
      <point x="205.3" y="1061.6100000000001" type="line" smooth="yes"/>
      <point x="205.3" y="1191.95"/>
      <point x="248.53" y="1260.3500000000001"/>
      <point x="371.27" y="1260.3500000000001" type="curve" smooth="yes"/>
      <point x="495.77000000000004" y="1260.3500000000001"/>
      <point x="530.7099999999999" y="1193.31"/>
      <point x="530.7099999999999" y="1117.4399999999998" type="curve" smooth="yes"/>
      <point x="530.7099999999999" y="975.41"/>
      <point x="334.09000000000003" y="896.11"/>
      <point x="334.09000000000003" y="707.83" type="curve" smooth="yes"/>
      <point x="334.09000000000003" y="699.83" type="line" smooth="yes"/>
      <point x="334.09000000000003" y="588.0600000000001"/>
      <point x="372.15000000000003" y="538.65"/>
      <point x="480.56000000000006" y="466.76" type="curve" smooth="yes"/>
      <point x="588.37" y="396.29"/>
      <point x="595.1999999999999" y="337.66"/>
      <point x="595.1999999999999" y="260.32" type="curve" smooth="yes"/>
      <point x="595.1999999999999" y="228.45" type="line" smooth="yes"/>
      <point x="595.1999999999999" y="138.06"/>
      <point x="554.62" y="84.01"/>
      <point x="470.57" y="84.01" type="curve" smooth="yes"/>
      <point x="419.50999999999993" y="84.01"/>
      <point x="374.86000000000007" y="103.54"/>
      <point x="331.33" y="132.42" type="curve"/>
      <point x="339.51" y="25.35" type="line"/>
      <point x="371.81000000000006" y="5.88"/>
      <point x="420.40000000000003" y="-14.59"/>
      <point x="487.59000000000003" y="-14.59" type="curve" smooth="yes"/>
      <point x="622.85" y="-14.59"/>
      <point x="702.6899999999999" y="72.07"/>
      <point x="702.6899999999999" y="224.73999999999998" type="curve" smooth="yes"/>
      <point x="702.6899999999999" y="261.79" type="line" smooth="yes"/>
      <point x="702.6899999999999" y="390.97"/>
      <point x="667.74" y="457.79"/>
      <point x="560.16" y="529.97" type="curve" smooth="yes"/>
      <point x="473.75999999999993" y="587.4399999999999"/>
      <point x="440.58" y="624.73"/>
      <point x="440.58" y="703.5999999999999" type="curve" smooth="yes"/>
      <point x="440.58" y="713.13" type="line" smooth="yes"/>
      <point x="440.58" y="863.21"/>
      <point x="639.79" y="943.2099999999999"/>
      <point x="639.79" y="1123.27" type="curve"/>
      <point x="639.79" y="1255.47"/>
      <point x="563.12" y="1351.12"/>
      <point x="373.39" y="1351.12" type="curve" smooth="yes"/>
      <point x="181.12" y="1351.12"/>
      <point x="98.34000000000002" y="1255.17"/>
    </contour>
  </outline>
</glyph>
<glyph name="ae" format="2">
  <advance width="966.5100000000001"/>
  <unicode hex="00E6"/>
  <anchor x="480.87" y="0.0" name="bottom"/>
  <anchor x="480.87" y="994.24" name="top"/>
  <outline>
    <contour>
      <point x="693.1899999999999" y="-13.530000000000001" type="curve" smooth="yes"/>
      <point x="772.6700000000001" y="-13.530000000000001"/>
      <point x="839.2099999999999" y="12.820000000000002"/>
      <point x="884.6299999999999" y="44.760000000000005" type="curve"/>
      <point x="893.34" y="147.06" type="line"/>
      <point x="842.6299999999999" y="110.77"/>
      <point x="782.86" y="83.48"/>
      <point x="712.68" y="83.48" type="curve" smooth="yes"/>
      <point x="595.97" y="83.48"/>
      <point x="531.5600000000001" y="150.94"/>
      <point x="531.5600000000001" y="291.22" type="curve" smooth="yes"/>
      <point x="531.5600000000001" y="469.0" type="line"/>
      <point x="531.5600000000001" y="490.07" type="line"/>
      <point x="531.5600000000001" y="727.27" type="line" smooth="yes"/>
      <point x="531.5600000000001" y="853.31"/>
      <point x="572.43" y="917.53"/>
      <point x="664.5300000000001" y="917.53" type="curve" smooth="yes"/>
      <point x="756.04" y="917.53"/>
      <point x="797.5000000000001" y="853.31"/>
      <point x="797.5000000000001" y="727.27" type="curve" smooth="yes"/>
      <point x="797.5000000000001" y="639.93"/>
      <point x="797.4999999999999" y="551.22"/>
      <point x="797.5" y="437.21000000000004" type="curve"/>
      <point x="896.22" y="437.21000000000004" type="line"/>
      <point x="902.3399999999999" y="494.21"/>
      <point x="903.4000000000001" y="541.51"/>
      <point x="903.4000000000001" y="594.16" type="curve" smooth="yes"/>
      <point x="903.4000000000001" y="716.6700000000001" type="line" smooth="yes"/>
      <point x="903.4000000000001" y="905.52"/>
      <point x="828.39" y="1009.3599999999999"/>
      <point x="675.5999999999999" y="1009.3599999999999" type="curve" smooth="yes"/>
      <point x="568.65" y="1009.3599999999999"/>
      <point x="500.28999999999996" y="953.42"/>
      <point x="474.52" y="849.48" type="curve"/>
      <point x="473.62999999999994" y="849.48" type="line"/>
      <point x="449.33" y="954.3599999999999"/>
      <point x="390.15000000000003" y="1008.83"/>
      <point x="285.26" y="1008.83" type="curve" smooth="yes"/>
      <point x="207.02" y="1008.83"/>
      <point x="133.01000000000002" y="975.36"/>
      <point x="83.83" y="937.4200000000001" type="curve"/>
      <point x="75.11999999999999" y="834.53" type="line"/>
      <point x="134.24" y="877.23"/>
      <point x="206.07" y="911.82"/>
      <point x="278.37" y="911.82" type="curve" smooth="yes"/>
      <point x="378.65999999999997" y="911.82"/>
      <point x="423.01" y="848.2399999999999"/>
      <point x="423.01" y="715.3100000000001" type="curve"/>
      <point x="423.01000000000005" y="569.03" type="line"/>
      <point x="423.01000000000005" y="451.42999999999995"/>
      <point x="423.01000000000005" y="350.26"/>
      <point x="424.6" y="237.96000000000004" type="curve"/>
      <point x="432.02000000000004" y="225.56" type="line"/>
      <point x="451.1" y="69.93"/>
      <point x="541.88" y="-13.530000000000001"/>
    </contour>
    <contour>
      <point x="250.95" y="-13.53" type="curve" smooth="yes"/>
      <point x="367.25000000000006" y="-13.53"/>
      <point x="420.31" y="58.339999999999996"/>
      <point x="444.02000000000004" y="162.04" type="curve"/>
      <point x="460.90999999999997" y="162.04" type="line"/>
      <point x="428.71999999999997" y="239.84" type="line"/>
      <point x="410.84000000000003" y="146.34"/>
      <point x="367.20000000000005" y="79.36"/>
      <point x="285.1" y="79.36" type="curve" smooth="yes"/>
      <point x="197.11999999999998" y="79.36"/>
      <point x="164.6" y="143.17"/>
      <point x="164.6" y="255.90999999999997" type="curve" smooth="yes"/>
      <point x="164.6" y="312.42" type="line" smooth="yes"/>
      <point x="164.6" y="408.46"/>
      <point x="197.89" y="458.04"/>
      <point x="293.16" y="489.03000000000003" type="curve" smooth="yes"/>
      <point x="452.61" y="541.02" type="line"/>
      <point x="441.66" y="630.6099999999999" type="line"/>
      <point x="266.14" y="573.56" type="line" smooth="yes"/>
      <point x="110.89" y="523.56"/>
      <point x="56.05" y="450.85"/>
      <point x="56.05" y="307.65000000000003" type="curve" smooth="yes"/>
      <point x="56.05" y="240.66" type="line" smooth="yes"/>
      <point x="56.05" y="75.71"/>
      <point x="114.75999999999999" y="-13.53"/>
    </contour>
    <contour>
      <point x="482.94000000000005" y="437.21000000000004" type="line"/>
      <point x="863.6700000000001" y="437.21000000000004" type="line"/>
      <point x="863.6700000000001" y="525.8599999999999" type="line"/>
      <point x="482.94000000000005" y="525.8599999999999" type="line"/>
    </contour>
  </outline>
</glyph>
<glyph name="eth" format="2">
  <advance width="651.78"/>
  <unicode hex="00F0"/>
  <outline>
    <contour>
      <point x="326.97999999999996" y="-15.12" type="curve" smooth="yes"/>
      <point x="490.01" y="-15.12"/>
      <point x="573.38" y="88.66000000000001"/>
      <point x="573.38" y="282.04" type="curve"/>
      <point x="573.38" y="668.33" type="line"/>
      <point x="573.38" y="914.4599999999999"/>
      <point x="497.32000000000005" y="1036.58"/>
      <point x="271.32" y="1331.35" type="curve"/>
      <point x="151.47000000000003" y="1331.35" type="line"/>
      <point x="151.47000000000003" y="1331.35" type="line"/>
      <point x="384.95000000000005" y="1029.27"/>
      <point x="455.9599999999999" y="919.8"/>
      <point x="468.66" y="746.86" type="curve"/>
      <point x="467.6" y="734.27"/>
      <point x="466.47999999999996" y="721.74"/>
      <point x="465.41999999999996" y="709.1500000000001" type="curve"/>
      <point x="465.41999999999996" y="564.17"/>
      <point x="465.41999999999996" y="418.72"/>
      <point x="465.41999999999996" y="273.74" type="curve" smooth="yes"/>
      <point x="465.41999999999996" y="144.58"/>
      <point x="421.55" y="76.71"/>
      <point x="326.97999999999996" y="76.71" type="curve" smooth="yes"/>
      <point x="231.41" y="76.71"/>
      <point x="188.01" y="144.58"/>
      <point x="188.01" y="273.74" type="curve" smooth="yes"/>
      <point x="188.01" y="621.38" type="line" smooth="yes"/>
      <point x="188.01" y="756.24"/>
      <point x="228.47" y="826.9300000000001"/>
      <point x="320.15999999999997" y="826.9300000000001" type="curve" smooth="yes"/>
      <point x="413.67" y="826.9300000000001"/>
      <point x="461.01" y="752.77"/>
      <point x="465.41999999999996" y="634.32" type="curve"/>
      <point x="493.25" y="736.35" type="line"/>
      <point x="465.41" y="743.87" type="line"/>
      <point x="447.63000000000005" y="847.26"/>
      <point x="395.52" y="917.6999999999999"/>
      <point x="288.89000000000004" y="917.6999999999999" type="curve" smooth="yes"/>
      <point x="142.58" y="917.6999999999999"/>
      <point x="78.39999999999999" y="810.04"/>
      <point x="78.39999999999999" y="611.84" type="curve" smooth="yes"/>
      <point x="78.39999999999999" y="282.03999999999996" type="line" smooth="yes"/>
      <point x="78.39999999999999" y="88.66000000000001"/>
      <point x="161.82999999999998" y="-15.12"/>
    </contour>
    <contour>
      <point x="142.65" y="1008.74" type="line"/>
      <point x="557.85" y="1179.6100000000001" type="line"/>
      <point x="557.85" y="1259.48" type="line"/>
      <point x="142.65" y="1087.61" type="line"/>
    </contour>
  </outline>
</glyph>
